<svg width="96" height="104" viewBox="0 0 96 104" fill="none" xmlns="http://www.w3.org/2000/svg">
<path fill-rule="evenodd" clip-rule="evenodd" d="M43.2388 0H53.2297C69.7834 0 83.2028 13.4312 83.2028 30V40C83.2028 56.5683 69.7834 69.9999 53.2297 69.9999H43.2388C26.6851 69.9999 13.2656 56.5683 13.2656 40V30C13.2656 13.4312 26.6851 0 43.2388 0Z" fill="#F39119"/>
<path d="M44.8633 35.4714V38.6476L48.5068 37.0595L44.8633 35.4714Z" fill="white"/>
<path d="M47.5 29.0146C42.4119 29.0146 38.2715 32.624 38.2715 37.0595C38.2715 41.495 42.4119 45.1044 47.5 45.1044C52.5881 45.1044 56.7285 41.495 56.7285 37.0595C56.7285 32.624 52.5881 29.0146 47.5 29.0146V29.0146ZM42.2266 42.367V31.7521L54.4034 37.0595L42.2266 42.367Z" fill="white"/>
<path d="M61.0217 26.8972L63.3474 24.8698L61.4831 23.2447L58.9258 25.4741C57.2067 24.4262 55.2889 23.5535 53.2001 22.9534L54.2322 19.5949L51.6856 19L50.6443 22.3884C49.6278 22.2304 48.5883 22.119 47.5 22.119C46.4117 22.119 45.3722 22.2304 44.3557 22.3884L43.3145 19.0001L40.7678 19.5949L41.7999 22.9535C39.7112 23.5535 37.7934 24.4262 36.0743 25.4741L33.5169 23.2447L31.6526 24.8698L33.9783 26.8972C30.6443 29.3738 27.4304 32.9159 25 37.0595C29.4607 44.6945 37.6165 52 47.5 52C57.3886 52 65.544 44.6863 70 37.0595C67.5661 32.9099 64.3499 29.3696 61.0217 26.8972V26.8972ZM47.5 47.4029C40.9572 47.4029 35.6348 42.7632 35.6348 37.0595C35.6348 31.3559 40.9572 26.7161 47.5 26.7161C54.0428 26.7161 59.3652 31.3559 59.3652 37.0595C59.3652 42.7632 54.0428 47.4029 47.5 47.4029V47.4029Z" fill="white"/>
</svg>
