<svg width="1524" height="674" viewBox="0 0 1524 674" fill="none" xmlns="http://www.w3.org/2000/svg">
<path d="M959.63 0H730.94C717.825 0 705.247 5.2099 695.974 14.4836C686.7 23.7572 681.49 36.335 681.49 49.45V217.19H699.49V49.74C699.49 35.34 711.49 23.67 726.39 23.67H777.56V34.55C777.568 35.4083 777.745 36.2566 778.082 37.0461C778.419 37.8356 778.909 38.5506 779.523 39.1501C780.138 39.7496 780.864 40.2216 781.662 40.5391C782.459 40.8566 783.312 41.0132 784.17 41H878.78C879.636 41.0132 880.487 40.8577 881.283 40.5422C882.079 40.2267 882.805 39.7574 883.42 39.1613C884.035 38.5651 884.526 37.8537 884.866 37.0676C885.205 36.2815 885.387 35.4363 885.4 34.58V23.67H936.56C951.42 23.67 963.46 35.34 963.46 49.74V231H981.17V46C981.17 25 963.48 7.82 941.72 7.82C940.924 7.82 940.161 7.50393 939.599 6.94132C939.036 6.37871 938.72 5.61565 938.72 4.82C938.72 4.02435 939.036 3.26129 939.599 2.69868C940.161 2.13607 940.924 1.82 941.72 1.82C966.78 1.82 987.17 21.64 987.17 46V231H1009.07V49.45C1009.07 36.3368 1003.86 23.7605 994.59 14.4871C985.318 5.21372 972.743 0.00265181 959.63 0Z" fill="#A6A4A5"/>
<path d="M699.49 358.57H681.49V558.69H699.49V358.57Z" fill="#A6A4A5"/>
<path d="M963.46 289.13V424.92L981.17 428.18V289.13H963.46Z" fill="#A6A4A5"/>
<path d="M981.18 607C981.18 607 981.18 606.92 981.18 606.89V454.42L963.47 451.6V615C963.47 629.4 951.47 641.07 936.57 641.07H726.39C712.17 641.07 700.53 630.37 699.57 616.82H681.57C683.01 642.82 705.24 665.18 731.57 665.18L945.28 663.47C945.275 662.792 945.499 662.133 945.917 661.599C946.335 661.065 946.921 660.688 947.58 660.53C962.09 657.06 972.14 647.12 977.45 630.99C979.948 623.239 981.207 615.143 981.18 607Z" fill="#A6A4A5"/>
<path d="M987.17 289.12V430.85L998.08 441.85L987.17 449.08V606.82C987.261 615.608 985.938 624.353 983.25 632.72C978.42 647.54 969.6 658.03 957.49 663.5H959.63C972.741 663.497 985.315 658.288 994.586 649.016C1003.86 639.745 1009.07 627.171 1009.07 614.06V289.12H987.17Z" fill="#A6A4A5"/>
<path d="M945.41 664.17C945.567 664.824 945.939 665.406 946.467 665.824C946.995 666.241 947.647 666.468 948.32 666.47C948.556 666.473 948.791 666.446 949.02 666.39C951.929 665.7 954.766 664.732 957.49 663.5H945.33C945.327 663.726 945.354 663.951 945.41 664.17Z" fill="#A6A4A5"/>
<path d="M901.89 195.29C918.36 205.61 938.27 212.1 965.82 212.46" stroke="#A6A4A5" stroke-width="6" stroke-linecap="round" stroke-linejoin="round"/>
<path d="M697.14 89.8C717.63 87.52 776.68 70.92 824.25 117.34C830.19 123.13 835.67 128.94 840.85 134.68" stroke="#A6A4A5" stroke-width="6" stroke-linecap="round" stroke-linejoin="round"/>
<path d="M734.61 473.68C722.155 472.345 709.591 472.365 697.14 473.74" stroke="#A6A4A5" stroke-width="6" stroke-linecap="round" stroke-linejoin="round"/>
<path d="M965.82 572.37C889.74 571.37 871.82 561.56 824.25 515.14C820.496 511.478 816.554 508.013 812.44 504.76" stroke="#A6A4A5" stroke-width="6" stroke-linecap="round" stroke-linejoin="round"/>
<path d="M899.92 134.68H768.65V265.95H899.92V134.68Z" stroke="#F28500" stroke-width="7" stroke-linecap="round" stroke-linejoin="round"/>
<path d="M804.67 277.19H770.87V310.99H804.67V277.19Z" stroke="#F28500" stroke-width="7" stroke-linecap="round" stroke-linejoin="round"/>
<path d="M804.67 277.19L770.87 310.99" stroke="#F28500" stroke-width="7" stroke-linecap="round" stroke-linejoin="round"/>
<path d="M850.82 277.19H817.02V310.99H850.82V277.19Z" stroke="#F28500" stroke-width="7" stroke-linecap="round" stroke-linejoin="round"/>
<path d="M850.82 277.19L817.02 310.99" stroke="#F28500" stroke-width="7" stroke-linecap="round" stroke-linejoin="round"/>
<path d="M896.96 277.19H863.16V310.99H896.96V277.19Z" stroke="#F28500" stroke-width="7" stroke-linecap="round" stroke-linejoin="round"/>
<path d="M896.97 277.19L863.16 310.99" stroke="#F28500" stroke-width="7" stroke-linecap="round" stroke-linejoin="round"/>
<path d="M910.53 350.5H763.15C748.675 350.5 736.94 362.235 736.94 376.71V393.58C736.94 408.055 748.675 419.79 763.15 419.79H910.53C925.005 419.79 936.74 408.055 936.74 393.58V376.71C936.74 362.235 925.005 350.5 910.53 350.5Z" stroke="#F28500" stroke-width="7" stroke-linecap="round" stroke-linejoin="round"/>
<path d="M909.51 433.72H762.13C747.655 433.72 735.92 445.455 735.92 459.93V476.8C735.92 491.275 747.655 503.01 762.13 503.01H909.51C923.985 503.01 935.72 491.275 935.72 476.8V459.93C935.72 445.455 923.985 433.72 909.51 433.72Z" stroke="#F28500" stroke-width="7" stroke-linecap="round" stroke-linejoin="round"/>
<path d="M897.6 135.62L768.65 265.95" stroke="#F28500" stroke-width="7" stroke-linecap="round" stroke-linejoin="round"/>
<path d="M722.35 217.19H519.62C507.547 217.19 497.76 226.977 497.76 239.05V336.71C497.76 348.783 507.547 358.57 519.62 358.57H722.35C734.423 358.57 744.21 348.783 744.21 336.71V239.05C744.21 226.977 734.423 217.19 722.35 217.19Z" stroke="#A6A4A5" stroke-width="6" stroke-linecap="round" stroke-linejoin="round"/>
<path d="M593.46 270.4H592.77C590.716 270.4 589.05 272.066 589.05 274.12V277.82C589.05 279.875 590.716 281.54 592.77 281.54H593.46C595.515 281.54 597.18 279.875 597.18 277.82V274.12C597.18 272.066 595.515 270.4 593.46 270.4Z" fill="#F28500"/>
<path d="M580.93 270.4H535.03C532.269 270.4 530.03 272.639 530.03 275.4V276.54C530.03 279.301 532.269 281.54 535.03 281.54H580.93C583.691 281.54 585.93 279.301 585.93 276.54V275.4C585.93 272.639 583.691 270.4 580.93 270.4Z" fill="#A6A4A5"/>
<path d="M585.99 322.13H535.03C532.269 322.13 530.03 324.369 530.03 327.13V328.27C530.03 331.031 532.269 333.27 535.03 333.27H585.99C588.751 333.27 590.99 331.031 590.99 328.27V327.13C590.99 324.369 588.751 322.13 585.99 322.13Z" fill="#A6A4A5"/>
<path d="M634.98 304.91H550.44C547.679 304.91 545.44 307.149 545.44 309.91V311.05C545.44 313.811 547.679 316.05 550.44 316.05H634.98C637.741 316.05 639.98 313.811 639.98 311.05V309.91C639.98 307.149 637.741 304.91 634.98 304.91Z" fill="#F28500"/>
<path d="M691.35 304.91H650.28C647.519 304.91 645.28 307.149 645.28 309.91V311.05C645.28 313.811 647.519 316.05 650.28 316.05H691.35C694.111 316.05 696.35 313.811 696.35 311.05V309.91C696.35 307.149 694.111 304.91 691.35 304.91Z" fill="#F28500"/>
<path d="M709.9 287.69H709.21C707.156 287.69 705.49 289.356 705.49 291.41V295.11C705.49 297.164 707.156 298.83 709.21 298.83H709.9C711.955 298.83 713.62 297.164 713.62 295.11V291.41C713.62 289.356 711.955 287.69 709.9 287.69Z" fill="#A6A4A5"/>
<path d="M622.79 287.66H535.03C532.269 287.66 530.03 289.899 530.03 292.66V293.8C530.03 296.561 532.269 298.8 535.03 298.8H622.79C625.551 298.8 627.79 296.561 627.79 293.8V292.66C627.79 289.899 625.551 287.66 622.79 287.66Z" fill="#A6A4A5"/>
<path d="M651.67 270.4H605.77C603.009 270.4 600.77 272.639 600.77 275.4V276.54C600.77 279.301 603.009 281.54 605.77 281.54H651.67C654.431 281.54 656.67 279.301 656.67 276.54V275.4C656.67 272.639 654.431 270.4 651.67 270.4Z" fill="#A6A4A5"/>
<path d="M696.13 287.62H637.17C634.408 287.62 632.17 289.859 632.17 292.62V293.82C632.17 296.581 634.408 298.82 637.17 298.82H696.13C698.891 298.82 701.13 296.581 701.13 293.82V292.62C701.13 289.859 698.891 287.62 696.13 287.62Z" fill="#F28500"/>
<path d="M540.5 246.23L554.92 237.57C555.14 237.448 555.388 237.386 555.64 237.39C556.023 237.395 556.389 237.55 556.66 237.82C556.93 238.091 557.085 238.457 557.09 238.84C557.088 239.098 557.019 239.351 556.889 239.573C556.759 239.796 556.573 239.981 556.35 240.11L544 247.53L556.35 255C556.573 255.129 556.759 255.314 556.889 255.537C557.019 255.759 557.088 256.012 557.09 256.27C557.085 256.653 556.93 257.019 556.66 257.29C556.389 257.56 556.023 257.715 555.64 257.72C555.388 257.724 555.14 257.662 554.92 257.54L540.5 248.88C540.258 248.759 540.054 248.572 539.912 248.342C539.77 248.111 539.695 247.846 539.695 247.575C539.695 247.304 539.77 247.039 539.912 246.808C540.054 246.578 540.258 246.391 540.5 246.27V246.23Z" fill="#A6A4A5"/>
<path d="M572 232C572.129 231.866 572.285 231.759 572.457 231.687C572.628 231.615 572.813 231.578 573 231.58C573.384 231.58 573.753 231.733 574.025 232.005C574.297 232.277 574.45 232.645 574.45 233.03C574.451 233.243 574.41 233.453 574.33 233.65L562.73 262.65C562.632 262.863 562.483 263.049 562.297 263.192C562.111 263.335 561.893 263.431 561.662 263.471C561.431 263.511 561.194 263.495 560.971 263.424C560.747 263.352 560.544 263.227 560.38 263.06C560.246 262.93 560.14 262.774 560.068 262.603C559.996 262.431 559.959 262.246 559.96 262.06C559.957 261.846 560.001 261.634 560.09 261.44L571.68 232.44C571.759 232.275 571.868 232.126 572 232Z" fill="#A6A4A5"/>
<path d="M594.77 247.53C594.768 247.799 594.693 248.063 594.554 248.293C594.415 248.524 594.217 248.713 593.98 248.84L579.55 257.5C579.33 257.622 579.082 257.684 578.83 257.68C578.447 257.675 578.081 257.52 577.81 257.25C577.539 256.979 577.385 256.613 577.38 256.23C577.382 255.972 577.451 255.719 577.581 255.497C577.711 255.274 577.897 255.089 578.12 254.96L590.52 247.53L578.12 240.11C577.897 239.981 577.711 239.796 577.581 239.573C577.451 239.351 577.382 239.098 577.38 238.84C577.385 238.457 577.539 238.091 577.81 237.82C578.081 237.55 578.447 237.395 578.83 237.39C579.082 237.386 579.33 237.448 579.55 237.57L594 246.23C594.232 246.359 594.425 246.548 594.56 246.776C594.696 247.004 594.768 247.265 594.77 247.53Z" fill="#A6A4A5"/>
<path d="M1241.91 550.77C1242.14 543.831 1240.39 536.97 1236.87 530.989C1233.34 525.008 1228.18 520.156 1222 517L1190.79 499.9L1188.43 510.59C1187.09 516.141 1183.63 520.945 1178.79 523.968C1173.94 526.992 1168.11 527.994 1162.53 526.758C1156.96 525.522 1152.09 522.148 1148.98 517.361C1145.87 512.574 1144.76 506.756 1145.89 501.16L1149.01 487.09C1144.98 484.419 1141.97 480.455 1140.49 475.85C1140.22 474.96 1139.99 474.04 1139.8 473.11C1130.43 470.301 1120.42 470.549 1111.2 473.82L1064.82 490.28L1005.42 427.16L965 469.52L1040.45 556.22C1042.83 558.957 1045.99 560.899 1049.5 561.784C1053.02 562.67 1056.72 562.455 1060.11 561.17L1072.95 555.41L1050.32 664.74L1071.03 665.14C1065.57 664.14 1068.28 659.75 1071.88 658.45C1074.18 657.62 1077.48 656.2 1080.25 655.09C1076.32 656.304 1072.53 657.909 1068.92 659.88C1065.34 661.32 1061.28 658.88 1060.92 657.68C1060.67 656.93 1061.99 655.34 1064.47 653.56L1063.53 654C1056.61 655.67 1053.33 655.26 1055.16 651.54C1056.45 648.89 1073.96 639.84 1077.39 638.82C1080.82 637.8 1110.74 633.49 1110.74 633.49L1118.41 665.28L1224.03 665.93C1234.89 665.93 1243.67 658.61 1243.49 647.76L1241.91 550.77ZM1188.56 618.91L1116.19 635C1115.98 635.047 1115.76 635.071 1115.54 635.07C1114.8 635.071 1114.09 634.799 1113.53 634.306C1112.98 633.812 1112.63 633.133 1112.55 632.397C1112.47 631.661 1112.67 630.922 1113.1 630.321C1113.53 629.719 1114.17 629.299 1114.89 629.14L1184.73 613.64L1182.14 577.5C1182.11 577.106 1182.16 576.71 1182.29 576.336C1182.41 575.961 1182.61 575.614 1182.87 575.316C1183.13 575.017 1183.44 574.773 1183.79 574.596C1184.15 574.419 1184.53 574.313 1184.93 574.285C1185.32 574.257 1185.71 574.306 1186.09 574.431C1186.46 574.556 1186.81 574.753 1187.11 575.012C1187.41 575.27 1187.65 575.585 1187.83 575.938C1188.01 576.291 1188.11 576.676 1188.14 577.07L1190.92 615.79C1190.96 616.506 1190.75 617.215 1190.32 617.788C1189.89 618.36 1189.26 618.758 1188.56 618.91Z" fill="#A6A4A5"/>
<path d="M970.39 450.23C970.39 450.23 953.52 449.73 942.47 443.23C935.87 439.38 927.33 434.1 926.92 431.81C926.14 427.54 936.56 431.91 938.22 432.47" stroke="#A6A4A5" stroke-width="6" stroke-linecap="round" stroke-linejoin="round"/>
<path d="M979.86 458.13L974.93 451.25C965.54 449.74 958.85 447.34 954.35 444.9C948.52 441.73 930.76 427.02 930.42 425.08C929.52 419.92 938.32 420.08 944.8 428.3" stroke="#A6A4A5" stroke-width="6" stroke-linecap="round" stroke-linejoin="round"/>
<path d="M958.44 438.27C958.44 438.27 949.38 433.56 945.44 428.8C941.5 424.04 938.72 420.3 939.44 419.35C940.16 418.4 945.33 418.55 948.05 421.28C951.5 426.2 962.05 431.44 962.05 431.44C960.89 431.27 954.05 426.57 950.69 423.44C947.33 420.31 945.84 414.55 955.04 419.2C955.04 419.2 964.84 424.47 968.47 425.87C968.47 425.87 983.86 427.81 988.82 432.98C989.82 433.98 992.61 436.89 996.63 440.92" stroke="#A6A4A5" stroke-width="6" stroke-linecap="round" stroke-linejoin="round"/>
<path d="M1063.55 654C1056.63 655.67 1053.35 655.26 1055.18 651.54C1056.47 648.89 1073.98 639.84 1077.41 638.82C1080.84 637.8 1110.76 633.49 1110.76 633.49L1118.43 665.28H1075.1C1064.61 665.95 1067.64 659.99 1071.92 658.45C1076.2 656.91 1084.11 653.22 1085.29 653.52C1085.29 653.52 1074 656.74 1068.96 659.88C1065.38 661.32 1061.32 658.88 1060.96 657.68C1060.6 656.48 1063.87 653.43 1069.36 650.68C1073.45 648.693 1077.66 646.95 1081.96 645.46" stroke="#A6A4A5" stroke-width="6" stroke-linecap="round" stroke-linejoin="round"/>
<path d="M1197.92 474.15L1188.47 510.56C1187.85 513.355 1186.69 516 1185.05 518.345C1183.4 520.689 1181.32 522.687 1178.9 524.224C1176.49 525.762 1173.79 526.808 1170.97 527.303C1168.15 527.798 1165.26 527.732 1162.47 527.11C1159.67 526.492 1157.03 525.329 1154.68 523.688C1152.34 522.046 1150.34 519.958 1148.8 517.544C1147.26 515.129 1146.21 512.434 1145.72 509.614C1145.22 506.795 1145.29 503.905 1145.91 501.11L1148.8 488.11" stroke="#A6A4A5" stroke-width="6" stroke-linecap="round" stroke-linejoin="round"/>
<path d="M1210.48 451.9C1210.48 451.9 1227.89 417.98 1193.75 399.9C1190.57 398.21 1168.59 387.1 1158.04 404.9C1151.04 416.78 1145.86 430.51 1142.63 441.42C1142.63 441.48 1136.24 461.93 1140.53 475.89C1144.82 489.85 1162.99 494.68 1174.25 492.22C1185.51 489.76 1188.19 487.44 1193 481.71C1197.81 475.98 1210.44 452 1210.44 452L1210.48 451.9Z" stroke="#A6A4A5" stroke-width="6" stroke-linecap="round" stroke-linejoin="round"/>
<path d="M1142.63 441.35C1145.86 430.44 1150.99 416.71 1158.04 404.83C1158.36 404.28 1158.7 403.76 1159.04 403.27C1153.3 398.8 1144.04 408.03 1137.62 427C1134.3 436.82 1125.23 441.75 1125.23 441.75C1132.16 447.82 1138.4 445.19 1142.51 441.75C1142.59 441.5 1142.63 441.36 1142.63 441.35Z" fill="#A6A4A5"/>
<path d="M1158.78 435.06L1151.43 453.54L1157.49 455.76" stroke="#A6A4A5" stroke-width="6" stroke-linecap="round" stroke-linejoin="round"/>
<path d="M1153.83 433.817C1154.48 432.309 1154.21 430.748 1153.24 430.33C1152.27 429.912 1150.95 430.795 1150.3 432.303C1149.66 433.81 1149.92 435.371 1150.9 435.789C1151.87 436.207 1153.19 435.324 1153.83 433.817Z" fill="#A6A4A5"/>
<path d="M1170.73 441.069C1171.08 439.467 1170.53 437.983 1169.5 437.755C1168.46 437.526 1167.33 438.639 1166.98 440.241C1166.63 441.842 1167.18 443.326 1168.22 443.555C1169.25 443.784 1170.38 442.67 1170.73 441.069Z" fill="#A6A4A5"/>
<path d="M1183.54 435.06C1183.06 433.561 1182.18 432.22 1181 431.176C1179.82 430.133 1178.38 429.426 1176.83 429.13" stroke="#A6A4A5" stroke-width="6" stroke-linecap="round" stroke-linejoin="round"/>
<path d="M1160.78 421.49C1160.78 421.49 1155.44 416.6 1151.43 419.49" stroke="#A6A4A5" stroke-width="6" stroke-linecap="round" stroke-linejoin="round"/>
<path d="M1246.94 441.87L1228.51 432.52C1230.82 418.77 1229.4 397.52 1203.63 385.52C1163.36 366.81 1148.63 407.15 1148.63 407.15L1240.9 453.71C1241.68 454.146 1242.55 454.42 1243.44 454.514C1244.33 454.608 1245.23 454.521 1246.09 454.258C1246.95 453.995 1247.75 453.562 1248.43 452.983C1249.12 452.405 1249.68 451.694 1250.08 450.893C1250.49 450.093 1250.73 449.218 1250.79 448.323C1250.84 447.428 1250.72 446.53 1250.42 445.683C1250.13 444.837 1249.66 444.059 1249.05 443.397C1248.45 442.735 1247.72 442.202 1246.9 441.83L1246.94 441.87Z" fill="#F28500"/>
<path d="M1154.45 469.3C1150.33 460.93 1169.53 466.59 1169.53 466.59C1169.53 466.59 1164.1 485.89 1154.45 469.3Z" fill="#A6A4A5"/>
<path d="M1226.33 446.4L1187.4 426.75C1182.88 440.83 1177.21 469.13 1201.33 476.54C1201.33 476.54 1220.18 482.79 1225.59 476.6C1225.59 476.6 1212.66 467.11 1215.59 459.36C1215.59 459.36 1228.84 478.95 1244.37 468.54C1244.37 468.54 1226 462.65 1226.33 446.4Z" fill="#A6A4A5"/>
<path d="M1119.06 230.97H937.28C925.207 230.97 915.42 240.757 915.42 252.83V267.26C915.42 279.333 925.207 289.12 937.28 289.12H1119.06C1131.13 289.12 1140.92 279.333 1140.92 267.26V252.83C1140.92 240.757 1131.13 230.97 1119.06 230.97Z" stroke="#A6A4A5" stroke-width="6" stroke-linecap="round" stroke-linejoin="round"/>
<path d="M944.4 254.05H1113.47" stroke="#A6A4A5" stroke-width="6" stroke-linecap="round" stroke-linejoin="round"/>
<path d="M944.4 268.47H1024.63" stroke="#A6A4A5" stroke-width="6" stroke-linecap="round" stroke-linejoin="round"/>
<path d="M827.84 558.69H646.06C633.987 558.69 624.2 568.477 624.2 580.55V594.98C624.2 607.053 633.987 616.84 646.06 616.84H827.84C839.913 616.84 849.7 607.053 849.7 594.98V580.55C849.7 568.477 839.913 558.69 827.84 558.69Z" stroke="#A6A4A5" stroke-width="6" stroke-linecap="round" stroke-linejoin="round"/>
<path d="M653.17 581.77H822.24" stroke="#A6A4A5" stroke-width="6" stroke-linecap="round" stroke-linejoin="round"/>
<path d="M653.17 596.19H733.41" stroke="#A6A4A5" stroke-width="6" stroke-linecap="round" stroke-linejoin="round"/>
<path d="M567.27 107.38H385.49C373.417 107.38 363.63 117.167 363.63 129.24V143.67C363.63 155.743 373.417 165.53 385.49 165.53H567.27C579.343 165.53 589.13 155.743 589.13 143.67V129.24C589.13 117.167 579.343 107.38 567.27 107.38Z" stroke="#A6A4A5" stroke-width="6" stroke-linecap="round" stroke-linejoin="round"/>
<path d="M392.61 130.46H561.68" stroke="#A6A4A5" stroke-width="6" stroke-linecap="round" stroke-linejoin="round"/>
<path d="M392.61 144.88H472.85" stroke="#A6A4A5" stroke-width="6" stroke-linecap="round" stroke-linejoin="round"/>
<path d="M379.08 391.64C347.32 400.78 340.28 413.64 344.17 426.23C331.43 433.88 305.35 452.63 282.03 488.77C249.68 538.9 354.03 618.14 372.42 618.14C390.81 618.14 520.49 567.48 520.49 567.48L528.11 544.4C533.493 528.152 534.053 510.693 529.723 494.133C525.393 477.573 516.358 462.623 503.71 451.09L503.1 450.54C489.1 438.01 475.71 422.41 462.71 416.25C460.9 406.86 455.82 396.83 442.39 391.25" stroke="#A6A4A5" stroke-width="6" stroke-linecap="round" stroke-linejoin="round"/>
<path d="M459.9 415C461.31 422.26 460.76 429.16 460.58 433.35C459.83 450.88 453.23 460.35 451.25 466.89C464.04 459.26 475.86 441.71 481.62 430.23C478 426.8 466.28 418.15 459.9 415Z" fill="#A6A4A5"/>
<path d="M390 468.26C383.67 465.35 351.51 444.59 346.08 424.38C339.57 427.87 329.43 433.97 323.13 441.49C330.42 445.9 371.48 470.31 389.64 469L390.37 468.94C390.2 468.67 390.08 468.44 390 468.26Z" fill="#A6A4A5"/>
<path d="M439.4 468.44C446.32 448.28 441.06 425.85 436.21 419.26C433.166 431.278 427.381 442.429 419.31 451.84C407.53 438.42 394.015 426.63 379.12 416.78L379.7 416.11L378.34 416.17L371 423.73C371 423.73 406 450.35 417.39 514.49C424.79 556.16 428.59 595.3 428.59 595.3L450.29 594.14C450.29 594.14 431.86 490.37 439.4 468.44Z" fill="#F28500"/>
<path d="M369.59 371.66C366.28 373.11 360.06 377.04 363.89 385.18C367.32 392.47 374.08 390.27 378.12 388.07" stroke="#A6A4A5" stroke-width="6" stroke-linecap="round" stroke-linejoin="round"/>
<path d="M431.9 336.5C439.14 355.02 441.65 376.82 441.9 387" stroke="#A6A4A5" stroke-width="6" stroke-linecap="round" stroke-linejoin="round"/>
<path d="M386.35 403.68L386.06 408.81L379.12 416.81C394.015 426.66 407.53 438.45 419.31 451.87C429.431 440.044 435.921 425.546 438 410.12" stroke="#A6A4A5" stroke-width="6" stroke-linecap="round" stroke-linejoin="round"/>
<path d="M378.7 371.74C381.3 373.34 389.91 384.11 392.7 389.45C392.7 389.45 405.38 381.26 425.15 376.07C425.15 376.07 436.03 373.62 440.66 373.86C440.66 373.86 444.66 394.17 438.48 406.73C432.3 419.29 413 421 402.74 416.86C392.48 412.72 390.32 410.14 386.65 403.95C382.98 397.76 371.51 374.14 371.51 374.14L378.7 371.74Z" stroke="#A6A4A5" stroke-width="6" stroke-linecap="round" stroke-linejoin="round"/>
<path d="M374.22 377.4C374.22 377.4 365.96 369.64 361.29 360.6C359.114 356.493 358.406 351.766 359.282 347.202C360.159 342.637 362.568 338.509 366.11 335.5C372.27 330.39 378.11 331.76 378.11 331.76C378.11 331.76 367.56 321 375.94 307C377.41 304.568 379.359 302.46 381.67 300.806C383.981 299.152 386.604 297.987 389.38 297.38C393.192 296.476 397.185 296.705 400.869 298.037C404.553 299.369 407.768 301.747 410.12 304.88C410.12 304.88 418.12 274.53 451.84 282.99C455.24 283.84 459.73 287.46 462.1 290.05C476.45 305.78 449.27 335.33 432.77 341.21C414.66 347.67 403.03 347.28 395.92 344.21C401 345.83 402.9 374.86 374.22 377.4Z" fill="#A6A4A5"/>
<path d="M424.69 367.97L431.02 384.97L424.47 384.91" stroke="#A6A4A5" stroke-width="6" stroke-linecap="round" stroke-linejoin="round"/>
<path d="M433.266 368.918C434.258 368.673 434.755 367.231 434.376 365.698C433.997 364.164 432.886 363.12 431.894 363.365C430.902 363.61 430.405 365.052 430.784 366.585C431.163 368.119 432.274 369.163 433.266 368.918Z" fill="#A6A4A5"/>
<path d="M417.07 372.797C418.09 372.742 418.848 371.419 418.763 369.841C418.677 368.264 417.781 367.03 416.761 367.086C415.74 367.141 414.983 368.464 415.068 370.042C415.153 371.619 416.05 372.853 417.07 372.797Z" fill="#A6A4A5"/>
<path d="M404.56 363.23C405.253 361.883 406.296 360.748 407.578 359.942C408.861 359.136 410.336 358.69 411.85 358.65" stroke="#A6A4A5" stroke-width="6" stroke-linecap="round" stroke-linejoin="round"/>
<path d="M426.36 350.4C426.36 350.4 432.19 346.59 435.55 349.94" stroke="#A6A4A5" stroke-width="6" stroke-linecap="round" stroke-linejoin="round"/>
<path d="M424.43 396.9C418.68 396.36 416.71 393.48 416.71 393.48L426.65 392.83C426.65 392.83 428.24 396.81 424.43 396.9Z" fill="#A6A4A5" stroke="#A6A4A5" stroke-width="6" stroke-linecap="round" stroke-linejoin="round"/>
<path d="M393.89 463.46C393.89 463.46 403.64 486.08 405.19 502.05" stroke="#A6A4A5" stroke-width="6" stroke-linecap="round" stroke-linejoin="round"/>
<path d="M446.26 464.49C446.26 464.49 447.99 484.21 449.7 500.17" stroke="#A6A4A5" stroke-width="6" stroke-linecap="round" stroke-linejoin="round"/>
<path d="M326.86 511.65C326.86 511.65 337.23 500.21 354.16 510.73L369.26 497.31" stroke="#A6A4A5" stroke-width="6" stroke-linecap="round" stroke-linejoin="round"/>
<path d="M392.29 532.39C390.46 531.47 352.79 509.97 352.79 509.97" stroke="#A6A4A5" stroke-width="6" stroke-linecap="round" stroke-linejoin="round"/>
<path d="M485.72 509.53L478.22 492.48" stroke="#A6A4A5" stroke-width="6" stroke-linecap="round" stroke-linejoin="round"/>
<path d="M390.43 598.87C390.43 598.87 352.89 583.27 306.48 551.1C260.07 518.93 230.48 568.75 242.99 589.1C253.99 607.1 315.78 668.81 315.78 668.81L526.12 667.1C526.12 667.1 575.54 604.91 583.3 595.17C609.53 562.23 587.86 544.81 559.03 542.29C531.89 539.91 458.65 593.29 449.65 600.14L390.43 598.87Z" fill="#A6A4A5"/>
<path d="M519.09 507.77H383.92C383.059 507.768 382.223 508.057 381.547 508.591C380.871 509.125 380.397 509.872 380.2 510.71L361.89 588.23H327.89C327.89 588.23 324.82 604.13 342.77 604.13H361.77C362.124 604.234 362.491 604.288 362.86 604.29H498.1C498.96 604.289 499.795 603.998 500.47 603.465C501.145 602.932 501.62 602.187 501.82 601.35L522.82 512.47C522.951 511.908 522.954 511.324 522.827 510.761C522.701 510.198 522.449 509.671 522.09 509.219C521.732 508.767 521.276 508.402 520.756 508.151C520.237 507.9 519.667 507.77 519.09 507.77Z" fill="#F28500"/>
<path d="M1520.22 663.47L3 670.47" stroke="#A6A4A5" stroke-width="6" stroke-linecap="round" stroke-linejoin="round"/>
</svg>
