<svg width="96" height="104" viewBox="0 0 96 104" fill="none" xmlns="http://www.w3.org/2000/svg">
<path fill-rule="evenodd" clip-rule="evenodd" d="M43.2388 0H53.2297C69.7834 0 83.2028 13.4312 83.2028 30V40C83.2028 56.5683 69.7834 69.9999 53.2297 69.9999H43.2388C26.6851 69.9999 13.2656 56.5683 13.2656 40V30C13.2656 13.4312 26.6851 0 43.2388 0Z" fill="#F39119"/>
<path d="M47.5 23.7096C50.1813 23.7096 52.3548 21.536 52.3548 18.8548C52.3548 16.1736 50.1813 14 47.5 14C44.8188 14 42.6453 16.1736 42.6453 18.8548C42.6453 21.536 44.8188 23.7096 47.5 23.7096Z" fill="white"/>
<path d="M41.4315 34.6328H53.5684C54.2387 34.6328 54.7821 34.0894 54.7821 33.4191V29.778C54.7821 27.6051 53.8251 25.6518 52.3109 24.3164C49.5599 26.7426 45.4436 26.7458 42.6889 24.3164C41.1747 25.6518 40.2178 27.6051 40.2178 29.778V33.4191C40.2178 34.0894 40.7612 34.6328 41.4315 34.6328Z" fill="white"/>
<path d="M45.0893 43.1553L41.2375 39.3443C39.4931 37.6146 36.8045 37.4163 34.8436 38.7461C34.4245 39.0304 34.3711 39.6283 34.7291 39.9863L39.5592 44.8164C39.9815 45.2387 39.9588 45.9299 39.5097 46.3236C39.0991 46.6834 38.4795 46.6617 38.0952 46.274L32.9357 41.0684V29.1712C32.9357 27.8082 31.8308 26.7033 30.4678 26.7033C29.1049 26.7033 28 27.8082 28 29.1712V40.8415C28 42.3566 28.6071 43.8086 29.6855 44.8729L35.7897 50.8968V54.2137C35.7897 54.884 36.3331 55.4274 37.0034 55.4274H45.0726C45.7429 55.4274 46.2863 54.884 46.2863 54.2137V46.0281C46.2863 44.9492 45.8554 43.915 45.0893 43.1553V43.1553Z" fill="white"/>
<path d="M49.9109 43.1553L53.7627 39.3443C55.5071 37.6146 58.1957 37.4163 60.1566 38.7461C60.5757 39.0304 60.6291 39.6283 60.2711 39.9863L55.441 44.8164C55.0187 45.2387 55.0414 45.9299 55.4905 46.3236C55.901 46.6834 56.5207 46.6617 56.905 46.274L62.0645 41.0684V29.1712C62.0645 27.8082 63.1694 26.7033 64.5323 26.7033C65.8953 26.7033 67.0002 27.8082 67.0002 29.1712V40.8415C67.0002 42.3566 66.3931 43.8086 65.3147 44.8729L59.2105 50.8968V54.2137C59.2105 54.884 58.667 55.4274 57.9968 55.4274H49.9276C49.2573 55.4274 48.7139 54.884 48.7139 54.2137V46.0281C48.7139 44.9492 49.1448 43.915 49.9109 43.1553Z" fill="white"/>
</svg>
