<svg width="96" height="104" viewBox="0 0 96 104" fill="none" xmlns="http://www.w3.org/2000/svg">
<path fill-rule="evenodd" clip-rule="evenodd" d="M43.2388 0H53.2297C69.7834 0 83.2028 13.4312 83.2028 30V40C83.2028 56.5683 69.7834 69.9999 53.2297 69.9999H43.2388C26.6851 69.9999 13.2656 56.5683 13.2656 40V30C13.2656 13.4312 26.6851 0 43.2388 0Z" fill="#F39119"/>
<path d="M36.3594 24.0837V27.3225L39.598 25.7031L36.3594 24.0837Z" fill="white"/>
<path d="M49.25 15H28V36.25H49.25V15ZM34.0156 31.115V20.2912L44.8395 25.7031L34.0156 31.115Z" fill="white"/>
<path d="M35.0364 39.2666L31.2209 43.0787L32.8769 44.7369L33.3633 44.2517C34.1987 47.8692 36.0412 51.2155 38.6791 53.8522L39.5076 54.6807L41.1647 53.0236L40.3362 52.1951C34.8652 46.724 35.3301 40.4763 35.0364 39.2666V39.2666Z" fill="white"/>
<path d="M51.5937 46.7969C51.5937 46.1503 51.0684 45.625 50.4218 45.625H46.9062V44.4531C46.9062 43.8066 46.3809 43.2812 45.7343 43.2812H37.957C39.0903 48.0523 42.4603 51.9646 46.9062 53.8245V51.4844C46.9062 49.5458 48.4832 47.9688 50.4218 47.9688C51.0684 47.9688 51.5937 47.4434 51.5937 46.7969Z" fill="white"/>
<path d="M56.6116 25.0422C55.0109 25.8181 53.9375 27.4093 53.9375 29.2187C53.9375 30.5108 54.9892 31.5625 56.2812 31.5625H57.4531C59.3917 31.5625 60.9688 33.1395 60.9688 35.0781C60.9688 37.0167 59.3917 38.5937 57.4531 38.5937C56.8066 38.5937 56.2812 39.119 56.2812 39.7656C56.2812 40.4122 56.8066 40.9375 57.4531 40.9375H59.7969C61.7355 40.9375 63.3125 42.5145 63.3125 44.4531C63.3125 45.0997 63.8378 45.625 64.4844 45.625H66.8247C67.5798 43.82 68 41.8413 68 39.7656C68 32.6961 63.1523 26.7531 56.6116 25.0422Z" fill="white"/>
<path d="M60.9688 44.4531C60.9688 43.8066 60.4434 43.2812 59.7969 43.2812H57.4531C55.5145 43.2812 53.9375 41.7042 53.9375 39.7656C53.9375 37.827 55.5145 36.25 57.4531 36.25C58.0997 36.25 58.625 35.7247 58.625 35.0781C58.625 34.4316 58.0997 33.9062 57.4531 33.9062H56.2812C53.696 33.9062 51.5938 31.804 51.5938 29.2188V38.5938H37.6299C37.5998 38.9848 37.5312 39.3718 37.5312 39.7656C37.5312 40.1612 37.5609 40.5494 37.5906 40.9375H45.7344C47.2622 40.9375 48.5656 41.9171 49.0498 43.2812H50.4219C52.3605 43.2812 53.9375 44.8583 53.9375 46.7969C53.9375 48.7355 52.3605 50.3125 50.4219 50.3125C49.7753 50.3125 49.25 50.8378 49.25 51.4844V54.5741C50.3807 54.8428 51.554 55 52.7656 55C58.1446 55 62.8708 52.1903 65.5823 47.9688H64.4844C62.5458 47.9688 60.9688 46.3917 60.9688 44.4531Z" fill="white"/>
<path d="M52.7656 24.5312C52.3718 24.5312 51.9848 24.5999 51.5938 24.6299V29.2188C51.5938 27.4601 52.2638 25.8217 53.3802 24.5624C53.1748 24.5541 52.973 24.5312 52.7656 24.5312Z" fill="white"/>
<path d="M65.6562 27.5823V22.1875H63.3125V22.873C60.1642 20.908 56.4941 19.8438 52.7656 19.8438H51.5938V22.1875H52.7656C60.5013 22.1875 64.5823 26.9279 65.6562 27.5823Z" fill="white"/>
</svg>
