<svg width="1586" height="639" viewBox="0 0 1586 639" fill="none" xmlns="http://www.w3.org/2000/svg">
<g clip-path="url(#clip0)">
<rect x="437" width="767" height="631" fill="#FFF1D6"/>
<path d="M1342 194.5L1274 156.5L1245 225L1238.5 253L1237 272L1241 293L1257.5 307.5L1275 316L1293.5 319.5L1329 307.5L1345 290.5L1347.5 279L1329 226.5L1342 194.5Z" fill="#FFF1D6"/>
<path d="M1282.5 318.5L1260 310.5L1248 334.5L1245.5 365.5L1299 389.5C1308.5 381.5 1327.5 365.3 1327.5 364.5C1327.5 363.7 1331.5 344.167 1333.5 334.5L1337.5 318.5L1339 305L1335.5 300.5L1320.5 313.5L1307 316.5L1282.5 318.5Z" fill="#FFF1D6"/>
<path d="M1154.5 577L1059 593L1055 597.5L1062.5 603.5L1066 606.5L1062.5 612L1070 614L1075.5 618L1077.5 623.5L1088.5 627V633.5H1165L1172 631.5L1154.5 577Z" fill="#FFF1D6"/>
<rect x="978" y="125" width="115" height="34" fill="#2F2E2E"/>
<rect x="1059" y="181" width="26" height="29" fill="#2F2E2E"/>
<rect x="1008" y="402" width="38" height="140" fill="#2F2E2E"/>
<rect x="1008" y="402" width="38" height="140" fill="#2F2E2E"/>
<rect x="1008" y="402" width="38" height="140" fill="#2F2E2E"/>
<rect x="941" y="448" width="38" height="92" fill="#2F2E2E"/>
<rect x="941" y="448" width="38" height="92" fill="#2F2E2E"/>
<rect x="941" y="448" width="38" height="92" fill="#2F2E2E"/>
<rect x="874" y="476" width="38" height="67" fill="#2F2E2E"/>
<rect x="874" y="476" width="38" height="67" fill="#2F2E2E"/>
<rect x="874" y="476" width="38" height="67" fill="#2F2E2E"/>
<path d="M801 108L775 89.5L721 176.5L717.5 192L822.5 138.5L801 108Z" fill="#F28500"/>
<path d="M685.5 204L578.5 160.5L569.5 182V206.5L685.5 204Z" fill="#F28500" stroke="black"/>
<path d="M682.5 216.5H565L568.5 253.5L591 290.5L682.5 216.5Z" fill="#F28500"/>
<path d="M440.5 634.5V502.5H308L300 517.5L328 634.5H440.5Z" fill="#FFF1D6"/>
<path d="M223 358.5H230L218 275.5L212 262.5L202.5 244.5L194.5 224L190 203.5V189.5L194.5 176L208 162.5L230 155.5L248.5 162.5L268 176L282 203.5L288.5 229L300 249.5L330.5 275.5L339 262.5L346.5 249.5V236V220V199.5L349.5 179V159L354 145.5L358 130.5L363.5 118.5L377 102.5L404.5 95L434.5 102.5L435.5 118.5L438 503H359H333L328 496L320.5 489.5L307 491.5L289 496L268.5 498.5L243 489.5L223 470.5L193 437.5L178.5 416L169.5 407L155 399L132 379L116.5 348L126 328.5L143 316.5H169.5L223 358.5Z" fill="#F28500"/>
<path d="M197.149 167.618C210.13 152.878 229.997 149.582 248.666 157.963C267.352 166.352 281.738 184.934 286.504 208.711L286.976 211.122L287.14 211.944C291.087 231.544 294.887 240.195 302.94 248.863L303.22 249.163C307.484 253.595 325.973 270.106 328.651 272.615C328.95 272.881 329.193 273.205 329.365 273.566C329.537 273.927 329.635 274.32 329.653 274.72C329.671 275.12 329.609 275.519 329.471 275.895C329.332 276.27 329.12 276.614 328.846 276.907C328.572 277.199 328.243 277.433 327.877 277.596C327.512 277.759 327.117 277.847 326.717 277.855C326.316 277.863 325.919 277.791 325.547 277.643C325.175 277.495 324.836 277.274 324.551 276.993L321.968 274.636C315.933 269.167 302.152 256.764 298.684 253.097L298.547 252.951C289.641 243.365 285.408 233.727 281.26 213.133C281.093 212.302 280.924 211.447 280.755 210.568C272.046 165.078 225.706 144.275 201.655 171.587C191.267 183.374 190.22 201.16 196.62 222.41C201.233 237.726 209.913 254.32 216.243 262.258L216.525 262.608C219.644 266.443 220.989 273.247 222.525 289.095L224.002 305.151L224.316 308.404C224.767 312.981 225.216 317.07 225.71 321.11C227.058 332.767 229.132 344.328 231.92 355.726C232.359 357.471 232.815 359.193 233.29 360.893C233.396 361.272 233.426 361.669 233.379 362.06C233.332 362.451 233.208 362.829 233.015 363.173C232.821 363.516 232.562 363.818 232.252 364.061C231.942 364.304 231.587 364.484 231.208 364.59C230.828 364.696 230.432 364.726 230.041 364.679C229.649 364.632 229.271 364.508 228.928 364.315C228.585 364.121 228.283 363.862 228.04 363.552C227.797 363.242 227.617 362.887 227.511 362.508C227.022 360.757 226.552 358.984 226.101 357.189C223.252 345.55 221.132 333.744 219.754 321.841L219.525 319.948C219.112 316.466 218.73 312.906 218.345 308.997L217.945 304.807C217.606 301.163 216.868 292.985 216.72 291.407L216.556 289.685C215.172 275.445 213.895 268.875 211.877 266.394C205.026 257.994 195.786 240.428 190.877 224.139C183.941 201.111 185.106 181.292 197.149 167.618Z" fill="black"/>
<path d="M149.596 313.15C166.763 311.617 185.041 319.359 198.463 334.865L199.763 336.383C207.268 345.124 212.543 350.083 217.686 353.275C221.942 355.919 226.215 357.5 233.372 359.229L234.401 359.471C237.001 360.057 249.867 362.9 255.141 364.192L257.326 364.734C267.178 367.207 277.338 370.166 288.95 374.055C306.163 379.792 322.339 391.292 337.7 407.859C337.971 408.147 338.182 408.486 338.322 408.857C338.461 409.227 338.526 409.621 338.512 410.017C338.499 410.412 338.407 410.801 338.243 411.161C338.078 411.521 337.844 411.845 337.554 412.114C337.264 412.383 336.923 412.592 336.552 412.729C336.18 412.866 335.786 412.928 335.39 412.911C334.995 412.895 334.607 412.801 334.248 412.633C333.889 412.466 333.567 412.23 333.3 411.938C318.574 396.054 303.2 385.129 287.047 379.743C275.156 375.761 264.83 372.772 254.787 370.282L252.092 369.628C245.737 368.123 233.567 365.441 232.605 365.213C224.496 363.288 219.542 361.49 214.518 358.369C208.544 354.659 202.663 349.059 194.315 339.243C169.34 309.859 127.679 313.581 121.739 342.905C119.132 355.572 125.692 368.859 139.063 381.685C148.706 390.929 161.808 399.459 169.603 402.65L169.995 402.808C174.008 404.38 177.901 408.933 185.676 420.029L194.686 432.977L196.306 435.277C200.672 441.422 204.636 446.717 208.706 451.759C222.12 468.378 235.593 480.77 250.443 488.87C259.543 493.852 268.031 495.895 276.488 495.619C282.834 495.412 288.437 494.085 296.404 491.298L302.299 489.19L303.699 488.702C305.032 488.245 306.173 487.877 307.272 487.555C310.411 486.523 313.704 486.038 317.007 486.121C324.087 486.508 329.579 490.832 334.179 499.948C334.365 500.301 334.479 500.687 334.514 501.084C334.549 501.481 334.505 501.881 334.383 502.261C334.262 502.641 334.066 502.992 333.807 503.296C333.549 503.599 333.232 503.848 332.876 504.027C332.52 504.206 332.132 504.313 331.734 504.341C331.336 504.368 330.937 504.317 330.56 504.188C330.182 504.06 329.834 503.857 329.536 503.593C329.237 503.329 328.995 503.007 328.822 502.648C325.184 495.438 321.522 492.476 316.94 492.126L316.399 492.095C313.358 491.949 311.811 492.256 304.04 494.965L299.14 496.693C290.248 499.844 283.973 501.375 276.685 501.613C267.151 501.924 257.597 499.625 247.566 494.132C231.927 485.602 217.904 472.705 204.038 455.525C200.127 450.68 196.324 445.625 192.195 439.842L190.347 437.234L180.777 423.487L179.832 422.145C173.669 413.437 170.191 409.412 167.914 408.435L167.801 408.389C159.319 405.039 145.275 395.949 134.914 386.014C120.205 371.915 112.751 356.812 115.863 341.705C119.163 325.388 132.374 314.687 149.596 313.15Z" fill="black"/>
<path d="M358.071 122.907C369.16 101.534 387.176 90.879 412.879 93.313C423.705 94.325 432.368 97.354 438.993 102.295C439.631 102.771 440.054 103.48 440.168 104.268C440.283 105.055 440.08 105.856 439.604 106.493C439.129 107.131 438.419 107.554 437.632 107.669C436.844 107.783 436.044 107.581 435.406 107.105C429.72 102.865 422.106 100.205 412.317 99.287C389.133 97.092 373.396 106.398 363.4 125.672C355.31 141.272 351.317 162.525 350.239 189.052L350.197 190.116C349.897 198.047 349.882 204.339 350.045 214.446L350.17 222.062C350.311 232.094 350.205 236.311 349.631 241.48L349.6 241.753C348.923 249.112 346.636 256.232 342.9 262.609C339.551 268.059 335.459 273.015 330.741 277.334L330.147 277.893C320.347 287.043 320.547 297.346 328.307 313.793L329.087 315.418C330.047 317.387 331.087 319.418 332.716 322.527L335.065 327.027C337.337 331.188 339.341 335.49 341.065 339.906C343.48 346.258 344.425 351.706 343.665 356.75L343.517 357.65C342.935 360.998 341.278 369.364 341.102 370.32C337.995 386.358 337.358 402.776 339.212 419.006C341.824 443.441 349.595 470.784 363.829 501.96C363.994 502.319 364.086 502.706 364.101 503.1C364.115 503.494 364.052 503.888 363.915 504.258C363.777 504.627 363.568 504.966 363.299 505.255C363.031 505.544 362.708 505.777 362.349 505.941C361.99 506.105 361.602 506.196 361.208 506.21C360.814 506.224 360.42 506.16 360.051 506.022C359.681 505.883 359.343 505.673 359.055 505.404C358.766 505.135 358.534 504.811 358.371 504.452C343.877 472.706 335.93 444.741 333.246 419.644C331.365 403.181 331.963 386.53 335.019 370.244L335.289 368.78C335.733 366.471 337.433 357.862 337.734 355.862C338.297 352.121 337.59 347.814 335.663 342.588L335.283 341.588C333.537 337.247 331.534 333.014 329.283 328.912L326.519 323.621C325.072 320.838 324.119 318.938 323.135 316.888C319.022 308.272 316.871 301.482 316.684 294.949C316.456 287 319.305 279.98 325.671 273.867L326.05 273.508C330.59 269.436 334.525 264.735 337.734 259.548C340.923 254.112 342.907 248.054 343.553 241.784L343.694 240.562C344.209 235.807 344.304 231.697 344.168 222.055L344.01 212.239C343.892 203.83 343.918 198.004 344.156 191.116L344.2 189.889C345.246 162.056 349.379 139.672 358.071 122.907Z" fill="black"/>
<path d="M437.2 506.2H388.2C387.788 506.2 387.38 506.115 387.002 505.951C386.624 505.786 386.284 505.545 386.003 505.243C385.722 504.942 385.506 504.585 385.369 504.196C385.232 503.807 385.177 503.394 385.207 502.983C387.571 470.463 391.852 443.204 398.294 419.646C400.378 412.026 402.711 404.746 405.229 398.016C407.667 391.451 410.468 385.026 413.617 378.771C416.541 372.968 419.852 367.367 423.528 362.008C426.981 356.983 430.828 352.24 435.034 347.825C435.309 347.532 435.641 347.299 436.009 347.138C436.378 346.978 436.775 346.895 437.177 346.894C437.574 346.889 437.968 346.963 438.336 347.112C438.704 347.262 439.038 347.483 439.319 347.762C439.601 348.042 439.824 348.376 439.975 348.743C440.126 349.11 440.203 349.503 440.2 349.9V503.2C440.2 503.996 439.884 504.759 439.321 505.321C438.759 505.884 437.996 506.2 437.2 506.2ZM434.2 357.8L434.072 357.956C421.431 373.394 411.34 394.686 404.081 421.229C397.956 443.629 393.822 469.421 391.443 500.078L391.434 500.2H434.2V357.8Z" fill="black"/>
<path d="M436.004 500C436.783 499.999 437.532 500.3 438.091 500.839C438.65 501.378 438.976 502.111 438.999 502.884C439.021 503.658 438.739 504.409 438.214 504.98C437.687 505.55 436.958 505.894 436.18 505.938L436.004 505.943H315.309C313.67 505.908 312.042 506.237 310.545 506.903C309.049 507.571 307.722 508.56 306.658 509.802C305.595 511.042 304.824 512.502 304.4 514.076C303.976 515.649 303.91 517.297 304.208 518.899L330 633.374C330.172 634.129 330.04 634.92 329.633 635.581C329.226 636.24 328.576 636.717 327.82 636.908C327.065 637.099 326.265 636.989 325.588 636.604C324.913 636.218 324.416 635.586 324.203 634.841L324.16 634.671L298.428 520.477C296.019 510.069 304.08 500.198 314.978 500H315.309H436.004Z" fill="black"/>
<path d="M1200.5 637.4H437.2C436.404 637.4 435.641 637.084 435.079 636.521C434.516 635.959 434.2 635.196 434.2 634.4V3C434.2 2.20435 434.516 1.44129 435.079 0.87868C435.641 0.31607 436.404 0 437.2 0H1200.5C1201.3 0 1202.06 0.31607 1202.62 0.87868C1203.18 1.44129 1203.5 2.20435 1203.5 3V634.4C1203.5 635.196 1203.18 635.959 1202.62 636.521C1202.06 637.084 1201.3 637.4 1200.5 637.4ZM440.2 6V631.4H1197.5V6H440.2Z" fill="black"/>
<path d="M914 544.6H871.2C870.404 544.6 869.641 544.284 869.079 543.721C868.516 543.159 868.2 542.396 868.2 541.6V474.8C868.2 474.004 868.516 473.241 869.079 472.679C869.641 472.116 870.404 471.8 871.2 471.8H914C914.796 471.8 915.559 472.116 916.121 472.679C916.684 473.241 917 474.004 917 474.8V541.6C917 542.396 916.684 543.159 916.121 543.721C915.559 544.284 914.796 544.6 914 544.6ZM874.2 477.8V538.6H911V477.8H874.2Z" fill="#2F2E2E"/>
<path d="M981.2 544.6H938.4C937.604 544.6 936.841 544.284 936.279 543.721C935.716 543.159 935.4 542.396 935.4 541.6V446.7C935.4 445.904 935.716 445.141 936.279 444.579C936.841 444.016 937.604 443.7 938.4 443.7H981.2C981.996 443.7 982.759 444.016 983.321 444.579C983.884 445.141 984.2 445.904 984.2 446.7V541.6C984.2 542.396 983.884 543.159 983.321 543.721C982.759 544.284 981.996 544.6 981.2 544.6ZM941.4 449.7V538.6H978.2V449.7H941.4Z" fill="#2F2E2E"/>
<path d="M1048.3 544.6H1005.5C1004.7 544.6 1003.94 544.284 1003.38 543.721C1002.82 543.159 1002.5 542.396 1002.5 541.6V402.3C1002.5 401.504 1002.82 400.741 1003.38 400.179C1003.94 399.616 1004.7 399.3 1005.5 399.3H1048.3C1049.1 399.3 1049.86 399.616 1050.42 400.179C1050.98 400.741 1051.3 401.504 1051.3 402.3V541.6C1051.3 542.396 1050.98 543.159 1050.42 543.721C1049.86 544.284 1049.1 544.6 1048.3 544.6ZM1008.5 405.3V538.6H1045.3V405.3H1008.5Z" fill="#2F2E2E"/>
<path d="M1115.4 363.9H1072.6V541.6H1115.4V363.9Z" fill="#F28500"/>
<path d="M1129.9 272.7C1129.57 272.423 1129.19 272.218 1128.77 272.097C1128.36 271.977 1127.93 271.944 1127.5 272L1099.5 276.5C1098.72 276.626 1098.02 277.053 1097.55 277.689C1097.09 278.325 1096.89 279.119 1097 279.9C1097.14 280.67 1097.58 281.357 1098.21 281.821C1098.84 282.285 1099.62 282.492 1100.4 282.4L1118.7 279.5L1064.1 342.9L1041.8 321.5C1041.52 321.207 1041.17 320.983 1040.79 320.844C1040.41 320.705 1040 320.656 1039.6 320.7C1039.2 320.707 1038.8 320.8 1038.44 320.973C1038.08 321.145 1037.76 321.393 1037.5 321.7L964.3 406.7L943.1 390.8C942.531 390.368 941.827 390.151 941.113 390.187C940.4 390.224 939.722 390.512 939.2 391L873.5 454C872.934 454.546 872.606 455.293 872.587 456.079C872.568 456.866 872.861 457.628 873.4 458.2C873.689 458.487 874.033 458.715 874.41 458.869C874.788 459.024 875.192 459.102 875.6 459.1C876.37 459.076 877.109 458.794 877.7 458.3L941.6 397L963.1 413.1C963.712 413.552 964.47 413.761 965.227 413.687C965.984 413.613 966.687 413.262 967.2 412.7L1040.1 328L1062.4 349.4C1062.68 349.693 1063.03 349.917 1063.41 350.056C1063.79 350.195 1064.2 350.244 1064.6 350.2C1065 350.193 1065.4 350.1 1065.76 349.927C1066.12 349.755 1066.44 349.507 1066.7 349.2L1125 281.5L1124.6 305.2C1124.59 305.596 1124.67 305.989 1124.81 306.357C1124.96 306.724 1125.18 307.058 1125.46 307.338C1125.74 307.618 1126.08 307.838 1126.44 307.987C1126.81 308.135 1127.2 308.207 1127.6 308.2C1128.39 308.198 1129.16 307.881 1129.72 307.319C1130.28 306.757 1130.6 305.995 1130.6 305.2L1131.1 274.9C1130.97 274.05 1130.54 273.273 1129.9 272.7Z" fill="#F28500"/>
<path d="M698.2 469.5C698.981 469.499 699.731 469.803 700.292 470.347C700.852 470.891 701.179 471.631 701.202 472.412C701.224 473.193 700.942 473.951 700.414 474.527C699.887 475.103 699.156 475.45 698.376 475.495L698.2 475.5H514.2C513.419 475.501 512.669 475.197 512.108 474.653C511.548 474.109 511.221 473.369 511.198 472.588C511.175 471.807 511.458 471.049 511.985 470.473C512.513 469.897 513.244 469.55 514.024 469.505L514.2 469.5H698.2Z" fill="#2F2E2E"/>
<path d="M649.7 497.5C650.481 497.499 651.231 497.803 651.792 498.347C652.352 498.891 652.679 499.631 652.702 500.412C652.724 501.193 652.442 501.951 651.914 502.527C651.387 503.103 650.656 503.45 649.876 503.495L649.7 503.5H514.2C513.419 503.501 512.669 503.197 512.108 502.653C511.548 502.109 511.221 501.369 511.198 500.588C511.175 499.807 511.458 499.049 511.985 498.473C512.513 497.897 513.244 497.55 514.024 497.505L514.2 497.5H649.7Z" fill="#2F2E2E"/>
<path d="M606.2 528.9C606.981 528.899 607.731 529.203 608.292 529.747C608.852 530.291 609.179 531.031 609.202 531.812C609.224 532.593 608.942 533.351 608.414 533.927C607.887 534.503 607.156 534.85 606.376 534.895L606.2 534.9H510.2C509.419 534.901 508.669 534.597 508.108 534.053C507.548 533.509 507.221 532.769 507.198 531.988C507.175 531.207 507.458 530.449 507.985 529.873C508.513 529.297 509.244 528.95 510.024 528.905L510.2 528.9H606.2Z" fill="#2F2E2E"/>
<path d="M798.8 469.5C799.581 469.499 800.331 469.803 800.892 470.347C801.452 470.891 801.779 471.631 801.801 472.412C801.824 473.193 801.542 473.951 801.014 474.527C800.487 475.103 799.755 475.45 798.976 475.495L798.8 475.5H719.4C718.619 475.501 717.869 475.197 717.308 474.653C716.748 474.109 716.421 473.369 716.398 472.588C716.375 471.807 716.658 471.049 717.185 470.473C717.713 469.897 718.444 469.55 719.224 469.505L719.4 469.5H798.8Z" fill="#2F2E2E"/>
<path d="M601.5 411.3L622.7 431.3V391L601.5 411.3Z" fill="#F28500"/>
<path d="M571 432.3L592.8 411.4L571 390.9V432.3Z" fill="#F28500"/>
<path d="M679.1 383.9H630.1L654.8 407.2L679.1 383.9Z" fill="#F28500"/>
<path d="M597.1 415.5L572.3 439.4H622.5L597.1 415.5Z" fill="#F28500"/>
<path d="M628.7 432.3L650.5 411.4L628.7 390.9V432.3Z" fill="#F28500"/>
<path d="M510.2 388.1V435.2L535 411.4L510.2 388.1Z" fill="#F28500"/>
<path d="M539.4 415.5L514.6 439.4H564.8L539.4 415.5Z" fill="#F28500"/>
<path d="M563.6 383.9H514.6L539.4 407.2L563.6 383.9Z" fill="#F28500"/>
<path d="M680.4 431.3V391L659.2 411.3L680.4 431.3Z" fill="#F28500"/>
<path d="M543.8 411.3L565 431.3V391L543.8 411.3Z" fill="#F28500"/>
<path d="M654.9 415.5L630.1 439.4H680.3L654.9 415.5Z" fill="#F28500"/>
<path d="M621.3 383.9H572.3L597.1 407.2L621.3 383.9Z" fill="#F28500"/>
<path d="M738.1 383.9H686.4V439.4H738.1V383.9Z" fill="#F28500"/>
<path d="M798.8 383.9H744.1V439.4H798.8V383.9Z" fill="#F28500"/>
<path d="M680.2 439.4C680.3 439.5 680.3 439.5 680.4 439.5V439.4H680.2Z" fill="#F28500"/>
<path d="M1087.7 214.5H1056.7C1055.9 214.5 1055.14 214.184 1054.58 213.621C1054.02 213.059 1053.7 212.296 1053.7 211.5V180.5C1053.7 179.704 1054.02 178.941 1054.58 178.379C1055.14 177.816 1055.9 177.5 1056.7 177.5H1087.7C1088.5 177.5 1089.26 177.816 1089.82 178.379C1090.38 178.941 1090.7 179.704 1090.7 180.5V211.5C1090.7 212.296 1090.38 213.059 1089.82 213.621C1089.26 214.184 1088.5 214.5 1087.7 214.5ZM1059.7 183.5V208.5H1084.7V183.5H1059.7Z" fill="#2F2E2E"/>
<path d="M1093.8 163H975.3C974.504 163 973.741 162.684 973.179 162.121C972.616 161.559 972.3 160.796 972.3 160V124.3C972.3 123.504 972.616 122.741 973.179 122.179C973.741 121.616 974.504 121.3 975.3 121.3H1093.8C1094.6 121.3 1095.36 121.616 1095.92 122.179C1096.48 122.741 1096.8 123.504 1096.8 124.3V160C1096.8 160.796 1096.48 161.559 1095.92 162.121C1095.36 162.684 1094.6 163 1093.8 163ZM978.3 127.3V157H1090.8V127.3H978.3Z" fill="#2F2E2E"/>
<path d="M1035.6 208.5C1036.38 208.499 1037.13 208.803 1037.69 209.347C1038.25 209.891 1038.58 210.631 1038.6 211.412C1038.62 212.193 1038.34 212.951 1037.81 213.527C1037.29 214.103 1036.56 214.45 1035.78 214.495L1035.6 214.5H975.3C974.519 214.501 973.769 214.197 973.208 213.653C972.648 213.109 972.321 212.369 972.298 211.588C972.275 210.807 972.558 210.049 973.085 209.473C973.613 208.897 974.344 208.55 975.124 208.505L975.3 208.5H1035.6Z" fill="#2F2E2E"/>
<path d="M1035.6 193.8C1036.38 193.799 1037.13 194.103 1037.69 194.647C1038.25 195.191 1038.58 195.931 1038.6 196.712C1038.62 197.493 1038.34 198.251 1037.81 198.827C1037.29 199.403 1036.56 199.75 1035.78 199.795L1035.6 199.8H975.3C974.519 199.801 973.769 199.497 973.208 198.953C972.648 198.409 972.321 197.669 972.298 196.888C972.275 196.107 972.558 195.349 973.085 194.773C973.613 194.197 974.344 193.85 975.124 193.805L975.3 193.8H1035.6Z" fill="#2F2E2E"/>
<path d="M1035.6 179.2C1036.38 179.199 1037.13 179.503 1037.69 180.047C1038.25 180.591 1038.58 181.331 1038.6 182.112C1038.62 182.893 1038.34 183.651 1037.81 184.227C1037.29 184.803 1036.56 185.15 1035.78 185.195L1035.6 185.2H975.3C974.519 185.201 973.769 184.897 973.208 184.353C972.648 183.809 972.321 183.069 972.298 182.288C972.275 181.507 972.558 180.749 973.085 180.173C973.613 179.597 974.344 179.25 975.124 179.205L975.3 179.2H1035.6Z" fill="#2F2E2E"/>
<path d="M1042.8 292.3C1043.58 292.299 1044.33 292.603 1044.89 293.147C1045.45 293.691 1045.78 294.431 1045.8 295.212C1045.82 295.993 1045.54 296.751 1045.01 297.327C1044.49 297.903 1043.76 298.25 1042.98 298.295L1042.8 298.3H878.1C877.319 298.301 876.569 297.997 876.008 297.453C875.448 296.909 875.121 296.169 875.098 295.388C875.075 294.607 875.358 293.849 875.885 293.273C876.413 292.697 877.144 292.35 877.924 292.305L878.1 292.3H1042.8Z" fill="#2F2E2E"/>
<path d="M975.3 306.4C976.081 306.399 976.831 306.703 977.392 307.247C977.952 307.791 978.279 308.531 978.302 309.312C978.324 310.093 978.042 310.851 977.514 311.427C976.987 312.003 976.256 312.35 975.476 312.395L975.3 312.4H878.1C877.319 312.401 876.569 312.097 876.008 311.553C875.448 311.01 875.121 310.269 875.098 309.488C875.075 308.707 875.358 307.949 875.885 307.373C876.413 306.797 877.144 306.45 877.924 306.405L878.1 306.4H975.3Z" fill="#2F2E2E"/>
<path d="M709.1 209.9L822.1 152.6C831.098 170.361 835.791 189.99 835.8 209.9C835.8 279.4 778.6 336.6 709.1 336.6C690.049 336.603 671.244 332.306 654.085 324.03C636.926 315.753 621.857 303.711 610 288.8L709.1 209.9Z" fill="#F28500"/>
<path d="M910.9 110.2C911.681 110.199 912.431 110.503 912.992 111.047C913.552 111.591 913.879 112.331 913.902 113.112C913.925 113.893 913.642 114.651 913.115 115.227C912.587 115.803 911.856 116.15 911.076 116.195L910.9 116.2H806.2C805.419 116.201 804.669 115.897 804.108 115.353C803.548 114.809 803.221 114.069 803.198 113.288C803.176 112.507 803.458 111.749 803.985 111.173C804.513 110.597 805.244 110.25 806.024 110.205L806.2 110.2H910.9Z" fill="#2F2E2E"/>
<path d="M910.9 124.3C911.681 124.299 912.431 124.603 912.992 125.147C913.552 125.691 913.879 126.431 913.902 127.212C913.925 127.993 913.642 128.751 913.115 129.327C912.587 129.903 911.856 130.25 911.076 130.295L910.9 130.3H855.1C854.319 130.301 853.569 129.997 853.008 129.453C852.448 128.909 852.121 128.169 852.098 127.388C852.075 126.607 852.358 125.849 852.885 125.273C853.413 124.697 854.144 124.35 854.924 124.305L855.1 124.3H910.9Z" fill="#2F2E2E"/>
<path d="M910.9 138.5C911.681 138.499 912.431 138.803 912.992 139.347C913.552 139.891 913.879 140.631 913.902 141.412C913.925 142.193 913.642 142.951 913.115 143.527C912.587 144.103 911.856 144.45 911.076 144.495L910.9 144.5H873.8C873.019 144.501 872.269 144.197 871.708 143.653C871.148 143.109 870.821 142.369 870.798 141.588C870.775 140.807 871.058 140.049 871.585 139.473C872.113 138.897 872.844 138.55 873.624 138.505L873.8 138.5H910.9Z" fill="#2F2E2E"/>
<path d="M914 222.5C914.781 222.499 915.531 222.803 916.092 223.347C916.652 223.891 916.979 224.631 917.002 225.412C917.025 226.193 916.742 226.951 916.215 227.527C915.687 228.103 914.956 228.45 914.176 228.495L914 228.5H778.9C778.119 228.501 777.369 228.197 776.808 227.653C776.248 227.109 775.921 226.369 775.898 225.588C775.875 224.807 776.158 224.049 776.685 223.473C777.213 222.897 777.944 222.55 778.724 222.505L778.9 222.5H914Z" fill="#2F2E2E"/>
<path d="M914 233.6C914.781 233.599 915.531 233.903 916.092 234.447C916.652 234.991 916.979 235.731 917.002 236.512C917.025 237.293 916.742 238.051 916.215 238.627C915.687 239.203 914.956 239.55 914.176 239.595L914 239.6H888.7C887.919 239.601 887.169 239.297 886.608 238.753C886.048 238.209 885.721 237.469 885.698 236.688C885.676 235.907 885.958 235.149 886.485 234.573C887.013 233.997 887.744 233.65 888.524 233.605L888.7 233.6H914Z" fill="#2F2E2E"/>
<path d="M632.3 98.5C633.081 98.4992 633.831 98.803 634.392 99.3468C634.952 99.8905 635.279 100.631 635.302 101.412C635.325 102.193 635.042 102.951 634.515 103.527C633.987 104.103 633.256 104.45 632.476 104.495L632.3 104.5H551.8C551.019 104.501 550.269 104.197 549.708 103.653C549.148 103.109 548.821 102.369 548.798 101.588C548.775 100.807 549.058 100.049 549.585 99.473C550.113 98.8973 550.844 98.5501 551.624 98.505L551.8 98.5H632.3Z" fill="#2F2E2E"/>
<path d="M567.9 109.9C568.681 109.899 569.431 110.203 569.992 110.747C570.552 111.291 570.879 112.031 570.902 112.812C570.925 113.593 570.642 114.351 570.115 114.927C569.587 115.503 568.856 115.85 568.076 115.895L567.9 115.9H551.8C551.019 115.901 550.269 115.597 549.708 115.053C549.148 114.509 548.821 113.769 548.798 112.988C548.775 112.207 549.058 111.449 549.585 110.873C550.113 110.297 550.844 109.95 551.624 109.905L551.8 109.9H567.9Z" fill="#2F2E2E"/>
<path d="M590 294.2C589.548 294.201 589.102 294.1 588.695 293.904C588.288 293.707 587.93 293.421 587.65 293.067C570.375 271.388 560.853 244.551 560.6 216.832C560.596 216.438 560.669 216.047 560.816 215.681C560.963 215.316 561.18 214.983 561.456 214.701C561.732 214.42 562.06 214.195 562.422 214.041C562.785 213.886 563.174 213.804 563.568 213.8L685.468 212.5H685.504C686.128 212.495 686.737 212.687 687.245 213.049C687.753 213.411 688.134 213.924 688.334 214.515C688.549 215.102 688.571 215.742 688.396 216.343C688.222 216.943 687.86 217.472 687.364 217.852L591.864 293.552C591.335 293.974 590.677 294.203 590 294.2ZM676.769 218.592L566.67 219.767L566.686 220.211C567.593 244.248 575.828 267.434 590.286 286.658L590.519 286.965L676.769 218.592Z" fill="#F28500"/>
<path d="M568.8 209.299C568.004 209.299 567.241 208.983 566.679 208.42C566.116 207.858 565.8 207.095 565.8 206.299V204.699C565.777 189.248 568.626 173.928 574.2 159.518C574.42 158.954 574.805 158.47 575.305 158.128C575.804 157.785 576.395 157.601 577 157.599C577.371 157.598 577.739 157.666 578.085 157.799L691.685 201.899C692.337 202.15 692.881 202.62 693.223 203.228C693.565 203.836 693.685 204.545 693.561 205.232C693.437 205.919 693.077 206.541 692.543 206.992C692.01 207.442 691.336 207.692 690.638 207.699L568.839 209.299H568.8ZM578.749 164.499L578.422 165.423C574.246 177.405 572.016 189.979 571.817 202.666L571.81 203.259L675.11 201.902L578.749 164.499Z" fill="#F28500"/>
<path d="M713.685 196.114C713.156 196.108 712.637 195.964 712.181 195.696C711.725 195.428 711.347 195.045 711.085 194.585C710.819 194.136 710.678 193.623 710.678 193.101C710.678 192.579 710.819 192.066 711.085 191.617L771.185 85.917C771.38 85.5739 771.64 85.2726 771.951 85.0302C772.262 84.7879 772.618 84.6092 772.998 84.5046C773.379 84.3999 773.776 84.3712 774.167 84.4202C774.558 84.4692 774.936 84.5948 775.279 84.79C786.022 90.8757 795.796 98.5303 804.279 107.501C812.754 116.45 819.838 126.62 825.292 137.673C825.642 138.385 825.695 139.207 825.441 139.959C825.187 140.711 824.646 141.332 823.936 141.686L715.036 195.786C714.617 195.999 714.155 196.111 713.685 196.114ZM774.907 91.52L721.162 186.042L818.551 137.66L818.362 137.301C808.376 118.497 793.482 102.749 775.262 91.733L774.907 91.52Z" fill="#F28500"/>
<path d="M759.8 90.2C741.615 79.7913 721.053 74.2463 700.1 74.1H698.1C673.823 74.3305 650.169 81.8133 630.176 95.5874C610.183 109.361 594.764 128.798 585.9 151.4L699.3 195.9L759.8 90.2Z" fill="#2F2E2E"/>
<path d="M586.3 234C587.081 233.999 587.831 234.303 588.392 234.847C588.952 235.391 589.279 236.131 589.302 236.912C589.325 237.693 589.042 238.451 588.515 239.027C587.987 239.603 587.256 239.95 586.476 239.995L586.3 240H505.8C505.019 240.001 504.269 239.697 503.708 239.153C503.148 238.609 502.821 237.869 502.798 237.088C502.775 236.307 503.058 235.549 503.585 234.973C504.113 234.397 504.844 234.05 505.624 234.005L505.8 234H586.3Z" fill="#2F2E2E"/>
<path d="M534.9 245.4C535.681 245.399 536.431 245.703 536.992 246.247C537.552 246.791 537.879 247.531 537.902 248.312C537.925 249.093 537.642 249.851 537.115 250.427C536.587 251.003 535.856 251.35 535.076 251.395L534.9 251.4H505.8C505.019 251.401 504.269 251.097 503.708 250.553C503.148 250.009 502.821 249.269 502.798 248.488C502.775 247.707 503.058 246.949 503.585 246.373C504.113 245.797 504.844 245.45 505.624 245.405L505.8 245.4H534.9Z" fill="#2F2E2E"/>
<path d="M1116.01 580.006C1116.8 579.965 1117.58 580.237 1118.17 580.763C1118.75 581.289 1119.11 582.026 1119.16 582.815C1119.21 583.604 1118.95 584.38 1118.43 584.975C1117.91 585.57 1117.18 585.936 1116.39 585.994C1109.96 586.402 1103.56 587.138 1097.21 588.2L1088.75 589.686L1085.08 590.347C1084.15 590.517 1083.26 590.682 1082.39 590.847L1081.1 591.091C1071.77 592.866 1065.07 594.433 1061.17 595.871C1060.44 596.127 1059.73 596.438 1059.05 596.8C1058.93 596.868 1058.83 596.931 1058.74 596.986L1058.63 597.07C1058.04 598.016 1058.22 598.514 1059.55 599.324L1059.72 599.424C1061.87 600.687 1065.56 601.432 1069.39 601.299C1069.79 601.285 1070.18 601.35 1070.55 601.488C1070.92 601.626 1071.26 601.836 1071.55 602.104C1071.83 602.373 1072.07 602.697 1072.23 603.055C1072.39 603.414 1072.48 603.802 1072.5 604.195C1072.51 604.589 1072.45 604.982 1072.31 605.351C1072.17 605.721 1071.96 606.059 1071.69 606.347C1071.42 606.635 1071.1 606.868 1070.74 607.031C1070.38 607.194 1070 607.285 1069.6 607.299C1064.71 607.468 1059.91 606.499 1056.68 604.599C1052.4 602.08 1050.92 597.848 1053.69 593.653C1054.63 592.221 1056.37 591.247 1059.09 590.24L1059.71 590.018C1065.92 588.08 1072.24 586.553 1078.65 585.449L1081.28 584.948C1082.82 584.659 1084.42 584.365 1086.16 584.048L1094.68 582.545C1101.74 581.307 1108.86 580.46 1116.01 580.006Z" fill="black"/>
<path d="M1098.52 637.487C1094.33 637.487 1091.05 636.846 1088.76 635.581C1087.69 635.063 1086.79 634.261 1086.14 633.261C1085.5 632.262 1085.14 631.105 1085.1 629.916V629.676C1085.1 629.246 1085.13 628.816 1085.21 628.393L1085.24 628.218L1084.96 628.206C1082.23 628.069 1079.56 627.351 1077.13 626.1C1075.12 625.202 1073.49 623.625 1072.52 621.646L1072.45 621.452C1072.13 620.35 1072.23 619.167 1072.74 618.136L1072.77 618.062L1072.57 618.088C1071.35 618.245 1070.12 618.328 1068.89 618.338C1067.93 618.348 1066.97 618.268 1066.03 618.1L1065.78 618.045C1064.82 617.906 1063.91 617.546 1063.12 616.993C1062.33 616.44 1061.67 615.71 1061.21 614.86C1060.31 612.984 1060.56 610.47 1061.9 607.781C1063.3 604.916 1069.72 600.428 1082.1 593.656L1083.96 592.646C1092.46 588.069 1100.78 584.118 1104.17 583.038L1104.76 582.862C1107.53 582.09 1116.43 580.545 1131.98 578.139L1135.3 577.628C1139.5 576.985 1144 576.305 1148.7 575.607L1160.65 573.846L1166.28 573.031C1166.99 572.928 1167.71 573.083 1168.32 573.467C1168.92 573.851 1169.37 574.439 1169.58 575.125L1169.62 575.296L1183.72 633.696C1183.83 634.123 1183.84 634.567 1183.75 634.998C1183.66 635.428 1183.48 635.834 1183.22 636.187C1182.96 636.54 1182.62 636.831 1182.24 637.04C1181.85 637.249 1181.42 637.37 1180.98 637.396L1180.81 637.401H1101.31L1100.97 637.421C1100.12 637.464 1099.3 637.487 1098.52 637.487ZM1119.59 609.754C1119.92 609.753 1120.25 609.786 1120.58 609.854L1120.66 609.873C1121.31 610.021 1121.9 610.38 1122.32 610.895C1122.74 611.41 1122.98 612.051 1123 612.717C1123.02 613.382 1122.81 614.035 1122.42 614.572C1122.02 615.109 1121.46 615.5 1120.82 615.683L1119.95 615.937L1118.35 616.418C1117.55 616.661 1116.83 616.887 1116.12 617.109L1115.53 617.296C1114.6 617.59 1113.71 617.879 1112.87 618.155L1111.85 618.5L1108.59 619.824L1101.71 622.654C1099.63 623.5 1098.29 624.026 1096.94 624.53L1096.4 624.73C1093.45 625.777 1091.09 628.265 1091.1 629.63C1091.1 629.918 1091.3 630.193 1092.24 630.601C1094.21 631.288 1096.3 631.594 1098.39 631.501C1099.07 631.501 1099.8 631.481 1100.56 631.441L1101.01 631.415L1101.2 631.409H1176.99L1164.42 579.36L1157.47 580.375L1149.58 581.541C1146.01 582.074 1142.85 582.547 1139.94 582.989L1130.6 584.426C1117.14 586.526 1108.78 587.979 1106.42 588.626L1106.22 588.683C1102.28 589.813 1092.51 594.747 1084.58 599.138C1077.13 603.261 1068.13 608.696 1067.28 610.438C1067.04 610.888 1066.85 611.362 1066.72 611.852L1066.68 612.006V612.082L1066.83 612.129L1067.05 612.181C1067.65 612.297 1068.26 612.35 1068.88 612.34C1072.21 612.185 1075.52 611.68 1078.75 610.832L1079.92 610.553L1079.97 610.513C1082.82 608.496 1085.82 606.697 1088.94 605.13L1089.35 604.922C1091.12 604.03 1093.09 603.099 1095.2 602.155C1098.86 600.519 1102.93 598.848 1107.31 597.186L1108.52 596.73C1109.09 596.517 1109.66 596.304 1110.23 596.096L1111.6 595.596L1112.82 595.163C1113.56 594.903 1114.37 594.943 1115.08 595.273C1115.79 595.603 1116.34 596.197 1116.62 596.929C1116.9 597.661 1116.88 598.472 1116.57 599.19C1116.26 599.908 1115.68 600.475 1114.95 600.771L1113.33 601.352L1112.29 601.728C1111.34 602.077 1110.38 602.435 1109.44 602.793C1105.17 604.415 1101.2 606.042 1097.65 607.631C1095.62 608.539 1093.73 609.431 1092.06 610.277C1088.08 612.218 1084.34 614.621 1080.92 617.438C1080.12 618.116 1079.38 618.866 1078.71 619.68L1078.59 619.838L1078.77 619.983C1079.62 620.597 1080.54 621.095 1081.51 621.463C1082.85 621.993 1084.28 622.273 1085.71 622.288C1086.7 622.294 1087.67 622.135 1088.6 621.817L1088.68 621.792L1088.93 621.638C1092.81 619.433 1096.87 617.548 1101.06 616L1101.71 615.748C1103.75 614.965 1105.97 614.164 1108.28 613.368L1109.71 612.886L1111.1 612.33C1115.95 610.4 1118.09 609.754 1119.59 609.754Z" fill="black"/>
<path d="M1407.6 418.2C1408.05 405.386 1404.84 392.709 1398.34 381.656C1391.84 370.604 1382.32 361.634 1370.9 355.8L1333.2 335.5L1329.1 354.1C1326.95 363.805 1321.03 372.258 1312.65 377.603C1304.27 382.947 1294.11 384.744 1284.4 382.6L1279.5 381.5C1269.79 379.348 1261.34 373.431 1256 365.049C1250.65 356.667 1248.86 346.507 1251 336.8L1257.3 308.5C1250.1 303.5 1244.4 296.7 1241.7 287.9C1241.5 287.3 1241.4 286.7 1241.2 286.2L1203.6 266L1203.5 557.7L1305.5 536.8L1300.6 468.3C1300.56 467.511 1300.83 466.738 1301.35 466.148C1301.88 465.558 1302.61 465.197 1303.4 465.145C1304.19 465.092 1304.97 465.352 1305.57 465.867C1306.16 466.383 1306.54 467.113 1306.6 467.9L1311.7 539C1311.75 539.733 1311.54 540.462 1311.1 541.05C1310.66 541.638 1310.02 542.047 1309.3 542.2L1203.5 563.9V564.7L1145.6 575.3C1157 577.5 1169.6 634 1169.6 634H1375C1379.76 633.995 1384.48 633.043 1388.87 631.2C1393.26 629.357 1397.25 626.658 1400.59 623.262C1403.93 619.866 1406.56 615.839 1408.33 611.416C1410.1 606.994 1410.97 602.263 1410.9 597.5L1407.6 418.2Z" fill="#F28500"/>
<path d="M1338.86 292.484C1339.03 291.73 1339.49 291.07 1340.13 290.643C1340.78 290.215 1341.56 290.053 1342.32 290.19C1343.08 290.326 1343.76 290.751 1344.22 291.376C1344.67 292.001 1344.87 292.777 1344.76 293.543L1344.73 293.717L1331.93 354.752C1329.63 365.121 1323.35 374.172 1314.44 379.955C1305.53 385.737 1294.71 387.789 1284.3 385.667L1283.64 385.527L1278.74 384.427C1268.38 382.127 1259.33 375.846 1253.54 366.938C1247.76 358.029 1245.71 347.206 1247.83 336.799L1247.97 336.145L1254.27 307.845C1254.44 307.082 1254.9 306.416 1255.55 305.987C1256.21 305.558 1257 305.4 1257.77 305.548C1258.53 305.695 1259.21 306.135 1259.66 306.776C1260.11 307.416 1260.29 308.205 1260.16 308.976L1260.13 309.149L1253.83 337.449C1251.88 346.283 1253.47 355.531 1258.28 363.199C1263.08 370.868 1270.7 376.342 1279.5 378.444L1280.05 378.573L1284.95 379.673C1293.78 381.624 1303.02 380.032 1310.69 375.237C1318.35 370.443 1323.83 362.831 1325.94 354.039L1326.06 353.484L1338.86 292.484Z" fill="black"/>
<path d="M1292.33 322.021C1283.48 321.995 1274.72 320.28 1266.51 316.968C1259.94 314.38 1253.95 310.51 1248.88 305.583C1244.13 300.915 1240.61 295.143 1238.63 288.783C1236.68 281.994 1235.71 274.958 1235.78 267.893C1235.82 257.601 1236.95 247.343 1239.15 237.287C1239.84 233.966 1240.62 230.675 1241.46 227.504C1241.56 227.138 1241.65 226.814 1241.73 226.514L1241.99 225.595L1242.23 224.742L1242.5 223.827V223.818L1242.52 223.755C1245.98 211.953 1250.07 200.346 1254.78 188.987C1259.3 178.022 1264.53 167.368 1270.46 157.098L1271.12 155.973L1271.4 155.507C1274.97 149.364 1280.13 144.291 1286.33 140.815C1292.37 137.643 1299.12 136.045 1305.94 136.168C1307.94 136.172 1309.93 136.28 1311.91 136.492C1318.24 137.22 1324.44 138.742 1330.38 141.023C1333.56 142.205 1336.67 143.572 1339.68 145.117L1340.7 145.652C1347.2 149.044 1353.27 153.192 1358.79 158.01C1363.64 162.264 1367.86 167.179 1371.34 172.61C1374.59 177.74 1377.06 183.319 1378.69 189.168C1380.31 195.103 1381.14 201.226 1381.16 207.379C1381.18 216.183 1379.86 224.938 1377.25 233.348C1376.39 236.186 1375.42 238.933 1374.35 241.515C1373.61 243.321 1373.05 244.506 1372.71 245.183L1372.55 245.499L1369.81 250.669C1369.43 251.379 1369.03 252.11 1368.63 252.863L1366.82 256.21C1363.38 262.567 1360.07 268.537 1356.99 273.953C1356.56 274.718 1356.2 275.341 1355.87 275.912L1354.43 278.422C1347.89 289.71 1343.24 296.946 1340.19 300.544L1339.86 300.928C1335.27 306.313 1331.1 310.537 1325.67 313.648C1320.86 316.405 1314.94 318.411 1305.24 320.57L1304.03 320.835C1300.19 321.645 1296.26 322.043 1292.33 322.021ZM1248.19 225.418C1247.65 227.503 1246.21 233.042 1245.25 237.441L1245.08 238.224L1244.78 239.666C1242.83 248.934 1241.82 258.378 1241.78 267.851C1241.71 274.331 1242.58 280.786 1244.36 287.016C1247.69 297.809 1256.14 306.245 1268.78 311.411C1276.27 314.426 1284.26 315.991 1292.33 316.022C1295.84 316.043 1299.33 315.689 1302.76 314.968C1320.49 311.113 1325.62 308.319 1334.99 297.382L1335.77 296.471C1338.61 293.048 1343.26 285.763 1349.58 274.817L1350.67 272.924L1351.78 270.983C1355.1 265.135 1358.72 258.594 1362.52 251.54L1362.94 250.772C1363.76 249.238 1364.54 247.784 1365.25 246.452L1367.11 242.952L1367.41 242.352C1367.48 242.218 1367.55 242.052 1367.64 241.868L1367.98 241.125C1368.16 240.725 1368.32 240.371 1368.46 240.025L1368.8 239.225C1369.79 236.819 1370.7 234.255 1371.5 231.602C1373.93 223.772 1375.16 215.619 1375.15 207.421C1374.96 182.98 1362.42 163.979 1337.88 150.944C1334.77 149.301 1331.56 147.865 1328.27 146.644C1322.81 144.541 1317.1 143.135 1311.28 142.459C1309.51 142.269 1307.72 142.171 1305.93 142.168C1292.89 142.168 1282.92 147.841 1276.28 159.031L1275.63 160.131C1265.01 178.336 1255.3 201.533 1248.28 225.445L1248.19 225.418Z" fill="black"/>
<path d="M1245.4 224.5C1251.3 204.5 1260.7 179.2 1273.7 157.4C1274.27 156.396 1274.91 155.428 1275.6 154.5C1265.1 146.3 1248 163.2 1236.2 198.1C1230.1 216.1 1213.5 225.2 1213.5 225.2C1226.2 236.3 1237.7 231.5 1245.2 225.2C1245.3 224.8 1245.3 224.5 1245.4 224.5Z" fill="black"/>
<path d="M1272.21 211.89C1272.5 211.164 1273.06 210.578 1273.77 210.259C1274.49 209.939 1275.3 209.909 1276.03 210.177C1276.76 210.444 1277.36 210.988 1277.7 211.691C1278.04 212.395 1278.09 213.203 1277.85 213.944L1277.79 214.11L1265.42 245.151L1273.64 248.186C1274.36 248.451 1274.95 248.981 1275.29 249.666C1275.63 250.351 1275.69 251.141 1275.47 251.873L1275.41 252.04C1275.15 252.758 1274.62 253.347 1273.93 253.688C1273.25 254.028 1272.46 254.094 1271.73 253.871L1271.56 253.815L1260.46 249.715C1259.73 249.446 1259.13 248.903 1258.8 248.202C1258.46 247.501 1258.41 246.697 1258.65 245.958L1258.71 245.789L1272.21 211.89Z" fill="black"/>
<path d="M1265.94 210.646C1267.14 207.855 1266.67 204.975 1264.9 204.213C1263.12 203.451 1260.71 205.097 1259.51 207.888C1258.32 210.68 1258.78 213.56 1260.56 214.322C1262.34 215.084 1264.75 213.438 1265.94 210.646Z" fill="black"/>
<path d="M1296.8 223.954C1297.46 220.988 1296.46 218.245 1294.57 217.829C1292.68 217.412 1290.62 219.479 1289.97 222.445C1289.31 225.411 1290.31 228.154 1292.2 228.57C1294.09 228.987 1296.15 226.92 1296.8 223.954Z" fill="black"/>
<path d="M1305.26 201.511C1305.41 200.731 1305.87 200.045 1306.54 199.603C1307.2 199.162 1308.01 199.002 1308.79 199.158C1313.01 199.942 1316.83 202.144 1319.62 205.399C1320.81 206.783 1321.8 208.327 1322.56 209.986C1322.9 210.716 1323.19 211.474 1323.4 212.251C1323.6 213.007 1323.49 213.809 1323.11 214.487C1322.72 215.166 1322.09 215.667 1321.34 215.884C1320.59 216.102 1319.78 216.019 1319.09 215.652C1318.4 215.286 1317.88 214.665 1317.64 213.922L1317.55 213.608C1317.43 213.226 1317.28 212.852 1317.1 212.487C1316.58 211.337 1315.89 210.266 1315.07 209.306C1313.15 207.069 1310.51 205.562 1307.61 205.041C1306.83 204.885 1306.14 204.425 1305.7 203.763C1305.26 203.101 1305.1 202.291 1305.26 201.511Z" fill="black"/>
<path d="M1265.83 179.763C1269.42 179.501 1273.04 180.714 1276.57 182.847C1278.05 183.727 1279.44 184.746 1280.73 185.89C1281.3 186.431 1281.64 187.177 1281.67 187.966C1281.7 188.755 1281.42 189.523 1280.88 190.105C1280.35 190.686 1279.61 191.034 1278.82 191.072C1278.03 191.11 1277.26 190.836 1276.67 190.309L1276.55 190.198C1276.39 190.065 1276.15 189.867 1275.85 189.622C1275.09 189.028 1274.29 188.48 1273.47 187.981C1271.35 186.531 1268.84 185.753 1266.27 185.747C1265.28 185.81 1264.33 186.127 1263.5 186.666L1263.25 186.839C1262.6 187.292 1261.8 187.472 1261.02 187.339C1260.24 187.205 1259.55 186.77 1259.09 186.128C1258.63 185.486 1258.44 184.688 1258.56 183.907C1258.69 183.127 1259.12 182.428 1259.75 181.961C1261.54 180.675 1263.64 179.914 1265.83 179.763Z" fill="black"/>
<path d="M1435.77 227.729L1435.78 227.735L1435.79 227.741C1436.93 228.304 1437.95 229.089 1438.79 230.058C1439.62 231.018 1440.26 232.137 1440.67 233.354C1441.06 234.559 1441.21 235.836 1441.12 237.113C1441.01 238.39 1440.66 239.625 1440.08 240.75L1440.07 240.763C1438.89 243.074 1436.85 244.821 1434.38 245.627L1434.38 245.628C1431.92 246.434 1429.24 246.233 1426.92 245.066L1259.49 160.608C1259.61 160.333 1259.74 160.033 1259.88 159.71C1260.74 157.815 1262.05 155.129 1263.84 152.006C1267.44 145.748 1272.97 137.798 1280.71 130.918C1288.44 124.05 1298.33 118.276 1310.7 116.258C1323.07 114.242 1338.12 115.942 1356.25 124.367C1379.35 135.111 1391.37 149.892 1397.17 164.901C1403 179.988 1402.64 195.544 1400.54 207.879L1400.23 209.696L1401.87 210.529L1435.77 227.729Z" fill="#F28500" stroke="black" stroke-width="5"/>
<path d="M1291.88 266.145C1292.17 266.405 1292.42 266.721 1292.59 267.074C1292.76 267.427 1292.87 267.812 1292.89 268.205C1292.92 268.598 1292.87 268.992 1292.74 269.365C1292.61 269.738 1292.41 270.083 1292.15 270.379C1291.81 270.755 1291.45 271.109 1291.06 271.439C1290.18 272.2 1289.24 272.879 1288.24 273.469C1281.88 277.243 1273.84 277.723 1264.62 272.969C1263.92 272.604 1263.38 271.973 1263.14 271.214C1262.9 270.456 1262.97 269.632 1263.33 268.925C1263.7 268.218 1264.33 267.684 1265.09 267.442C1265.84 267.2 1266.67 267.269 1267.38 267.634C1274.69 271.41 1280.54 271.06 1285.18 268.308C1285.86 267.903 1286.51 267.438 1287.12 266.916L1287.36 266.694L1287.64 266.42C1287.9 266.124 1288.22 265.881 1288.57 265.707C1288.93 265.533 1289.31 265.43 1289.7 265.405C1290.1 265.379 1290.49 265.431 1290.86 265.558C1291.24 265.685 1291.58 265.885 1291.88 266.145Z" fill="black"/>
<path d="M1399.1 233.8L1327.6 197.7C1319.3 223.6 1308.9 275.5 1353.2 289.2C1353.2 289.2 1387.8 300.7 1397.8 289.3C1397.8 289.3 1374 271.9 1379.4 257.6C1379.4 257.6 1403.7 293.6 1432.3 274.5C1432.2 274.5 1398.5 263.7 1399.1 233.8Z" fill="black"/>
<path d="M1582.6 631.3C1583.38 631.299 1584.13 631.603 1584.69 632.147C1585.25 632.691 1585.58 633.431 1585.6 634.212C1585.62 634.993 1585.34 635.751 1584.81 636.327C1584.29 636.903 1583.56 637.25 1582.78 637.295L1582.6 637.3H2.99996C2.21906 637.301 1.46863 636.997 0.908146 636.453C0.347657 635.909 0.0212795 635.169 -0.00163632 634.388C-0.0245521 633.607 0.2578 632.849 0.785424 632.273C1.31305 631.697 2.04436 631.35 2.82396 631.305L2.99996 631.3H1582.6Z" fill="black"/>
</g>
<defs>
<clipPath id="clip0">
<rect width="1586" height="639" fill="white"/>
</clipPath>
</defs>
</svg>
