<svg width="96" height="104" viewBox="0 0 96 104" fill="none" xmlns="http://www.w3.org/2000/svg">
<path fill-rule="evenodd" clip-rule="evenodd" d="M43.2388 0H53.2297C69.7834 0 83.2028 13.4312 83.2028 30V40C83.2028 56.5683 69.7834 69.9999 53.2297 69.9999H43.2388C26.6851 69.9999 13.2656 56.5683 13.2656 40V30C13.2656 13.4312 26.6851 0 43.2388 0Z" fill="#F39119"/>
<path d="M48.132 24.9117H43.0762C42.6452 26.6155 41.3289 27.9596 39.6604 28.3996V31.864C39.6604 35.7797 42.0351 39.2555 45.6041 40.6191C49.1731 39.2554 51.5478 35.7796 51.5478 31.864V28.3996C49.8793 27.9596 48.563 26.6155 48.132 24.9117V24.9117ZM45.1726 36.4178L42.0189 32.8622L43.781 31.2326L45.1951 32.8268L47.4375 30.3628L49.1792 32.0154L45.1726 36.4178Z" fill="white"/>
<path d="M66.6027 37.9969L62.3625 30.7024C62.1686 16.2145 44.1363 8.39596 33.9988 18.7022C26.7163 25.5972 27.7111 38.8627 34.9056 45.4236V55.2571H55.1141V49.1881H59.7644C61.1331 49.1881 62.2465 48.0515 62.2465 46.6545V41.9052H64.5175C65.4342 41.9052 66.2726 41.3925 66.7053 40.5673C67.1326 39.7528 67.0925 38.7713 66.6027 37.9969ZM53.9254 31.864C53.9254 36.9411 50.756 41.431 46.0389 43.0367L45.6041 43.1844L45.1698 43.0368C40.4523 41.431 37.283 36.9411 37.283 31.864V26.1255H38.4717C39.7827 26.1255 40.8492 25.0365 40.8492 23.6979V22.4841H50.3591V23.6979C50.3591 25.0365 51.4256 26.1255 52.7365 26.1255H53.9253V31.864H53.9254Z" fill="white"/>
</svg>
