<svg width="96" height="104" viewBox="0 0 96 104" fill="none" xmlns="http://www.w3.org/2000/svg">
<path fill-rule="evenodd" clip-rule="evenodd" d="M43.2388 0H53.2297C69.7834 0 83.2028 13.4312 83.2028 30V40C83.2028 56.5683 69.7834 69.9999 53.2297 69.9999H43.2388C26.6851 69.9999 13.2656 56.5683 13.2656 40V30C13.2656 13.4312 26.6851 0 43.2388 0Z" fill="#F39119"/>
<path d="M46.7109 33.2187V36.7813L50.2735 35L46.7109 33.2187Z" fill="white"/>
<path d="M48 23.3984C41.6026 23.3984 36.3984 28.6026 36.3984 35C36.3984 41.3974 41.6026 46.6016 48 46.6016C54.3974 46.6016 59.6016 41.3974 59.6016 35C59.6016 28.6026 54.3974 23.3984 48 23.3984ZM44.1328 40.9531V29.0469L56.039 35L44.1328 40.9531Z" fill="white"/>
<path d="M66.8274 30.6431C66.3453 28.5509 65.5294 26.5808 64.394 24.7668L66.0293 22.0389L60.9611 16.9707L58.2332 18.606C56.4192 17.4705 54.4491 16.6547 52.3569 16.1726L51.5852 13H44.4148L43.6431 16.1726C41.5509 16.6547 39.5808 17.4706 37.7668 18.606L35.0389 16.9707L29.9707 22.0389L31.606 24.7668C30.4705 26.5808 29.6547 28.5509 29.1726 30.6431L26 31.4148V38.5852L29.1726 39.3569C29.6547 41.4491 30.4706 43.4192 31.606 45.2332L29.9707 47.9611L35.0389 53.0293L37.7668 51.394C39.5808 52.5295 41.5509 53.3453 43.6431 53.8274L44.4148 57H51.5852L52.3569 53.8274C54.4491 53.3453 56.4192 52.5294 58.2332 51.394L60.9611 53.0293L66.0293 47.9611L64.394 45.2332C65.5295 43.4192 66.3453 41.4491 66.8274 39.3569L70 38.5852V31.4148L66.8274 30.6431ZM48 49.1797C40.1813 49.1797 33.8203 42.8187 33.8203 35C33.8203 27.1813 40.1813 20.8203 48 20.8203C55.8187 20.8203 62.1797 27.1813 62.1797 35C62.1797 42.8187 55.8187 49.1797 48 49.1797Z" fill="white"/>
</svg>
