<svg width="96" height="104" viewBox="0 0 96 104" fill="none" xmlns="http://www.w3.org/2000/svg">
<path fill-rule="evenodd" clip-rule="evenodd" d="M43.2388 0H53.2297C69.7834 0 83.2028 13.4312 83.2028 30V40C83.2028 56.5683 69.7834 69.9999 53.2297 69.9999H43.2388C26.6851 69.9999 13.2656 56.5683 13.2656 40V30C13.2656 13.4312 26.6851 0 43.2388 0Z" fill="#F39119"/>
<path d="M46.2134 25.5405V28.2901L48.9771 26.9153L46.2134 25.5405Z" fill="white"/>
<path d="M60.28 45.8184C61.9369 45.8184 63.28 44.4821 63.28 42.8337C63.28 41.1853 61.9369 39.849 60.28 39.849C58.6232 39.849 57.28 41.1853 57.28 42.8337C57.28 44.4821 58.6232 45.8184 60.28 45.8184Z" fill="white"/>
<path d="M60.28 45.8184C57.5232 45.8184 55.28 48.05 55.28 50.7929V51.7878H65.28V50.7929C65.28 48.05 63.0369 45.8184 60.28 45.8184Z" fill="white"/>
<path d="M36.1467 45.8184C37.8036 45.8184 39.1467 44.4821 39.1467 42.8337C39.1467 41.1853 37.8036 39.849 36.1467 39.849C34.4899 39.849 33.1467 41.1853 33.1467 42.8337C33.1467 44.4821 34.4899 45.8184 36.1467 45.8184Z" fill="white"/>
<path d="M36.1467 45.8184C33.3899 45.8184 31.1467 48.05 31.1467 50.7929V51.7878H41.1467V50.7929C41.1467 48.05 38.9036 45.8184 36.1467 45.8184Z" fill="white"/>
<path d="M48.2134 45.8184C49.8702 45.8184 51.2134 44.4821 51.2134 42.8337C51.2134 41.1853 49.8702 39.849 48.2134 39.849C46.5565 39.849 45.2134 41.1853 45.2134 42.8337C45.2134 44.4821 46.5565 45.8184 48.2134 45.8184Z" fill="white"/>
<path d="M48.2134 45.8184C45.4565 45.8184 43.2134 48.05 43.2134 50.7929V51.7878H53.2134V50.7929C53.2134 48.05 50.9702 45.8184 48.2134 45.8184Z" fill="white"/>
<path d="M47.2134 37.9599C47.5367 37.8943 47.871 37.8592 48.2134 37.8592C48.5558 37.8592 48.8901 37.8943 49.2134 37.9599V35.8694C52.063 35.8694 59.4855 35.8694 59.2801 35.8694V37.9599C59.6033 37.8943 59.9377 37.8592 60.2801 37.8592C60.6225 37.8592 60.9568 37.8943 61.2801 37.9599V33.8796H57.2134V17.8286H39.2134V33.8796H35.1467V37.9599C35.47 37.8943 35.8043 37.8592 36.1467 37.8592C36.4891 37.8592 36.8235 37.8943 37.1467 37.9599V35.8694C37.4771 35.8694 47.5795 35.8694 47.2134 35.8694V37.9599ZM44.2134 22.3207L53.4497 26.9153L44.2134 31.5099V22.3207Z" fill="white"/>
</svg>
