<svg width="1841" height="595" viewBox="0 0 1841 595" fill="none" xmlns="http://www.w3.org/2000/svg">
<g clip-path="url(#clip0)">
<path d="M1261.25 297.84L1271.24 275.1" stroke="#FE7624" stroke-width="6" stroke-linecap="round" stroke-linejoin="round"/>
<path d="M1244.27 435.12C1249.94 395.99 1256.09 353.5 1259.63 329.12" stroke="#FE7624" stroke-width="6" stroke-linecap="round" stroke-linejoin="round"/>
<path d="M1317.77 345.57C1305.4 382.82 1280.09 458.9 1275.44 473.34C1271.44 485.73 1265.93 499.14 1255.37 504.56" stroke="#FE7624" stroke-width="6" stroke-linecap="round" stroke-linejoin="round"/>
<path d="M1331.57 200.69C1335.57 188.275 1335.8 174.952 1332.23 162.408C1328.65 149.863 1321.44 138.659 1311.5 130.213C1301.56 121.766 1289.34 116.457 1276.39 114.956C1263.43 113.455 1250.32 115.83 1238.71 121.781C1227.1 127.731 1217.52 136.99 1211.18 148.386C1204.83 159.782 1202.01 172.804 1203.06 185.804C1204.12 198.805 1209 211.201 1217.11 221.424C1225.21 231.648 1236.16 239.24 1248.57 243.24C1255.13 245.358 1261.98 246.441 1268.87 246.45C1272.87 246.45 1276.85 246.079 1280.78 245.34L1271 275.57L1301.64 285.45L1331.57 200.69ZM1260.19 207.07C1253.85 205.025 1248.45 200.783 1244.96 195.109C1241.47 189.435 1240.13 182.702 1241.16 176.122C1242.2 169.543 1245.55 163.549 1250.61 159.222C1255.68 154.895 1262.12 152.518 1268.78 152.52C1273.18 152.519 1277.52 153.558 1281.45 155.552C1285.37 157.546 1288.77 160.439 1291.36 163.995C1293.96 167.55 1295.67 171.668 1296.38 176.013C1297.08 180.359 1296.74 184.808 1295.4 189V189C1293.12 196.05 1288.14 201.907 1281.54 205.283C1274.95 208.658 1267.28 209.276 1260.23 207L1260.19 207.07Z" stroke="#FE7624" stroke-width="6" stroke-linecap="round" stroke-linejoin="round"/>
<path d="M1359.7 277.19C1368.21 282.342 1377.78 285.5 1387.69 286.428C1397.6 287.355 1407.59 286.029 1416.91 282.547C1426.23 279.066 1434.64 273.52 1441.52 266.324C1448.39 259.129 1453.55 250.471 1456.6 241V241C1459.47 232.113 1460.42 222.719 1459.38 213.439C1458.35 204.158 1455.35 195.204 1450.6 187.167C1445.84 179.13 1439.43 172.195 1431.8 166.82C1424.16 161.445 1415.47 157.753 1406.3 155.987C1397.13 154.222 1387.69 154.424 1378.61 156.58C1369.52 158.736 1361 162.797 1353.6 168.494C1346.2 174.191 1340.1 181.394 1335.69 189.627C1331.28 197.859 1328.68 206.934 1328.04 216.25L1305.35 286.65L1320.17 291.43L1359.7 277.19ZM1420.43 229.35C1418.74 234.628 1415.52 239.284 1411.17 242.73C1406.83 246.175 1401.57 248.254 1396.04 248.704C1390.52 249.154 1384.98 247.954 1380.14 245.256C1375.3 242.559 1371.37 238.485 1368.84 233.55C1366.32 228.616 1365.31 223.043 1365.96 217.538C1366.6 212.033 1368.87 206.844 1372.46 202.626C1376.06 198.409 1380.83 195.354 1386.16 193.849C1391.5 192.344 1397.16 192.455 1402.43 194.17C1409.47 196.461 1415.32 201.449 1418.7 208.043C1422.07 214.636 1422.69 222.298 1420.43 229.35V229.35Z" stroke="#FE7624" stroke-width="6" stroke-linecap="round" stroke-linejoin="round"/>
<path d="M1250.51 466.56C1272.05 426.04 1304.13 366 1317.77 340.49" stroke="#FE7624" stroke-width="6" stroke-linecap="round" stroke-linejoin="round"/>
<path d="M1256.35 327.87L1237.35 386.75" stroke="#FE7624" stroke-width="6" stroke-linecap="round" stroke-linejoin="round"/>
<path d="M1322.13 290.4L1307.84 284.59C1306.31 287.68 1299.05 294.3 1289.72 298.59" stroke="#FE7624" stroke-width="6" stroke-linecap="round" stroke-linejoin="round"/>
<path d="M1300.24 328.55C1300.13 329.344 1299.95 330.127 1299.7 330.89C1298.69 334.033 1296.62 336.73 1293.85 338.523C1291.08 340.316 1287.77 341.094 1284.49 340.726C1281.21 340.357 1278.16 338.864 1275.85 336.501C1273.54 334.138 1272.13 331.049 1271.84 327.76" stroke="#FE7624" stroke-width="6" stroke-linecap="round" stroke-linejoin="round"/>
<path d="M1321.48 299.08L1325.01 252.16L1359.7 254.72L1356.36 299.08" stroke="#FE7624" stroke-width="6" stroke-linecap="round" stroke-linejoin="round"/>
<path d="M1304.86 519.97L1319.33 327.73" stroke="#FE7624" stroke-width="6" stroke-linecap="round" stroke-linejoin="round"/>
<path d="M1353.47 328.58L1339.12 519.43" stroke="#FE7624" stroke-width="6" stroke-linecap="round" stroke-linejoin="round"/>
<path d="M1320.18 267.38L1361.53 270.49L1370.39 152.78C1372.98 118.29 1367.2 111.07 1351.97 109.92C1336.74 108.77 1331.18 121.17 1328.58 155.67L1320.18 267.38Z" fill="#FE7624"/>
<path d="M1349.72 137.9L1375.35 139.83C1380.99 140.25 1385.35 144.94 1384 162.6L1377.46 249.6" stroke="#FE7624" stroke-width="6" stroke-linecap="round" stroke-linejoin="round"/>
<path d="M1377.46 256.09C1381.06 256.09 1383.98 253.171 1383.98 249.57C1383.98 245.969 1381.06 243.05 1377.46 243.05C1373.86 243.05 1370.94 245.969 1370.94 249.57C1370.94 253.171 1373.86 256.09 1377.46 256.09Z" fill="#FE7624"/>
<path d="M1224.05 299.08L1218.05 258.37C1216.02 244.83 1211.41 231.806 1204.48 220L1173.88 167.72C1173.34 166.769 1172.53 166.003 1171.54 165.523C1170.56 165.043 1169.46 164.871 1168.38 165.03C1167.3 165.189 1166.29 165.672 1165.48 166.414C1164.68 167.156 1164.12 168.124 1163.88 169.19L1149.81 228.12C1146.63 241.443 1146.03 255.251 1148.04 268.8L1152.55 299.12" stroke="#FE7624" stroke-width="6" stroke-linecap="round" stroke-linejoin="round"/>
<path d="M1256.35 518.83C1256.38 517.391 1256.29 515.953 1256.07 514.53L1228.31 327.73" stroke="#FE7624" stroke-width="6" stroke-linecap="round" stroke-linejoin="round"/>
<path d="M1156.98 328.58L1185.25 518.83" stroke="#FE7624" stroke-width="6" stroke-linecap="round" stroke-linejoin="round"/>
<path d="M1197.73 208.43L1173.88 167.68C1173.34 166.729 1172.53 165.963 1171.54 165.483C1170.56 165.003 1169.46 164.831 1168.38 164.99C1167.3 165.149 1166.29 165.632 1165.48 166.374C1164.68 167.116 1164.12 168.084 1163.88 169.15L1153 214.93C1164.86 210.54 1185.82 204.12 1197.73 208.43Z" fill="#FE7624"/>
<path d="M1216.64 251C1216.17 248.87 1215.64 246.76 1215.04 244.67C1205.04 243.54 1192.54 244.61 1183.76 254.11C1170.82 246.54 1156.35 251.26 1146.97 256.11C1147.04 258.33 1147.18 260.56 1147.38 262.78C1155.56 258.1 1169.84 252.3 1181.57 259.78L1187.4 299.05L1193.59 299.85L1187.5 258.9C1195.21 249.92 1207.49 249.61 1216.64 251Z" fill="#FE7624"/>
<path d="M1197.73 329.37H1191.66L1219.8 518.69L1225.88 518.83L1197.73 329.37Z" fill="#FE7624"/>
<path d="M1176.06 487.75L1265.53 374.87" stroke="#E5E5E5" stroke-width="6" stroke-linecap="round" stroke-linejoin="round"/>
<path d="M1189.36 519.18L1268.26 419.2" stroke="#E5E5E5" stroke-width="6" stroke-linecap="round" stroke-linejoin="round"/>
<path d="M1225.88 518.83L1275.2 457.2" stroke="#E5E5E5" stroke-width="6" stroke-linecap="round" stroke-linejoin="round"/>
<path d="M1258.97 519.78L1272.99 502" stroke="#E5E5E5" stroke-width="6" stroke-linecap="round" stroke-linejoin="round"/>
<path d="M1165 453.68L1261 334.63" stroke="#E5E5E5" stroke-width="6" stroke-linecap="round" stroke-linejoin="round"/>
<path d="M1243.22 518.83L1149.45 405.81" stroke="#E5E5E5" stroke-width="6" stroke-linecap="round" stroke-linejoin="round"/>
<path d="M1204.13 519.18L1176.06 487.75" stroke="#E5E5E5" stroke-width="6" stroke-linecap="round" stroke-linejoin="round"/>
<path d="M1264.18 372.09L1228.27 328.58" stroke="#E5E5E5" stroke-width="6" stroke-linecap="round" stroke-linejoin="round"/>
<path d="M1267.09 414.07L1195.85 329.07" stroke="#E5E5E5" stroke-width="6" stroke-linecap="round" stroke-linejoin="round"/>
<path d="M1273.36 464.68L1160.44 328.58" stroke="#E5E5E5" stroke-width="6" stroke-linecap="round" stroke-linejoin="round"/>
<path d="M1272.78 506.32L1125.71 329.07" stroke="#E5E5E5" stroke-width="6" stroke-linecap="round" stroke-linejoin="round"/>
<path d="M1136.4 361.31L1161.9 328.99" stroke="#E5E5E5" stroke-width="6" stroke-linecap="round" stroke-linejoin="round"/>
<path d="M1144.51 390.6L1194.11 327.74" stroke="#E5E5E5" stroke-width="6" stroke-linecap="round" stroke-linejoin="round"/>
<path d="M1154.79 422.24L1229.25 328.58" stroke="#E5E5E5" stroke-width="6" stroke-linecap="round" stroke-linejoin="round"/>
<path d="M1398.61 520.64L1265.65 356.34" stroke="#E5E5E5" stroke-width="6" stroke-linecap="round" stroke-linejoin="round"/>
<path d="M1359.97 519.97L1268.56 407.01" stroke="#E5E5E5" stroke-width="6" stroke-linecap="round" stroke-linejoin="round"/>
<path d="M1322.53 519.78L1270.5 455.48" stroke="#E5E5E5" stroke-width="6" stroke-linecap="round" stroke-linejoin="round"/>
<path d="M1289.21 519.97L1273.26 500.25" stroke="#E5E5E5" stroke-width="6" stroke-linecap="round" stroke-linejoin="round"/>
<path d="M1419.35 497.42L1279.76 328.58" stroke="#E5E5E5" stroke-width="6" stroke-linecap="round" stroke-linejoin="round"/>
<path d="M1300.67 518.83L1439.48 348.34" stroke="#E5E5E5" stroke-width="6" stroke-linecap="round" stroke-linejoin="round"/>
<path d="M1339.12 519.43L1431.85 404.83" stroke="#E5E5E5" stroke-width="6" stroke-linecap="round" stroke-linejoin="round"/>
<path d="M1375.42 520.64L1422.87 462.01" stroke="#E5E5E5" stroke-width="6" stroke-linecap="round" stroke-linejoin="round"/>
<path d="M1408.9 520.64L1417.68 509.79" stroke="#E5E5E5" stroke-width="6" stroke-linecap="round" stroke-linejoin="round"/>
<path d="M1266.33 387.81L1322.13 327.74" stroke="#E5E5E5" stroke-width="6" stroke-linecap="round" stroke-linejoin="round"/>
<path d="M1265.65 354.48L1289.95 330.01" stroke="#E5E5E5" stroke-width="6" stroke-linecap="round" stroke-linejoin="round"/>
<path d="M1268.56 424.02L1349.47 327.74" stroke="#E5E5E5" stroke-width="6" stroke-linecap="round" stroke-linejoin="round"/>
<path d="M1272.43 462.93L1381.53 328.58" stroke="#E5E5E5" stroke-width="6" stroke-linecap="round" stroke-linejoin="round"/>
<path d="M1273.52 504.56L1424.04 328.99" stroke="#E5E5E5" stroke-width="6" stroke-linecap="round" stroke-linejoin="round"/>
<path d="M1431.39 386.65L1383.79 327.84" stroke="#E5E5E5" stroke-width="6" stroke-linecap="round" stroke-linejoin="round"/>
<path d="M1437.68 354.48L1417.05 328.99" stroke="#E5E5E5" stroke-width="6" stroke-linecap="round" stroke-linejoin="round"/>
<path d="M1429.16 422.86L1352.26 327.84" stroke="#E5E5E5" stroke-width="6" stroke-linecap="round" stroke-linejoin="round"/>
<path d="M1422.87 458.78L1318.07 329.28" stroke="#E5E5E5" stroke-width="6" stroke-linecap="round" stroke-linejoin="round"/>
<path d="M1442.25 327.82L1416.31 519.97" stroke="#E5E5E5" stroke-width="6" stroke-linecap="round" stroke-linejoin="round"/>
<path d="M1262.71 328.99L1274.35 518.05" stroke="#E5E5E5" stroke-width="6" stroke-linecap="round" stroke-linejoin="round"/>
<path d="M1115.89 302.21C1118.45 300.171 1121.62 299.067 1124.89 299.08H1459.24C1461.13 299.08 1463 299.452 1464.74 300.174C1466.48 300.896 1468.07 301.954 1469.4 303.289C1470.74 304.623 1471.79 306.207 1472.52 307.951C1473.24 309.694 1473.61 311.563 1473.61 313.45V313.45C1473.61 317.261 1472.1 320.916 1469.4 323.611C1466.71 326.306 1463.05 327.82 1459.24 327.82H1259.24" stroke="#E5E5E5" stroke-width="6" stroke-linecap="round" stroke-linejoin="round"/>
<path d="M1259.26 327.82H1124.86" stroke="#E5E5E5" stroke-width="6" stroke-linecap="round" stroke-linejoin="round"/>
<path d="M314 336.17C313.772 351.828 310.794 367.324 305.2 381.95" stroke="#E5E5E5" stroke-width="6" stroke-linecap="round" stroke-linejoin="round"/>
<path d="M314.91 352.05L400.35 367.82" stroke="#E5E5E5" stroke-width="6" stroke-linecap="round" stroke-linejoin="round"/>
<path d="M406.92 386.71L311.75 369.14" stroke="#E5E5E5" stroke-width="6" stroke-linecap="round" stroke-linejoin="round"/>
<path d="M404.21 377.37L313.33 360.6" stroke="#E5E5E5" stroke-width="6" stroke-linecap="round" stroke-linejoin="round"/>
<path d="M397 351.49L300 333.58C293.12 332.31 288.5 326.12 289.67 319.76C290.84 313.4 297.37 309.27 304.25 310.54L389.44 326.26" stroke="#E5E5E5" stroke-width="6" stroke-linecap="round" stroke-linejoin="round"/>
<path d="M417.94 427.76L287 403.59C280.12 402.33 275.5 396.14 276.67 389.78C277.84 383.42 284.37 379.28 291.25 380.55L410.61 402.55" stroke="#E5E5E5" stroke-width="6" stroke-linecap="round" stroke-linejoin="round"/>
<path d="M175.69 502.21C157.17 507.99 113.25 525.46 134.43 556.21" stroke="#E5E5E5" stroke-width="15" stroke-linecap="round" stroke-linejoin="round"/>
<path d="M266.14 483.32L441.41 509.29" stroke="#FE7624" stroke-width="6" stroke-linecap="round" stroke-linejoin="round"/>
<path d="M257.84 466.65L437.9 493.32" stroke="#FE7624" stroke-width="6" stroke-linecap="round" stroke-linejoin="round"/>
<path d="M265.92 499.78L446.89 526.59" stroke="#FE7624" stroke-width="6" stroke-linecap="round" stroke-linejoin="round"/>
<path d="M261.3 516.48L455.21 545.21" stroke="#FE7624" stroke-width="6" stroke-linecap="round" stroke-linejoin="round"/>
<path d="M251.17 529.52L390.07 550.11" stroke="#FE7624" stroke-width="6" stroke-linecap="round" stroke-linejoin="round"/>
<path d="M213 446C232.25 448.43 266.28 457.37 266.18 494.79C266.09 531.24 233.39 542.95 213 544.21" stroke="#FE7624" stroke-width="6" stroke-linecap="round" stroke-linejoin="round"/>
<path d="M349.95 550.14L212.96 551.47V432.45L430.82 475.03" stroke="#FE7624" stroke-width="6" stroke-linecap="round" stroke-linejoin="round"/>
<path d="M419.05 433.1L201.57 393.3C198.978 392.83 196.314 392.935 193.766 393.608C191.219 394.28 188.85 395.503 186.827 397.191C184.804 398.88 183.177 400.991 182.059 403.377C180.942 405.763 180.362 408.365 180.36 411V576.27" stroke="#FE7624" stroke-width="6" stroke-linecap="round" stroke-linejoin="round"/>
<path d="M365 80.65L1025.35 74.57C1030.13 74.5268 1034.81 76.0102 1038.69 78.8048C1042.58 81.5993 1045.47 85.5595 1046.95 90.11L1186.29 519.16L1685.12 523.07C1685.12 523.07 1683.12 589.76 1639.76 589.76H465.92L331.19 126.08C329.655 120.812 329.362 115.259 330.334 109.859C331.307 104.458 333.518 99.3565 336.794 94.9544C340.07 90.5523 344.322 86.9696 349.216 84.4877C354.11 82.0058 359.513 80.6922 365 80.65Z" stroke="#E5E5E5" stroke-width="6" stroke-linecap="round" stroke-linejoin="round"/>
<path d="M1020.66 108.4L1143.42 476.25C1143.93 477.773 1144.07 479.394 1143.82 480.981C1143.58 482.568 1142.96 484.074 1142.02 485.375C1141.08 486.676 1139.85 487.735 1138.42 488.465C1136.99 489.194 1135.41 489.573 1133.8 489.57L517.35 488.32C515.173 488.312 513.056 487.604 511.313 486.3C509.57 484.996 508.293 483.166 507.67 481.08L399.21 115.73C398.76 114.222 398.668 112.629 398.943 111.079C399.217 109.529 399.849 108.064 400.789 106.802C401.729 105.539 402.951 104.514 404.357 103.807C405.764 103.1 407.316 102.731 408.89 102.73L1011 101.49C1013.13 101.475 1015.22 102.136 1016.95 103.377C1018.69 104.618 1019.98 106.376 1020.66 108.4V108.4Z" stroke="#FE7624" stroke-width="6" stroke-linecap="round" stroke-linejoin="round"/>
<path d="M666.685 249.513C674.099 240.795 670.337 225.419 658.284 215.168C646.231 204.917 630.449 203.673 623.036 212.391C615.622 221.108 619.383 236.484 631.437 246.735C643.49 256.986 659.271 258.23 666.685 249.513Z" stroke="#FE7624" stroke-width="6" stroke-linecap="round" stroke-linejoin="round"/>
<path d="M613.29 304.55C610.11 278.65 626.66 259.15 654.11 259.15C681.56 259.15 710.72 278.6 724.42 304.44" stroke="#FE7624" stroke-width="6" stroke-linecap="round" stroke-linejoin="round"/>
<path d="M880.79 381.76C888.204 373.043 884.443 357.666 872.389 347.415C860.336 337.164 844.555 335.921 837.141 344.638C829.728 353.355 833.489 368.732 845.542 378.983C857.596 389.234 873.377 390.477 880.79 381.76Z" stroke="#FE7624" stroke-width="6" stroke-linecap="round" stroke-linejoin="round"/>
<path d="M827.44 437.12C824.09 411.06 840.66 391.41 868.22 391.41C895.78 391.41 925.46 411.27 938.97 437.54" stroke="#FE7624" stroke-width="6" stroke-linecap="round" stroke-linejoin="round"/>
<path d="M850.366 222.133C857.779 213.416 854.018 198.04 841.965 187.789C829.911 177.538 814.13 176.294 806.717 185.011C799.303 193.729 803.064 209.105 815.118 219.356C827.171 229.607 842.952 230.851 850.366 222.133Z" stroke="#FE7624" stroke-width="6" stroke-linecap="round" stroke-linejoin="round"/>
<path d="M797.05 277.81C793.52 251.59 810.12 231.81 837.79 231.81C865.61 231.81 895.28 251.81 908.71 278.28" stroke="#FE7624" stroke-width="6" stroke-linecap="round" stroke-linejoin="round"/>
<path d="M713.1 205.08L745.98 306.15H592.83L555.78 192.29H673.28" stroke="#FE7624" stroke-width="6" stroke-linecap="round" stroke-linejoin="round"/>
<path d="M909.88 217.99L929.66 278.77H776.5L739.45 164.92H892.61L903.1 197.17" stroke="#FE7624" stroke-width="6" stroke-linecap="round" stroke-linejoin="round"/>
<path d="M795.61 403.6L769.88 324.55H923.04L960.09 438.41H806.93L803.13 426.73" stroke="#FE7624" stroke-width="6" stroke-linecap="round" stroke-linejoin="round"/>
<path d="M728.96 204.04H677.1L670.51 183.78H722.37L728.96 204.04Z" stroke="#FE7624" stroke-width="6" stroke-linecap="round" stroke-linejoin="round"/>
<path d="M932.57 217.99H880.71L874.12 197.74H925.98L932.57 217.99Z" stroke="#FE7624" stroke-width="6" stroke-linecap="round" stroke-linejoin="round"/>
<path d="M813.45 424.8H761.58L754.99 404.54H806.85L813.45 424.8Z" stroke="#FE7624" stroke-width="6" stroke-linecap="round" stroke-linejoin="round"/>
<path d="M531.88 192.29L568.93 306.15" stroke="#FE7624" stroke-width="6" stroke-linecap="round" stroke-linejoin="round"/>
<path d="M758.32 284.22L765.45 306.15H862.29" stroke="#FE7624" stroke-width="6" stroke-linecap="round" stroke-linejoin="round"/>
<path d="M730.3 324.34H752.18L770.77 381.47" stroke="#FE7624" stroke-width="6" stroke-linecap="round" stroke-linejoin="round"/>
<path d="M734 148.1C735.19 149 887.49 149.1 887.16 148.1" stroke="#FE7624" stroke-width="6" stroke-linecap="round" stroke-linejoin="round"/>
<path d="M370.3 80.55C370.3 80.55 352.68 82.35 363.77 120.16C374.86 157.97 497.42 587.76 497.42 587.76" stroke="#E5E5E5" stroke-width="6" stroke-linecap="round" stroke-linejoin="round"/>
<path d="M1180.54 515.92H477.85" stroke="#E5E5E5" stroke-width="6" stroke-linecap="round" stroke-linejoin="round"/>
<path d="M1679.15 546.79H1151.4" stroke="#E5E5E5" stroke-width="6" stroke-linecap="round" stroke-linejoin="round"/>
<path d="M1155.2 515.92C1155.2 515.92 1151.85 595.27 1109.84 591" stroke="#E5E5E5" stroke-width="6" stroke-linecap="round" stroke-linejoin="round"/>
<path d="M643.47 531.81H602.78C598.802 531.81 594.986 533.39 592.173 536.203C589.36 539.016 587.78 542.832 587.78 546.81V561.27C587.78 565.248 589.36 569.064 592.173 571.877C594.986 574.69 598.802 576.27 602.78 576.27H643.47C647.448 576.27 651.264 574.69 654.077 571.877C656.89 569.064 658.47 565.248 658.47 561.27V546.81C658.47 542.832 656.89 539.016 654.077 536.203C651.264 533.39 647.448 531.81 643.47 531.81ZM652.47 561.27C652.47 563.657 651.522 565.946 649.834 567.634C648.146 569.322 645.857 570.27 643.47 570.27H602.78C600.393 570.27 598.104 569.322 596.416 567.634C594.728 565.946 593.78 563.657 593.78 561.27V546.81C593.78 546.67 593.78 546.54 593.78 546.4H652.43C652.43 546.54 652.43 546.67 652.43 546.81L652.47 561.27Z" fill="#FE7624"/>
<path d="M734 531.81H693.3C689.322 531.81 685.507 533.39 682.693 536.203C679.88 539.016 678.3 542.832 678.3 546.81V561.27C678.3 565.248 679.88 569.064 682.693 571.877C685.507 574.69 689.322 576.27 693.3 576.27H734C737.978 576.27 741.794 574.69 744.607 571.877C747.42 569.064 749 565.248 749 561.27V546.81C749 542.832 747.42 539.016 744.607 536.203C741.794 533.39 737.978 531.81 734 531.81ZM743 561.27C743 563.657 742.052 565.946 740.364 567.634C738.676 569.322 736.387 570.27 734 570.27H693.3C690.913 570.27 688.624 569.322 686.936 567.634C685.248 565.946 684.3 563.657 684.3 561.27V546.81C684.3 546.67 684.3 546.54 684.3 546.4H743C743 546.54 743 546.67 743 546.81V561.27Z" fill="#FE7624"/>
<path d="M534.38 535.48H511.62C505.572 535.48 500.67 540.382 500.67 546.43V560.57C500.67 566.618 505.572 571.52 511.62 571.52H534.38C540.427 571.52 545.33 566.618 545.33 560.57V546.43C545.33 540.382 540.427 535.48 534.38 535.48Z" fill="#FE7624"/>
<path d="M134.43 556.24C157.94 590.42 250.43 584.79 337.82 558.71C425.21 532.63 508 554 508 554" stroke="#E5E5E5" stroke-width="15" stroke-linecap="round" stroke-linejoin="round"/>
<path d="M764.48 68.15H657.86C653.109 68.1416 648.507 69.8055 644.86 72.85L638.52 78.13L666.73 77.87C666.591 78.864 666.521 79.8664 666.52 80.87V87C666.52 87.9455 666.706 88.8818 667.068 89.7553C667.43 90.6289 667.96 91.4226 668.629 92.0912C669.297 92.7597 670.091 93.2901 670.965 93.6519C671.838 94.0138 672.774 94.2 673.72 94.2H764.45C768.45 94.2 771.7 88.52 771.7 81.52V80.85C771.73 73.82 768.49 68.15 764.48 68.15Z" fill="#E5E5E5"/>
<path d="M733.01 58.49H687.56V70.33H733.01V58.49Z" fill="#E5E5E5"/>
<path d="M767.17 0H654.7C651.517 0 648.465 1.26428 646.215 3.51472C643.964 5.76516 642.7 8.8174 642.7 12V46.49C642.7 49.6726 643.964 52.7248 646.215 54.9753C648.465 57.2257 651.517 58.49 654.7 58.49H767.17C770.353 58.49 773.405 57.2257 775.655 54.9753C777.906 52.7248 779.17 49.6726 779.17 46.49V12C779.17 8.8174 777.906 5.76516 775.655 3.51472C773.405 1.26428 770.353 0 767.17 0V0ZM676.17 52.15C676.966 52.15 677.729 52.4661 678.291 53.0287C678.854 53.5913 679.17 54.3544 679.17 55.15C679.17 55.9457 678.854 56.7087 678.291 57.2713C677.729 57.8339 676.966 58.15 676.17 58.15C673.405 58.1474 670.755 57.0473 668.801 55.0916C666.847 53.1359 665.75 50.4845 665.75 47.72V10.77C665.75 8.00725 666.846 5.35737 668.798 3.40194C670.749 1.44651 673.397 0.345298 676.16 0.34C676.956 0.34 677.719 0.656071 678.281 1.21868C678.844 1.78129 679.16 2.54435 679.16 3.34C679.16 4.13565 678.844 4.89871 678.281 5.46132C677.719 6.02393 676.956 6.34 676.16 6.34C674.987 6.34265 673.863 6.81055 673.034 7.64105C672.205 8.47155 671.74 9.59682 671.74 10.77V47.77C671.753 48.9345 672.224 50.047 673.051 50.8667C673.879 51.6864 674.995 52.1474 676.16 52.15H676.17ZM733 50.59C723.49 50.59 715.75 41.49 715.75 30.3C715.75 19.11 723.5 10 733 10C742.5 10 750.25 19.1 750.25 30.28C750.25 41.46 742.53 50.59 733 50.59Z" fill="#E5E5E5"/>
<path d="M733 16C726.8 16 721.75 22.41 721.75 30.28C721.75 38.15 726.75 44.57 733 44.57C739.25 44.57 744.25 38.16 744.25 30.28C744.25 22.4 739.22 16 733 16Z" fill="#E5E5E5"/>
<path d="M700.79 37.63C704.126 37.63 706.83 34.3482 706.83 30.3C706.83 26.2517 704.126 22.97 700.79 22.97C697.454 22.97 694.75 26.2517 694.75 30.3C694.75 34.3482 697.454 37.63 700.79 37.63Z" fill="#FE7624"/>
<path d="M3 591.01H1837.7" stroke="#E5E5E5" stroke-width="6" stroke-linecap="round" stroke-linejoin="round"/>
</g>
<defs>
<clipPath id="clip0">
<rect width="1840.7" height="594.16" fill="white"/>
</clipPath>
</defs>
</svg>
