<svg width="1599" height="759" viewBox="0 0 1599 759" fill="none" xmlns="http://www.w3.org/2000/svg">
<g clip-path="url(#clip0)">
<path d="M1528.39 497.44H73.3201V754.69H1528.39V497.44Z" fill="#FEBA91"/>
<path d="M943.73 88.21H619.5C616.9 88.2152 614.408 89.2468 612.565 91.0802C610.723 92.9136 609.678 95.4006 609.66 98V297.55C609.668 300.156 610.707 302.654 612.551 304.496C614.395 306.338 616.894 307.375 619.5 307.38H746.17L727.05 380.65H846.43L828 307.38H943.73C946.336 307.375 948.835 306.338 950.679 304.496C952.522 302.654 953.562 300.156 953.57 297.55V98C953.551 95.4006 952.507 92.9136 950.664 91.0802C948.822 89.2468 946.329 88.2152 943.73 88.21V88.21Z" fill="#FE7624"/>
<path d="M913.11 101.38H637.12C631.045 101.38 626.12 106.305 626.12 112.38V277.21C626.12 283.285 631.045 288.21 637.12 288.21H913.11C919.185 288.21 924.11 283.285 924.11 277.21V112.38C924.11 106.305 919.185 101.38 913.11 101.38Z" fill="white"/>
<path d="M785.11 355.97C793.079 355.97 799.54 349.227 799.54 340.91C799.54 332.593 793.079 325.85 785.11 325.85C777.14 325.85 770.68 332.593 770.68 340.91C770.68 349.227 777.14 355.97 785.11 355.97Z" stroke="#E5E5E5" stroke-width="6" stroke-linecap="round" stroke-linejoin="round"/>
<path d="M817 307.64L832.96 378.58" stroke="#E5E5E5" stroke-width="6" stroke-linecap="round" stroke-linejoin="round"/>
<path d="M746.48 307.21H827.27" stroke="#E5E5E5" stroke-width="6" stroke-linecap="round" stroke-linejoin="round"/>
<path d="M926.72 91.27C929.458 91.3174 932.066 92.4459 933.975 94.4094C935.885 96.3728 936.939 99.0116 936.91 101.75V296.8" stroke="#E5E5E5" stroke-width="6" stroke-linecap="round" stroke-linejoin="round"/>
<path d="M744.4 142.18H741.31C739.482 142.18 738 143.662 738 145.49V152.75C738 154.578 739.482 156.06 741.31 156.06H744.4C746.228 156.06 747.71 154.578 747.71 152.75V145.49C747.71 143.662 746.228 142.18 744.4 142.18Z" fill="#FEBA91"/>
<path d="M729.73 142.18H672.07C669.563 142.18 667.53 144.213 667.53 146.72V151.52C667.53 154.027 669.563 156.06 672.07 156.06H729.73C732.237 156.06 734.27 154.027 734.27 151.52V146.72C734.27 144.213 732.237 142.18 729.73 142.18Z" fill="#B0B0B0"/>
<path d="M735.77 206.64H672.07C669.563 206.64 667.53 208.673 667.53 211.18V215.98C667.53 218.487 669.563 220.52 672.07 220.52H735.77C738.277 220.52 740.31 218.487 740.31 215.98V211.18C740.31 208.673 738.277 206.64 735.77 206.64Z" fill="#B0B0B0"/>
<path d="M794.27 185.18H690.47C687.963 185.18 685.93 187.213 685.93 189.72V194.52C685.93 197.027 687.963 199.06 690.47 199.06H794.27C796.777 199.06 798.81 197.027 798.81 194.52V189.72C798.81 187.213 796.777 185.18 794.27 185.18Z" fill="#FEBA91"/>
<path d="M861.55 185.18H809.66C807.153 185.18 805.12 187.213 805.12 189.72V194.52C805.12 197.027 807.153 199.06 809.66 199.06H861.55C864.057 199.06 866.09 197.027 866.09 194.52V189.72C866.09 187.213 864.057 185.18 861.55 185.18Z" fill="#FEBA91"/>
<path d="M883.42 163.72H880.33C878.502 163.72 877.02 165.202 877.02 167.03V174.29C877.02 176.118 878.502 177.6 880.33 177.6H883.42C885.248 177.6 886.73 176.118 886.73 174.29V167.03C886.73 165.202 885.248 163.72 883.42 163.72Z" fill="#B0B0B0"/>
<path d="M779.71 163.68H672.07C669.563 163.68 667.53 165.713 667.53 168.22V173.02C667.53 175.527 669.563 177.56 672.07 177.56H779.71C782.217 177.56 784.25 175.527 784.25 173.02V168.22C784.25 165.713 782.217 163.68 779.71 163.68Z" fill="#B0B0B0"/>
<path d="M814.18 142.18H756.52C754.013 142.18 751.98 144.213 751.98 146.72V151.52C751.98 154.027 754.013 156.06 756.52 156.06H814.18C816.687 156.06 818.72 154.027 818.72 151.52V146.72C818.72 144.213 816.687 142.18 814.18 142.18Z" fill="#B0B0B0"/>
<path d="M867.23 163.64H794.04C791.516 163.64 789.47 165.686 789.47 168.21V173.03C789.47 175.554 791.516 177.6 794.04 177.6H867.23C869.754 177.6 871.8 175.554 871.8 173.03V168.21C871.8 165.686 869.754 163.64 867.23 163.64Z" fill="#FE7624"/>
<path d="M618.83 376.9L634.17 351.27C634.17 351.27 619.54 286.38 610.36 254.14C602.14 225.25 582.96 218.14 568.63 222.25L466.63 239.52C465.88 239.44 465.13 239.38 464.4 239.36C446.54 238.96 416.96 303.64 410.05 341.31C419.34 338.31 440.24 335.17 466.81 338.76C467.59 337.2 470.44 332.45 474.19 325.76C474.63 326.52 475.06 327.26 475.49 327.98C481.79 338.48 498.93 374.11 510.43 377.72L618.9 381.1L617.58 376.9C617.996 376.926 618.414 376.926 618.83 376.9V376.9Z" fill="#E5E5E5"/>
<path d="M512.26 189.53L509.26 191.47C509.26 191.47 491.48 201.14 485.89 183.18C481.66 169.55 494.73 165.26 501.29 163.99" fill="white"/>
<path d="M512.26 189.53L509.26 191.47C509.26 191.47 491.48 201.14 485.89 183.18C481.66 169.55 494.73 165.26 501.29 163.99" stroke="#E5E5E5" stroke-width="6" stroke-linecap="round" stroke-linejoin="round"/>
<path d="M553.61 213.82L546.8 228.94L556.93 226.72C558.03 228.72 571.16 257.03 539.36 264.3C518.49 269.06 494.36 252.12 483.43 236.69L501.07 233.49L515.46 198.82L553.61 213.82Z" fill="white" stroke="#E5E5E5" stroke-width="6" stroke-linecap="round" stroke-linejoin="round"/>
<path d="M576 155.62C578.42 163.86 585.35 202.97 560.27 212.62C535.19 222.27 511.66 202.85 502.74 178.77C493.82 154.69 499.41 131.14 515.15 124.63C530.89 118.12 558.38 96 576 155.62Z" fill="white" stroke="#E5E5E5" stroke-width="6" stroke-linecap="round" stroke-linejoin="round"/>
<path d="M550.33 187.37C554.113 188.062 558.019 187.508 561.46 185.79C561.685 185.678 561.934 185.622 562.185 185.625C562.437 185.628 562.684 185.691 562.907 185.808C563.129 185.925 563.321 186.093 563.466 186.299C563.61 186.504 563.704 186.741 563.74 186.99C564.27 190.08 564.12 195.46 557.36 197.09C550.3 198.79 548.8 192.59 548.5 189.09C548.481 188.85 548.517 188.608 548.604 188.383C548.691 188.159 548.827 187.956 549.002 187.791C549.178 187.626 549.389 187.502 549.618 187.43C549.848 187.357 550.091 187.336 550.33 187.37Z" fill="#E5E5E5"/>
<path d="M554.68 176.24L562.45 174.21L551.7 144.42" stroke="#E5E5E5" stroke-width="6" stroke-linecap="round" stroke-linejoin="round"/>
<path d="M528.81 154C528.81 154 532.7 146.6 538.71 149.33" stroke="#E5E5E5" stroke-width="6" stroke-linecap="round" stroke-linejoin="round"/>
<path d="M552.83 136.48C552.83 136.48 557.68 129.7 563.26 133.26" stroke="#E5E5E5" stroke-width="6" stroke-linecap="round" stroke-linejoin="round"/>
<path d="M545.697 167.475C547.136 167.179 547.921 165.088 547.452 162.805C546.982 160.522 545.434 158.912 543.996 159.208C542.557 159.504 541.771 161.595 542.241 163.878C542.711 166.16 544.258 167.771 545.697 167.475Z" fill="#E5E5E5"/>
<path d="M571.264 162.375C572.703 162.079 573.489 159.988 573.019 157.705C572.549 155.422 571.002 153.812 569.563 154.108C568.124 154.404 567.338 156.495 567.808 158.778C568.278 161.061 569.825 162.671 571.264 162.375Z" fill="#E5E5E5"/>
<path d="M538.86 185.339C548.057 183.778 553.802 172.432 551.691 159.995C549.581 147.559 540.415 138.742 531.219 140.302C522.022 141.863 516.277 153.21 518.387 165.646C520.498 178.082 529.664 186.899 538.86 185.339Z" stroke="#FE7624" stroke-width="4.5" stroke-linecap="round" stroke-linejoin="round"/>
<path d="M582.655 176.922C591.851 175.361 597.596 164.015 595.486 151.578C593.376 139.142 584.21 130.325 575.013 131.886C565.816 133.446 560.072 144.793 562.182 157.229C564.292 169.666 573.458 178.482 582.655 176.922Z" stroke="#FE7624" stroke-width="4.5" stroke-linecap="round" stroke-linejoin="round"/>
<path d="M561.25 151.61L550.88 153.58" stroke="#FE7624" stroke-width="4.5" stroke-linecap="round" stroke-linejoin="round"/>
<path d="M517.72 157.75L494.25 165.66" stroke="#FE7624" stroke-width="4.5" stroke-linecap="round" stroke-linejoin="round"/>
<path d="M583.31 110.7C564.17 71.49 531.36 93.8 509.39 116.12C492.3 115.83 470.59 133.12 465.96 147.03C460.39 163.74 462.33 187.76 473.96 203.15C496.33 227.75 515.45 222.48 529.16 210.65C521.21 206.45 514.29 199.65 509.07 191.57C507.07 192.57 491.14 200.03 485.9 183.18C483.65 175.93 486.29 171.32 490.24 168.41C491.8 168.89 493.86 168.65 496.54 167.41C509.68 161.41 514.47 146.48 516.21 137.08L578.61 120.88C579.648 120.61 580.613 120.113 581.436 119.426C582.259 118.738 582.919 117.876 583.369 116.902C583.818 115.928 584.046 114.867 584.036 113.794C584.026 112.722 583.778 111.665 583.31 110.7V110.7Z" fill="#E5E5E5"/>
<path d="M550.64 351C523.99 349.69 462.69 341.16 462.69 341.16L463.69 338.42C441.45 335.81 423.5 337.86 413.5 340.42C410.41 349.18 409.18 356.7 410.88 361.7C413.11 368.31 420.68 373.89 427.58 374.89C484.99 383.22 553.3 376.98 553.3 376.98L572.66 362.14C572.66 362.14 551.83 351 550.64 351Z" fill="white" stroke="#E5E5E5" stroke-width="6" stroke-linecap="round" stroke-linejoin="round"/>
<path d="M544.82 351C553.814 350.697 562.817 351.202 571.72 352.51C579.98 353.78 594.03 355.91 595.44 357.8C598.76 362.25 586.11 364.48 580.13 360.8" fill="white"/>
<path d="M544.82 351C553.814 350.697 562.817 351.202 571.72 352.51C579.98 353.78 594.03 355.91 595.44 357.8C598.76 362.25 586.11 364.48 580.13 360.8" stroke="#E5E5E5" stroke-width="6" stroke-linecap="round" stroke-linejoin="round"/>
<path d="M575 366.17C586.72 369.29 592.84 369.72 590.33 365.17C588.88 362.57 569.33 353.62 565.51 352.62C561.69 351.62 540.79 350.27 540.79 350.27" fill="white"/>
<path d="M575 366.17C586.72 369.29 592.84 369.72 590.33 365.17C588.88 362.57 569.33 353.62 565.51 352.62C561.69 351.62 540.79 350.27 540.79 350.27" stroke="#E5E5E5" stroke-width="6" stroke-linecap="round" stroke-linejoin="round"/>
<path d="M560.4 359.14C565.184 360.604 569.885 362.33 574.48 364.31C580.61 367.07 584.29 370.13 583.86 371.31C583.43 372.49 578.86 374.9 574.86 373.48C569.24 370.38 556.62 367.2 556.62 367.2C557.94 366.9 566.73 370.53 571.55 372.07C576.37 373.61 580.24 378.22 568.55 377.56L550.91 377" fill="white"/>
<path d="M560.4 359.14C565.184 360.604 569.885 362.33 574.48 364.31C580.61 367.07 584.29 370.13 583.86 371.31C583.43 372.49 578.86 374.9 574.86 373.48C569.24 370.38 556.62 367.2 556.62 367.2C557.94 366.9 566.73 370.53 571.55 372.07C576.37 373.61 580.24 378.22 568.55 377.56L550.91 377" stroke="#E5E5E5" stroke-width="6" stroke-linecap="round" stroke-linejoin="round"/>
<path d="M708.66 274.2C708.66 274.2 727.34 273.65 739.57 266.5C746.86 262.24 756.31 256.39 756.77 253.87C757.63 249.13 746.1 253.97 744.27 254.59" fill="white"/>
<path d="M708.66 274.2C708.66 274.2 727.34 273.65 739.57 266.5C746.86 262.24 756.31 256.39 756.77 253.87C757.63 249.13 746.1 253.97 744.27 254.59" stroke="#E5E5E5" stroke-width="6" stroke-linecap="round" stroke-linejoin="round"/>
<path d="M721.89 261C721.89 261 731.89 255.78 736.31 250.51C740.73 245.24 743.74 241.11 742.92 240.06C742.1 239.01 736.41 239.17 733.39 242.19C729.58 247.63 717.9 253.43 717.9 253.43C719.19 253.24 726.76 248.04 730.47 244.58C734.18 241.12 735.84 234.73 725.66 239.88C725.66 239.88 714.82 245.71 710.8 247.27C710.8 247.27 693.8 249.41 688.28 255.13C684.58 258.99 655.71 288.42 634.06 306.96C621.54 315.06 587.26 374.78 619.84 375.04C626.58 375.29 635.26 370.86 638.71 365.93L703.64 275.36C714.03 273.69 721.44 271.03 726.42 268.36C732.87 264.85 752.52 248.57 752.89 246.43C753.89 240.72 744.16 240.89 736.98 250" fill="white"/>
<path d="M721.89 261C721.89 261 731.89 255.78 736.31 250.51C740.73 245.24 743.74 241.11 742.92 240.06C742.1 239.01 736.41 239.17 733.39 242.19C729.58 247.63 717.9 253.43 717.9 253.43C719.19 253.24 726.76 248.04 730.47 244.58C734.18 241.12 735.84 234.73 725.66 239.88C725.66 239.88 714.82 245.71 710.8 247.27C710.8 247.27 693.8 249.41 688.28 255.13C684.58 258.99 655.71 288.42 634.06 306.96C621.54 315.06 587.26 374.78 619.84 375.04C626.58 375.29 635.26 370.86 638.71 365.93L703.64 275.36C714.03 273.69 721.44 271.03 726.42 268.36C732.87 264.85 752.52 248.57 752.89 246.43C753.89 240.72 744.16 240.89 736.98 250" stroke="#E5E5E5" stroke-width="6" stroke-linecap="round" stroke-linejoin="round"/>
<path d="M502.36 229.655C510.133 215.797 506.657 199.078 494.596 192.312C482.535 185.547 466.456 191.296 458.682 205.154C450.909 219.012 454.385 235.731 466.446 242.496C478.507 249.262 494.586 243.513 502.36 229.655Z" fill="#E5E5E5"/>
<path d="M529.327 243.915C531.28 232.542 524.841 221.945 514.944 220.246C505.048 218.547 495.442 226.388 493.489 237.761C491.536 249.134 497.976 259.731 507.872 261.43C517.769 263.129 527.374 255.288 529.327 243.915Z" fill="#E5E5E5"/>
<path d="M542.192 280.48C548.024 272.044 546.801 261.091 539.46 256.015C532.119 250.939 521.44 253.663 515.607 262.099C509.775 270.535 510.998 281.488 518.339 286.564C525.68 291.64 536.359 288.916 542.192 280.48Z" fill="#E5E5E5"/>
<path d="M553.208 306.03C559.703 300.582 561.125 291.582 556.383 285.929C551.641 280.276 542.532 280.11 536.036 285.558C529.541 291.006 528.12 300.006 532.862 305.659C537.604 311.312 546.713 311.478 553.208 306.03Z" fill="#E5E5E5"/>
<path d="M547.57 329.52C554.23 333.04 555.31 337.77 554.79 341.52C554.736 341.908 554.801 342.304 554.978 342.654C555.154 343.005 555.433 343.293 555.777 343.481C556.121 343.669 556.515 343.747 556.905 343.706C557.295 343.665 557.663 343.506 557.96 343.25C565.58 336.38 577.25 323.03 567.65 312.31C563.12 307.25 554.96 306.64 548.81 311.46C542.66 316.28 541.57 326.34 547.57 329.52Z" fill="#E5E5E5"/>
<path d="M493.48 241.1L504.31 224.76" stroke="#FE7624" stroke-width="8" stroke-linecap="round" stroke-linejoin="round"/>
<path d="M515.29 263.83L528.8 254.17" stroke="#FE7624" stroke-width="8" stroke-linecap="round" stroke-linejoin="round"/>
<path d="M536.04 285.4L540.66 283.1" stroke="#FE7624" stroke-width="8" stroke-linecap="round" stroke-linejoin="round"/>
<path d="M549.86 310.2L554.48 307.9" stroke="#FE7624" stroke-width="8" stroke-linecap="round" stroke-linejoin="round"/>
<path d="M527.16 644.3L506.36 711.91C506.36 711.91 542.95 720.91 539.11 751.98L449 751.52L474.78 636.11L527.16 644.3Z" fill="#FE7624"/>
<path d="M649.55 641.75L628.05 711.57C628.05 711.57 665.91 721.09 661.93 753.33L568.5 752.85L595.21 633.26L649.55 641.75Z" fill="#FE7624"/>
<path d="M621 383.5H558.25L555.95 379.86L531.5 383.5H520.5L520.17 385.19L412.29 401.27C411.51 404.01 384.56 451.34 410.16 485.12C420.4 498.64 456.9 502.12 497 501.43L459.63 689H555.37L582.06 573.13L566.14 689.68H661.88L670 422.29C670 422.29 670 380 621 383.5Z" fill="#B0B0B0"/>
<path d="M247.1 597L227.32 706.6L227.76 755.07H250.68L252 707.15C252 707.15 261.29 754.02 293.31 756.15C325.33 758.28 353 749.48 352.78 748.23C352.68 747.6 353.78 738.17 354.78 729.03C355.72 721.03 348.1 713.27 339.9 713.74C327.59 714.46 311.44 713.48 301.64 705.32C284.14 690.73 309.29 594.32 309.29 594.32L247.1 597Z" fill="#E5E5E5"/>
<path d="M364.64 601.32L366 755.07H388.91L390.27 707.15C390.27 707.15 399.57 754.02 431.59 756.15C463.61 758.28 491.27 749.48 491.06 748.23C490.95 747.6 492.06 738.17 493.06 729.03C494 721.03 486.37 713.27 478.17 713.74C465.86 714.46 449.72 713.48 439.92 705.32C422.42 690.73 424.64 584.7 424.64 584.7L364.64 601.32Z" fill="#E5E5E5"/>
<path d="M341.92 383.72L349.15 382.98C370.15 391.5 394.15 385.72 415.75 372.67C413.02 370.4 408.09 364.45 408.09 361.22C408.09 340.38 412.55 321.5 428.58 297.22L396.51 317.76C396.51 317.76 383.05 296.76 370.88 274.5C369.64 259.4 366.55 246.06 360.49 237.3C341.87 215.19 299.93 217.87 299.93 217.87L230.61 212.67L230.17 212.43C217.3 212.43 199.77 226.14 197.85 241C194.27 268.65 202.98 305.44 206.69 337.33C206.04 340.61 205.52 343.21 205.15 344.93C205.15 344.93 132.25 446.32 183.25 497.36C183.52 497.76 263.37 496.83 263.37 496.83L231.37 676.37L429.72 680C429.72 680 451.35 500.71 446.86 480.83C437.76 440.51 341.92 383.72 341.92 383.72Z" fill="#FE7624"/>
<path d="M277.85 211.78C271.46 212.57 265.06 205.03 263.48 194.78C262.593 189.856 263.195 184.78 265.21 180.2" stroke="#FE7624" stroke-width="6" stroke-linecap="round" stroke-linejoin="round"/>
<path d="M366.16 208.67C359.77 209.46 353.37 201.92 351.79 191.67C350.903 186.746 351.505 181.67 353.52 177.09" stroke="#FE7624" stroke-width="6" stroke-linecap="round" stroke-linejoin="round"/>
<path d="M271 107C283.28 95.39 285.85 42.06 244.95 11.5C203.55 -19.41 177.12 20.59 171.43 31C165.74 41.41 163.78 68.26 198.86 89.15C233.94 110.04 257 120.29 271 107Z" fill="#E5E5E5"/>
<path d="M293.41 127.75L292.63 128.4C290.333 130.25 287.418 131.155 284.478 130.932C281.537 130.709 278.792 129.375 276.8 127.2L265.25 114.61C264.269 113.582 263.51 112.363 263.02 111.029C262.529 109.695 262.318 108.275 262.4 106.856C262.481 105.437 262.854 104.05 263.494 102.782C264.134 101.513 265.028 100.389 266.12 99.48L266.89 98.83C269.189 96.982 272.106 96.0778 275.047 96.3006C277.989 96.5235 280.735 97.8567 282.73 100.03L294.27 112.62C295.252 113.648 296.012 114.866 296.503 116.199C296.994 117.533 297.206 118.953 297.125 120.372C297.044 121.79 296.673 123.178 296.034 124.447C295.395 125.716 294.502 126.84 293.41 127.75V127.75Z" fill="#FE7624"/>
<path d="M283.764 173.527C286.607 167.565 283.831 160.309 277.565 157.322C271.298 154.334 263.914 156.745 261.071 162.708C258.229 168.67 261.004 175.926 267.271 178.913C273.537 181.901 280.922 179.489 283.764 173.527Z" fill="white" stroke="#E5E5E5" stroke-width="6" stroke-linecap="round" stroke-linejoin="round"/>
<path d="M370.077 169.486C372.919 163.524 370.144 156.269 363.877 153.281C357.611 150.293 350.226 152.705 347.384 158.667C344.541 164.63 347.317 171.885 353.583 174.873C359.85 177.86 367.234 175.449 370.077 169.486Z" fill="white" stroke="#E5E5E5" stroke-width="6" stroke-linecap="round" stroke-linejoin="round"/>
<path d="M323.46 203.65L324.15 221.5L339.15 224.79C339.99 227.22 340.91 269.34 302.42 264.1C277.17 260.66 265.36 238.1 258.6 217.39L280.02 218.89L280.12 168.65L323.46 203.65Z" fill="white" stroke="#E5E5E5" stroke-width="6" stroke-linecap="round" stroke-linejoin="round"/>
<path d="M325.306 213.716C346.876 209.753 360.234 184.065 355.14 156.34C350.047 128.616 328.432 109.353 306.861 113.316C285.291 117.279 271.934 142.966 277.027 170.691C282.121 198.416 303.736 217.678 325.306 213.716Z" fill="white" stroke="#E5E5E5" stroke-width="6" stroke-linecap="round" stroke-linejoin="round"/>
<path d="M319.68 175.64L327.24 175.39C327.423 175.384 327.603 175.337 327.765 175.252C327.928 175.167 328.069 175.047 328.178 174.9C328.288 174.753 328.363 174.583 328.398 174.403C328.433 174.223 328.427 174.037 328.38 173.86L322.93 153.24" stroke="#E5E5E5" stroke-width="6" stroke-linecap="round" stroke-linejoin="round"/>
<path d="M298.68 143.2C298.68 143.2 305.38 137.2 310.97 142.2" stroke="#E5E5E5" stroke-width="6" stroke-linecap="round" stroke-linejoin="round"/>
<path d="M329.25 141.3C329.25 141.3 337.81 138.09 341.25 144.64" stroke="#E5E5E5" stroke-width="6" stroke-linecap="round" stroke-linejoin="round"/>
<path d="M313.027 160.157C313.108 157.662 311.817 155.595 310.145 155.541C308.472 155.487 307.051 157.465 306.97 159.96C306.889 162.455 308.179 164.522 309.851 164.576C311.524 164.63 312.945 162.652 313.027 160.157Z" fill="#E5E5E5"/>
<path d="M338.568 165.678C340.231 165.558 341.433 163.433 341.252 160.932C341.071 158.431 339.576 156.501 337.912 156.622C336.249 156.742 335.047 158.867 335.228 161.368C335.409 163.869 336.904 165.799 338.568 165.678Z" fill="#E5E5E5"/>
<path d="M301.74 101.47L301.65 101.59C288.73 103.47 274.3 109.4 266.27 118.03C252.04 133.33 258.58 166.2 273.08 168.43C274.279 168.617 275.488 168.737 276.7 168.79C276.57 167.96 276.46 167.13 276.36 166.29C276.023 163.303 275.893 160.295 275.97 157.29C295.73 149.91 295.69 120.29 295.66 117.82C299.85 121.16 305.34 126.88 303.92 133.14L347.63 135.9C352.04 143.53 354.819 151.991 355.79 160.75C355.79 160.87 355.79 160.98 355.79 161.1C359.88 155.25 360.08 146.1 356.65 136.47L371.4 137.4C371.4 137.4 385 87.49 301.74 101.47Z" fill="#E5E5E5"/>
<path d="M361.72 170.11C368.17 169.11 373.58 177.7 375.18 188.06C376.78 198.42 372.84 207.64 366.38 208.64H366.16" stroke="#FE7624" stroke-width="6" stroke-linecap="round" stroke-linejoin="round"/>
<path d="M272.27 174.21C278.73 173.21 285.27 180.8 286.87 191.21C288.47 201.62 284.53 210.79 278.07 211.78H277.85" stroke="#FE7624" stroke-width="6" stroke-linecap="round" stroke-linejoin="round"/>
<path d="M321.14 190.56C321.14 190.56 303.88 201.27 303 178L321.14 190.56Z" stroke="#E5E5E5" stroke-width="6" stroke-linecap="round" stroke-linejoin="round"/>
<path d="M269.73 322.6C269.73 322.6 256.15 316.39 249.17 329.19" stroke="#E5E5E5" stroke-width="6" stroke-linecap="round" stroke-linejoin="round"/>
<path d="M268.56 317.17C268.56 317.17 256.73 303.59 242.38 321.44" stroke="#E5E5E5" stroke-width="6" stroke-linecap="round" stroke-linejoin="round"/>
<path d="M352.65 301L368.36 295C368.36 295 380.66 281.43 386.09 277.36C391.52 273.29 402.2 273.79 395.01 280.08C387.82 286.37 386.79 290.16 386.79 290.16C386.79 290.16 405.71 284.65 416.11 278.16C426.74 271.53 424.43 282.91 424.43 282.91C424.43 282.91 432.43 284.01 429.36 288.13C429.36 288.13 435.51 291.65 429.36 295.18C429.36 295.18 438.08 296.1 433.09 301.31C429.46 308.73 404.28 322.79 388.83 321.65L380.19 325.45L369.3 330.82" fill="white"/>
<path d="M352.65 301L368.36 295C368.36 295 380.66 281.43 386.09 277.36C391.52 273.29 402.2 273.79 395.01 280.08C387.82 286.37 386.79 290.16 386.79 290.16C386.79 290.16 405.71 284.65 416.11 278.16C426.74 271.53 424.43 282.91 424.43 282.91C424.43 282.91 432.43 284.01 429.36 288.13C429.36 288.13 435.51 291.65 429.36 295.18C429.36 295.18 438.08 296.1 433.09 301.31C429.46 308.73 404.28 322.79 388.83 321.65L380.19 325.45L369.3 330.82" stroke="#E5E5E5" stroke-width="6" stroke-linecap="round" stroke-linejoin="round"/>
<path d="M398.81 294C398.81 294 418 289.28 424.43 283Z" fill="white"/>
<path d="M398.81 294C398.81 294 418 289.28 424.43 283" stroke="#E5E5E5" stroke-width="6" stroke-linecap="round" stroke-linejoin="round"/>
<path d="M401.32 300.6C403.4 299.68 418.72 296.86 428.43 287.49Z" fill="white"/>
<path d="M401.32 300.6C403.4 299.68 418.72 296.86 428.43 287.49" stroke="#E5E5E5" stroke-width="6" stroke-linecap="round" stroke-linejoin="round"/>
<path d="M403.79 307.43C408.14 305.58 417.69 306.12 429.43 295.74Z" fill="white"/>
<path d="M403.79 307.43C408.14 305.58 417.69 306.12 429.43 295.74" stroke="#E5E5E5" stroke-width="6" stroke-linecap="round" stroke-linejoin="round"/>
<path d="M261.5 265C268.71 293.06 270.31 323.38 270.31 323.38L351.85 301.15L369 330.79C369 330.79 349.31 340.29 308.2 361.13C271.8 379.58 225.86 394.99 208.65 346.85" stroke="#E5E5E5" stroke-width="6" stroke-linecap="round" stroke-linejoin="round"/>
<path d="M1016.64 658.5V753.14H894.26C894.26 753.14 893.88 718.42 950.26 712.02V661.4L1016.64 658.5Z" fill="#E5E5E5"/>
<path d="M915.49 658.5V753.14H793.12C793.12 753.14 792.73 718.42 849.12 712.02V661.4L915.49 658.5Z" fill="#E5E5E5"/>
<path d="M952.26 413.26L858.94 474.37C847.793 486.994 841.423 503.126 840.94 519.96L834.89 688.75H911.89C911.89 688.75 1018.36 690.69 1018.36 682.93C1018.36 676.71 1024.66 563.93 1027.16 519.31C1027.44 514.394 1029.52 509.754 1033.02 506.285C1036.51 502.817 1041.17 500.767 1046.09 500.53C1064.25 499.64 1091.31 498.37 1103.19 498C1196.42 494.75 1171.49 456.28 1160.47 428.9C1156.21 418.33 1152.09 408.26 1148.84 400.64" fill="white"/>
<path d="M952.26 413.26L858.94 474.37C847.793 486.994 841.423 503.126 840.94 519.96L834.89 688.75H911.89C911.89 688.75 1018.36 690.69 1018.36 682.93C1018.36 676.71 1024.66 563.93 1027.16 519.31C1027.44 514.394 1029.52 509.754 1033.02 506.285C1036.51 502.817 1041.17 500.767 1046.09 500.53C1064.25 499.64 1091.31 498.37 1103.19 498C1196.42 494.75 1171.49 456.28 1160.47 428.9C1156.21 418.33 1152.09 408.26 1148.84 400.64" stroke="#E5E5E5" stroke-width="6" stroke-linecap="round" stroke-linejoin="round"/>
<path d="M1047.86 406.38L940.79 450.7C927.38 458.87 927.24 483.12 926.62 500.28L920.62 688.75" stroke="#E5E5E5" stroke-width="6" stroke-linecap="round" stroke-linejoin="round"/>
<path d="M1175.19 336.76C1147.46 171.52 1102.34 194.86 1079.32 195.64L1026.89 197.74C1026.89 197.047 1026.82 196.355 1026.66 195.68C1026.23 193.77 1024.19 192.23 1021.56 191.01V190.93C1028.24 189.26 1041.08 185.54 1040.93 182.64C1040.71 178.55 1015.11 180.51 1007.25 181C1003.25 181.24 995.48 183.62 988.89 185.87C984.638 187.327 980.732 189.642 977.412 192.671C974.092 195.7 971.429 199.379 969.59 203.48C968.16 206.66 963.88 217.62 962.59 220.73L946 213.23C946 213.23 914.35 285.6 907 304.43C906.185 306.778 905.497 309.168 904.94 311.59C889.42 358 922.1 382.08 922.1 382.08L1081.42 383.7L1062.94 399.4C1060.23 402.5 1149.83 395.52 1152.94 395.91C1154.53 396.1 1146.47 383.82 1138.23 371.77C1157.5 363.84 1176.42 352.08 1175.19 336.76Z" fill="#B0B0B0"/>
<path d="M1138 305.42C1138 305.42 1123.29 298.57 1103.16 312.36C1103.16 312.36 1080.44 273.7 1082.84 253.23" stroke="#E5E5E5" stroke-width="6" stroke-linecap="round" stroke-linejoin="round"/>
<path d="M1024.24 349.1C1026.42 347.9 1103.73 312.62 1103.73 312.62" stroke="#E5E5E5" stroke-width="6" stroke-linecap="round" stroke-linejoin="round"/>
<path d="M962.14 320.7L992.78 233.63L983.32 229.42" stroke="#E5E5E5" stroke-width="6" stroke-linecap="round" stroke-linejoin="round"/>
<path d="M1076.64 203.42L1058.37 156.76L1018.29 182.3L1023.18 204.87L1021.91 252.84L1076.64 203.42Z" fill="white" stroke="#E5E5E5" stroke-width="6" stroke-linecap="round" stroke-linejoin="round"/>
<path d="M1002.36 105.59C1002.36 105.59 1036.31 127.21 1019.68 147.28C1019.68 147.28 1012.27 155.66 1006.19 153.97C1006.19 153.97 1010.69 146.85 1005.55 143.12C1005.55 143.12 1003.86 164.55 986.31 160.12C986.31 160.12 992.81 150.66 991.15 139.27C987.68 115.48 993.24 101.26 1002.36 105.59Z" fill="#E5E5E5"/>
<path d="M1072.77 139.89C1072.77 139.89 1079.61 98.08 1037.31 90.56C1033.37 89.86 1006.31 85.56 1001.25 108.02C997.84 123.02 997.1 139.26 997.42 151.89C997.42 151.97 997.65 175.77 1006.96 189.06C1016.27 202.35 1037.12 201.27 1048.19 194.83C1059.26 188.39 1061.3 185.02 1064.44 177.32C1067.58 169.62 1072.75 139.98 1072.75 139.98L1072.77 139.89Z" fill="white" stroke="#E5E5E5" stroke-width="6" stroke-linecap="round" stroke-linejoin="round"/>
<path d="M1014.89 142.74L1010.57 163.25L1018.05 162.07" stroke="#E5E5E5" stroke-width="6" stroke-linecap="round" stroke-linejoin="round"/>
<path d="M1007.55 141.323C1007.72 139.508 1006.91 137.949 1005.74 137.839C1004.57 137.73 1003.48 139.112 1003.31 140.927C1003.14 142.741 1003.95 144.301 1005.12 144.411C1006.3 144.52 1007.38 143.138 1007.55 141.323Z" fill="#E5E5E5"/>
<path d="M1025.93 146.658C1027.1 146.547 1027.91 144.985 1027.73 143.171C1027.56 141.357 1026.47 139.976 1025.3 140.088C1024.13 140.199 1023.32 141.761 1023.49 143.575C1023.67 145.389 1024.76 146.77 1025.93 146.658Z" fill="#E5E5E5"/>
<path d="M1037.69 128.67C1036.67 127.249 1035.28 126.129 1033.68 125.425C1032.08 124.721 1030.32 124.461 1028.58 124.67" stroke="#E5E5E5" stroke-width="6" stroke-linecap="round" stroke-linejoin="round"/>
<path d="M1010 123C1010 123 1002.69 119.64 999.43 124" stroke="#E5E5E5" stroke-width="6" stroke-linecap="round" stroke-linejoin="round"/>
<path d="M1039.78 108.45C1039.78 108.45 1023.37 164.45 1060.64 170.45C1060.64 170.45 1082.35 174.45 1087.36 166.8C1087.36 166.8 1071.68 158.33 1073.73 149.36C1073.73 149.36 1091.29 168.89 1106.8 155.07C1106.8 155.07 1081.11 150.6 1083.56 127.47C1085.32 110.9 1045.61 95 1039.78 108.45Z" fill="#E5E5E5"/>
<path d="M1107.91 116.84L1085.22 113.24C1082.98 97.92 1074.22 75.95 1042.89 72.08C993.89 66.08 992.11 113.72 992.11 113.72L1105.59 131.47C1107.5 131.712 1109.43 131.201 1110.97 130.046C1112.51 128.89 1113.54 127.181 1113.84 125.279C1114.14 123.378 1113.69 121.434 1112.58 119.858C1111.48 118.283 1109.8 117.201 1107.91 116.84V116.84Z" fill="#FE7624"/>
<path d="M1033.07 167.1C1033.07 167.1 1029.92 174.33 1019.7 172.65" stroke="#E5E5E5" stroke-width="6" stroke-linecap="round" stroke-linejoin="round"/>
<path d="M956.67 218.74C957.19 217.47 957.67 216.25 958.04 215.09C960.15 209.58 961.97 205.2 963.54 201.72C965.378 197.62 968.04 193.941 971.36 190.913C974.68 187.886 978.588 185.573 982.84 184.12C989.43 181.86 997.17 179.49 1001.2 179.24C1009.06 178.76 1034.66 176.8 1034.88 180.88C1035.03 183.79 1022.19 187.5 1015.5 189.18L1010.16 209.62C1010.16 209.62 1003.91 210.37 1000.83 212.05C994.53 215.49 988.31 221.18 983.77 220.68C983.77 220.68 983.45 223.93 982.47 229.56" fill="white"/>
<path d="M956.67 218.74C957.19 217.47 957.67 216.25 958.04 215.09C960.15 209.58 961.97 205.2 963.54 201.72C965.378 197.62 968.04 193.941 971.36 190.913C974.68 187.886 978.588 185.573 982.84 184.12C989.43 181.86 997.17 179.49 1001.2 179.24C1009.06 178.76 1034.66 176.8 1034.88 180.88C1035.03 183.79 1022.19 187.5 1015.5 189.18L1010.16 209.62C1010.16 209.62 1003.91 210.37 1000.83 212.05C994.53 215.49 988.31 221.18 983.77 220.68C983.77 220.68 983.45 223.93 982.47 229.56" stroke="#E5E5E5" stroke-width="6" stroke-linecap="round" stroke-linejoin="round"/>
<path d="M1000.65 185.36C1000.65 185.36 1019.19 187.71 1020.58 193.92C1021.97 200.13 1016.72 200.48 1016.72 200.48" fill="white"/>
<path d="M1000.65 185.36C1000.65 185.36 1019.19 187.71 1020.58 193.92C1021.97 200.13 1016.72 200.48 1016.72 200.48" stroke="#E5E5E5" stroke-width="6" stroke-linecap="round" stroke-linejoin="round"/>
<path d="M1000 192.8C1000 192.8 1016.33 196.29 1017.25 202.59C1018.17 208.89 1012.91 208.85 1012.91 208.85" fill="white"/>
<path d="M1000 192.8C1000 192.8 1016.33 196.29 1017.25 202.59C1018.17 208.89 1012.91 208.85 1012.91 208.85" stroke="#E5E5E5" stroke-width="6" stroke-linecap="round" stroke-linejoin="round"/>
<path d="M998.86 202C998.86 202 1018.43 206.52 1010.93 213.43C1003.43 220.34 999.66 219.58 999.66 219.58C999.66 219.58 994.3 216.17 1002.95 210.87" fill="white"/>
<path d="M998.86 202C998.86 202 1018.43 206.52 1010.93 213.43C1003.43 220.34 999.66 219.58 999.66 219.58C999.66 219.58 994.3 216.17 1002.95 210.87" stroke="#E5E5E5" stroke-width="6" stroke-linecap="round" stroke-linejoin="round"/>
<path d="M1025.48 349.37L1015.39 351.29C1014.17 351.52 993.63 364.58 993.63 364.58L1014.83 378.27C1014.83 378.27 1016.38 379.81 1048.47 377.75C1046.18 369.71 1034.23 357.49 1025.48 349.37Z" fill="white" stroke="#E5E5E5" stroke-width="6" stroke-linecap="round" stroke-linejoin="round"/>
<path d="M1021.4 350.87C1012.1 351.308 1002.85 352.58 993.78 354.67C985.36 356.67 971.05 360.05 969.78 362.12C966.78 366.98 979.96 368.23 985.78 363.95" fill="white"/>
<path d="M1021.4 350.87C1012.1 351.308 1002.85 352.58 993.78 354.67C985.36 356.67 971.05 360.05 969.78 362.12C966.78 366.98 979.96 368.23 985.78 363.95" stroke="#E5E5E5" stroke-width="6" stroke-linecap="round" stroke-linejoin="round"/>
<path d="M991.58 369C979.75 373.2 973.48 374.16 975.69 369.28C976.96 366.47 996.37 355.61 1000.24 354.28C1004.11 352.95 1025.53 349.79 1025.53 349.79" fill="white"/>
<path d="M991.58 369C979.75 373.2 973.48 374.16 975.69 369.28C976.96 366.47 996.37 355.61 1000.24 354.28C1004.11 352.95 1025.53 349.79 1025.53 349.79" stroke="#E5E5E5" stroke-width="6" stroke-linecap="round" stroke-linejoin="round"/>
<path d="M1006 360.56C1001.19 362.47 996.492 364.64 991.92 367.06C985.83 370.42 982.29 373.89 982.83 375.06C983.37 376.23 988.25 378.35 992.25 376.55C997.79 372.88 1010.53 368.55 1010.53 368.55C1009.15 368.36 1000.39 372.84 995.53 374.82C990.67 376.8 987.08 381.89 999.1 380.23L1017.28 378.17" fill="white"/>
<path d="M1006 360.56C1001.19 362.47 996.492 364.64 991.92 367.06C985.83 370.42 982.29 373.89 982.83 375.06C983.37 376.23 988.25 378.35 992.25 376.55C997.79 372.88 1010.53 368.55 1010.53 368.55C1009.15 368.36 1000.39 372.84 995.53 374.82C990.67 376.8 987.08 381.89 999.1 380.23L1017.28 378.17" stroke="#E5E5E5" stroke-width="6" stroke-linecap="round" stroke-linejoin="round"/>
<path d="M1229.8 621.89L1231.14 703.5C1231.14 703.5 1184.14 714.5 1171.73 753.61L1275.73 753.53L1292.29 602.08L1229.8 621.89Z" fill="#FE7624"/>
<path d="M1119.49 626L1107.58 705.58C1107.58 705.58 1063.4 716.22 1051.7 752.93L1149.41 752.86L1180.36 616.61L1119.49 626Z" fill="#FE7624"/>
<path d="M1454.89 455.62L1449.89 391.96L1256.28 391.64L1252.59 413.42L1222.66 412.62C1146.85 409.18 1134.74 466.36 1134.74 466.36L1072.49 709.74L1165.14 710.19L1212.29 538.33L1190.85 708.58L1285.08 709.98L1303.5 534.87C1325.71 529.81 1397.84 512.87 1416.3 502.94C1435 496 1455.77 472.34 1454.89 455.62Z" fill="#E5E5E5"/>
<path d="M1452.06 290.06C1434.68 263.289 1411.74 240.577 1384.79 223.47C1396.48 204.4 1394.41 185.02 1345.24 181.12C1265.65 178.33 1257.53 199.67 1257.4 216.3C1231.16 237.17 1215.17 259.45 1205.69 280.52C1194.27 269.97 1173.16 250.64 1167.77 247.05C1160.27 242.05 1155.51 250.86 1149.46 247.78C1143.41 244.7 1141.34 243.78 1141.34 243.78C1141.34 243.78 1136.08 262.39 1121.17 267.45C1121.17 267.45 1121.47 270.23 1124.81 276.07C1128.15 281.91 1120.94 286.07 1126.28 293.26C1131.62 300.45 1178 359.72 1178 359.72C1183.59 365.25 1196.57 384.72 1210.71 378.8V377.53L1211.28 378.26L1311.38 378.74L1308.7 395.32C1435.53 407.48 1426.58 465.18 1461.7 442.45L1458 365.69C1470 351.25 1475 325.57 1452.06 290.06Z" fill="#FE7624"/>
<path d="M1354.45 202.49L1367.12 211.02C1367.12 211.02 1319.78 239.93 1313.6 314.32C1309.49 363.74 1308.6 421.12 1308.6 421.12L1286.6 424.22C1286.6 424.22 1293.9 289.22 1285.27 264.12C1276.64 239.02 1284.53 210.77 1290.37 206.2C1296.21 201.63 1354.45 202.49 1354.45 202.49Z" fill="white"/>
<path d="M1122.19 226.86C1121.43 226.35 1098.64 211.86 1092.72 210.33C1086.8 208.8 1086.01 215.88 1104.3 226.03C1101.54 228.901 1099.72 232.544 1099.09 236.474C1098.45 240.405 1099.03 244.436 1100.74 248.03C1102.44 251.9 1117.95 267.3 1123.28 267.92C1128.61 268.54 1148.53 263.32 1144.34 250.92C1140.15 238.52 1133 234.09 1122.19 226.86Z" fill="white" stroke="#E5E5E5" stroke-width="6" stroke-linecap="round" stroke-linejoin="round"/>
<path d="M1133.5 235.18C1133.5 235.18 1113.81 227.4 1111.81 228.53C1109.03 230.12 1112.11 238.14 1120.81 242.02C1120.81 242.02 1114.75 249.89 1118.09 256.02" fill="white"/>
<path d="M1133.5 235.18C1133.5 235.18 1113.81 227.4 1111.81 228.53C1109.03 230.12 1112.11 238.14 1120.81 242.02C1120.81 242.02 1114.75 249.89 1118.09 256.02" stroke="#E5E5E5" stroke-width="6" stroke-linecap="round" stroke-linejoin="round"/>
<path d="M1123.22 276C1119.28 270.09 1118.68 267.41 1118.68 267.41C1132.95 264.2 1140.06 243.07 1140.06 243.07C1140.06 243.07 1142.85 243.76 1149.2 247.34C1151.76 248.78 1154.1 247.63 1155.93 247.34C1158.48 267.1 1133.09 282.59 1124.37 286.85C1123.31 282.78 1126.22 280.49 1123.22 276Z" fill="#E5E5E5"/>
<path d="M1291.11 327.75C1281.98 325.941 1272.7 324.954 1263.39 324.8C1254.73 324.72 1240.03 324.55 1238.28 326.24C1234.15 330.24 1246.69 334.63 1253.41 331.88" fill="white"/>
<path d="M1291.11 327.75C1281.98 325.941 1272.7 324.954 1263.39 324.8C1254.73 324.72 1240.03 324.55 1238.28 326.24C1234.15 330.24 1246.69 334.63 1253.41 331.88" stroke="#E5E5E5" stroke-width="6" stroke-linecap="round" stroke-linejoin="round"/>
<path d="M1309.94 328.13C1303.94 327.76 1295.62 327.27 1285.18 326.71C1283.94 326.64 1260.86 334.38 1260.86 334.38L1278.15 352.77C1278.15 352.77 1279.15 354.46 1306.46 359.53" fill="white"/>
<path d="M1309.94 328.13C1303.94 327.76 1295.62 327.27 1285.18 326.71C1283.94 326.64 1260.86 334.38 1260.86 334.38L1278.15 352.77C1278.15 352.77 1279.15 354.46 1306.46 359.53" stroke="#E5E5E5" stroke-width="6" stroke-linecap="round" stroke-linejoin="round"/>
<path d="M1257.8 338.2C1245.31 339.43 1238.99 338.85 1242.31 334.64C1244.22 332.22 1265.67 326.35 1269.75 325.96C1273.83 325.57 1295.38 327.69 1295.38 327.69" fill="white"/>
<path d="M1257.8 338.2C1245.31 339.43 1238.99 338.85 1242.31 334.64C1244.22 332.22 1265.67 326.35 1269.75 325.96C1273.83 325.57 1295.38 327.69 1295.38 327.69" stroke="#E5E5E5" stroke-width="6" stroke-linecap="round" stroke-linejoin="round"/>
<path d="M1273.83 333.45C1268.7 334.15 1263.62 335.125 1258.6 336.37C1251.88 338.17 1247.6 340.69 1247.86 341.92C1248.12 343.15 1252.33 346.41 1256.65 345.63C1262.91 343.4 1276.32 342.26 1276.32 342.26C1275.02 341.74 1265.44 343.98 1260.26 344.74C1255.08 345.5 1250.36 349.57 1262.42 350.85L1280.56 353.22" fill="white"/>
<path d="M1273.83 333.45C1268.7 334.15 1263.62 335.125 1258.6 336.37C1251.88 338.17 1247.6 340.69 1247.86 341.92C1248.12 343.15 1252.33 346.41 1256.65 345.63C1262.91 343.4 1276.32 342.26 1276.32 342.26C1275.02 341.74 1265.44 343.98 1260.26 344.74C1255.08 345.5 1250.36 349.57 1262.42 350.85L1280.56 353.22" stroke="#E5E5E5" stroke-width="6" stroke-linecap="round" stroke-linejoin="round"/>
<path d="M1308.15 363.7C1302.22 361.46 1300.32 359.7 1300.32 359.7C1308.01 347.7 1300.32 327.8 1300.32 327.8C1300.32 327.8 1302.32 327.27 1308.56 326.01C1309.53 325.825 1310.45 325.439 1311.27 324.878C1312.08 324.317 1312.77 323.592 1313.29 322.75C1326.05 337.21 1318.39 362.62 1314.99 371.83C1312 369.17 1312.65 365.39 1308.15 363.7Z" fill="#E5E5E5"/>
<path d="M1391.2 306.3C1391.2 306.3 1378.52 307.54 1375.3 324.19" stroke="#E5E5E5" stroke-width="6" stroke-linecap="round" stroke-linejoin="round"/>
<path d="M1337.39 258.41C1337.39 258.41 1324.39 285.35 1322.66 303.66" stroke="#E5E5E5" stroke-width="6" stroke-linecap="round" stroke-linejoin="round"/>
<path d="M1277.37 259.59C1277.37 259.59 1283.37 285.37 1281.37 303.66" stroke="#E5E5E5" stroke-width="6" stroke-linecap="round" stroke-linejoin="round"/>
<path d="M1394.42 379C1394.42 379 1326.9 374.41 1319.33 372.47C1311.76 370.53 1314.56 364.99 1309.08 362.88C1303.6 360.77 1301.84 359.08 1301.84 359.08C1308.95 347.74 1301.84 328.95 1301.84 328.95C1301.84 328.95 1303.71 328.44 1309.46 327.26C1315.21 326.08 1313.35 320.15 1321.14 319.47C1328.93 318.79 1395.77 326.41 1395.77 326.41" stroke="#E5E5E5" stroke-width="6" stroke-linecap="round" stroke-linejoin="round"/>
<path d="M1208.59 280.13C1208.59 280.13 1225.46 288.66 1235.35 303.21" stroke="#E5E5E5" stroke-width="6" stroke-linecap="round" stroke-linejoin="round"/>
<path d="M1385.13 222.91C1373.65 242.1 1347.9 261.13 1341.87 263.91C1341.87 263.937 1341.87 263.963 1341.87 263.99C1359.08 264.83 1399.27 242.62 1406.06 238.72C1397.72 232.48 1390.8 226.66 1385.13 222.91Z" fill="#E5E5E5"/>
<path d="M1257.76 225.22C1257.64 222.4 1257.34 219.15 1257.4 215.71H1257.35C1252.43 219.59 1247.8 223.52 1243.46 227.5C1248.66 237.58 1259.2 252.86 1270.7 259.96C1267.26 252.78 1258.54 243.23 1257.76 225.22Z" fill="#E5E5E5"/>
<path d="M1351 149.33C1351 149.33 1366 149.62 1363.32 163.05C1360.64 176.48 1344.06 168.71 1344.06 168.71L1346.28 149.62L1351 149.33Z" fill="white" stroke="#E5E5E5" stroke-width="6" stroke-linecap="round" stroke-linejoin="round"/>
<path d="M1308.26 107C1304.26 106.67 1277.26 105 1274.26 127.56C1271.26 150.12 1274.49 175.1 1277 186.49C1279.51 197.88 1331.35 192.61 1334.28 191.59C1337.21 190.57 1340.71 187.14 1340.71 187.14L1347.82 152.44C1347.82 152.44 1350.72 110.55 1308.26 107Z" fill="white" stroke="#E5E5E5" stroke-width="6" stroke-linecap="round" stroke-linejoin="round"/>
<path d="M1345.42 167.64L1346.36 195.79L1354.36 204.93C1337.31 216.212 1321.84 229.722 1308.36 245.1C1308.36 245.1 1289.94 225.65 1286.71 195.18L1329.87 200.53L1333.25 183.67L1345.42 167.64Z" fill="white" stroke="#E5E5E5" stroke-width="6" stroke-linecap="round" stroke-linejoin="round"/>
<path d="M1342.67 152.17C1340.1 154.66 1333.21 169.01 1331.53 175.7C1331.53 175.7 1314.53 170.08 1290.07 169.7C1290.07 169.7 1276.76 169.96 1271.45 171.5C1271.45 171.5 1272.6 195.2 1283.39 207.5C1294.18 219.8 1317.01 216.34 1327.71 208.96C1338.41 201.58 1340.19 198.06 1342.71 190.17C1345.23 182.28 1351.71 152.85 1351.71 152.85L1342.67 152.17Z" fill="#968BB4"/>
<path d="M1349.67 157.24C1349.67 157.24 1356.67 146.33 1359.44 134.99C1360.73 129.823 1360.22 124.37 1357.99 119.533C1355.76 114.697 1351.95 110.766 1347.18 108.39C1338.92 104.39 1332.8 107.53 1332.8 107.53C1332.8 107.53 1341.56 92.62 1328.41 79.44C1326.11 77.1353 1323.36 75.3254 1320.34 74.1216C1317.31 72.9178 1314.07 72.3455 1310.82 72.44C1306.34 72.4801 1301.96 73.8256 1298.23 76.312C1294.51 78.7984 1291.58 82.3179 1289.82 86.44C1289.82 86.44 1272.63 54.87 1237.4 73.55C1233.85 75.44 1229.84 80.69 1227.93 84.23C1216.29 105.67 1254.64 131.07 1274.61 133.08C1296.53 135.29 1309.36 131.66 1316.42 126.29C1311.16 129.48 1317.07 162.28 1349.67 157.24Z" fill="#E5E5E5"/>
<path d="M1290.93 160.61L1288.56 181.26L1295.84 179.4" stroke="#E5E5E5" stroke-width="6" stroke-linecap="round" stroke-linejoin="round"/>
<path d="M1282.29 162.45C1283.46 162.45 1284.41 160.986 1284.41 159.18C1284.41 157.374 1283.46 155.91 1282.29 155.91C1281.12 155.91 1280.17 157.374 1280.17 159.18C1280.17 160.986 1281.12 162.45 1282.29 162.45Z" fill="#E5E5E5"/>
<path d="M1301.76 161.91C1302.93 161.91 1303.88 160.446 1303.88 158.64C1303.88 156.834 1302.93 155.37 1301.76 155.37C1300.59 155.37 1299.64 156.834 1299.64 158.64C1299.64 160.446 1300.59 161.91 1301.76 161.91Z" fill="#E5E5E5"/>
<path d="M1312.85 145.47C1311.78 144.103 1310.37 143.047 1308.75 142.412C1307.14 141.778 1305.38 141.587 1303.67 141.86" stroke="#E5E5E5" stroke-width="6" stroke-linecap="round" stroke-linejoin="round"/>
<path d="M1284.24 141.52C1284.24 141.52 1278.38 140 1276.91 144.79" stroke="#E5E5E5" stroke-width="6" stroke-linecap="round" stroke-linejoin="round"/>
<path d="M1307 186.14C1307 186.14 1306 192.4 1300.25 191.39" stroke="#E5E5E5" stroke-width="6" stroke-linecap="round" stroke-linejoin="round"/>
<path d="M1472.07 380.78H123.86V754.49H1472.07V380.78Z" stroke="#E5E5E5" stroke-width="6" stroke-linecap="round" stroke-linejoin="round"/>
<path d="M1473.69 380H121.3V428.1H1473.69V380Z" fill="#E5E5E5"/>
<path d="M3 755.01H1595.1" stroke="#E5E5E5" stroke-width="6" stroke-linecap="round" stroke-linejoin="round"/>
</g>
<defs>
<clipPath id="clip0">
<rect width="1598.1" height="758.01" fill="white"/>
</clipPath>
</defs>
</svg>
