<svg width="96" height="104" viewBox="0 0 96 104" fill="none" xmlns="http://www.w3.org/2000/svg">
<path fill-rule="evenodd" clip-rule="evenodd" d="M43.2388 0H53.2297C69.7834 0 83.2028 13.4312 83.2028 30V40C83.2028 56.5683 69.7834 69.9999 53.2297 69.9999H43.2388C26.6851 69.9999 13.2656 56.5683 13.2656 40V30C13.2656 13.4312 26.6851 0 43.2388 0Z" fill="#F39119"/>
<path d="M38.7742 40.2485L45.1147 43.4188L35.3542 48.299V38.5386L36.411 39.0669V33.908H30V53H49.092V40.2485H38.7742Z" fill="white"/>
<path d="M37.4675 41.9585V44.8791L40.388 43.4188L37.4675 41.9585Z" fill="white"/>
<path d="M38.5244 17V38.135H66.0704V17H38.5244ZM46.9784 33.908H42.7514V31.7945H46.9784V33.908ZM45.9217 25.8916L44.4274 27.3859L42.933 25.8916L44.4274 24.3973L42.933 22.9029L44.4274 21.4086L45.9217 22.9029L47.416 21.4086L48.9103 22.9029L47.416 24.3973L48.9103 25.8916L47.416 27.3859L45.9217 25.8916ZM51.2054 31.7945H55.4324V33.908H51.2054C49.4573 33.908 48.0352 32.4859 48.0352 30.7378C48.0352 28.9896 49.4573 27.5675 51.2054 27.5675H54.3757C54.9587 27.5675 55.4324 27.0938 55.4324 26.5108V24.8348L54.3757 25.8916L52.8814 24.3973L56.4892 20.7894L60.097 24.3973L58.6027 25.8916L57.5459 24.8348V26.5108C57.5459 28.2589 56.1238 29.681 54.3757 29.681H51.2054C50.6224 29.681 50.1487 30.1547 50.1487 30.7378C50.1487 31.3208 50.6224 31.7945 51.2054 31.7945ZM61.7729 33.908H57.5459V31.7945H61.7729V33.908Z" fill="white"/>
</svg>
