<svg width="32" height="32" viewBox="0 0 512 512" fill="none" xmlns="http://www.w3.org/2000/svg">
<path d="M126.106 484.656H24.5396C15.9053 484.656 9.54316 482.861 5.45324 479.271C1.81775 475.232 0 468.95 0 460.423V24.2328C0 15.7065 1.81775 9.64826 5.45324 6.05821C9.54316 2.0194 15.9053 0 24.5396 0H134.286C141.557 0 147.465 1.57064 152.009 4.71192C157.008 7.85322 161.552 13.0139 165.642 20.194L226.991 129.915C229.263 133.954 231.081 136.871 232.444 138.666C234.262 140.461 236.534 141.358 239.261 141.358H245.396C248.122 141.358 250.167 140.461 251.53 138.666C253.348 136.871 255.393 133.954 257.665 129.915L318.333 20.194C322.423 13.0139 326.74 7.85322 331.284 4.71192C336.283 1.57064 342.418 0 349.689 0H460.117C468.751 0 474.886 2.0194 478.521 6.05821C482.611 9.64826 484.656 15.7065 484.656 24.2328V460.423C484.656 468.95 482.611 475.232 478.521 479.271C474.886 482.861 468.751 484.656 460.117 484.656H355.142C346.508 484.656 340.146 482.861 336.056 479.271C332.42 475.232 330.602 468.95 330.602 460.423V223.48L290.385 296.852C286.295 304.481 281.296 310.09 275.388 313.68C269.935 316.822 262.891 318.392 254.257 318.392H226.991C218.357 318.392 211.086 316.822 205.178 313.68C199.725 310.09 194.953 304.481 190.863 296.852L150.646 223.48V460.423C150.646 468.95 148.601 475.232 144.511 479.271C140.875 482.861 134.74 484.656 126.106 484.656Z" fill="#51504E"/>
<path d="M153.45 512H51.8833C43.249 512 36.8869 510.205 32.797 506.615C29.1615 502.576 27.3438 496.294 27.3438 487.767V51.5765C27.3438 43.0502 29.1615 36.992 32.797 33.4019C36.8869 29.3631 43.249 27.3437 51.8833 27.3437H161.63C168.901 27.3437 174.808 28.9143 179.353 32.0556C184.351 35.1969 188.896 40.3576 192.986 47.5377L254.335 157.259C256.607 161.297 258.425 164.214 259.788 166.009C261.606 167.804 263.878 168.702 266.604 168.702H272.739C275.466 168.702 277.511 167.804 278.874 166.009C280.692 164.214 282.737 161.297 285.009 157.259L345.676 47.5377C349.766 40.3576 354.083 35.1969 358.628 32.0556C363.627 28.9143 369.762 27.3437 377.032 27.3437H487.461C496.095 27.3437 502.23 29.3631 505.865 33.4019C509.955 36.992 512 43.0502 512 51.5765V487.767C512 496.294 509.955 502.576 505.865 506.615C502.23 510.205 496.095 512 487.461 512H382.486C373.851 512 367.489 510.205 363.399 506.615C359.764 502.576 357.946 496.294 357.946 487.767V250.824L317.729 324.196C313.639 331.825 308.64 337.434 302.732 341.024C297.279 344.165 290.235 345.736 281.601 345.736H254.335C245.7 345.736 238.429 344.165 232.522 341.024C227.068 337.434 222.297 331.825 218.207 324.196L177.989 250.824V487.767C177.989 496.294 175.944 502.576 171.854 506.615C168.219 510.205 162.084 512 153.45 512Z" fill="#FB6415"/>
</svg>
