<svg width="210" height="49" viewBox="0 0 210 49" fill="none" xmlns="http://www.w3.org/2000/svg">
<path d="M6.80851 45L0 40.6364V5L20 19.5455L40 5V13L20 27.5455L6.80851 18.0909V45Z" fill="#F94962"/>
<path d="M20 33.3636L10.2128 26.0909V34.0909L20 41.3636L33.1915 31.9091V45L40 40.6364V18.8182L20 33.3636Z" fill="#F94962"/>
<path d="M19.8572 33.39L10.0001 26.1338V34.1157L19.8572 41.3719L33.1429 31.9388V45L40 40.6463V18.8776L19.8572 33.39Z" fill="#0367FF"/>
<path d="M58.93 15.06L65.05 31.332H65.122L71.278 15.06H78.406V17.976L77.218 18.084C76.498 18.156 76.15 18.576 76.174 19.344L77.074 35.832L79.306 35.94V39H70.63V36.084L71.926 35.976C72.574 35.928 72.886 35.616 72.862 35.04L72.178 22.332H72.106L66.562 36.696H63.142L57.67 22.476H57.598L56.878 35.832L59.218 35.94V39H50.722V36.084L52.018 35.976C52.57 35.928 52.87 35.604 52.918 35.004L53.89 18.264L51.694 18.12V15.06H58.93ZM97.3774 21.612V35.004C97.3774 35.388 97.4374 35.652 97.5574 35.796C97.7014 35.94 97.9414 36.024 98.2774 36.048L99.4294 36.12V39H93.7054V36.912L93.5974 36.876C92.3974 38.604 90.7534 39.468 88.6654 39.468C86.2174 39.468 84.4054 38.688 83.2294 37.128C82.0534 35.568 81.4654 33.432 81.4654 30.72C81.4654 27.456 82.2574 24.912 83.8414 23.088C85.4254 21.264 87.8014 20.352 90.9694 20.352C93.0094 20.352 95.1454 20.772 97.3774 21.612ZM93.2014 33.276V23.952C92.5294 23.64 91.6054 23.484 90.4294 23.484C88.8214 23.484 87.6574 24.132 86.9374 25.428C86.2174 26.724 85.8574 28.44 85.8574 30.576C85.8574 34.464 87.1054 36.408 89.6014 36.408C90.6574 36.408 91.5214 36.096 92.1934 35.472C92.8654 34.824 93.2014 34.092 93.2014 33.276ZM111.935 35.184L109.739 32.304L106.751 36.012L108.443 36.12V39H100.955V36.156L102.071 36.048C102.623 35.976 103.103 35.688 103.511 35.184L107.651 30L103.223 23.88L101.387 23.664V20.892H109.775V23.736L108.731 23.808C108.443 23.832 108.251 23.94 108.155 24.132C108.083 24.324 108.131 24.528 108.299 24.744L110.351 27.48L113.123 23.88L111.647 23.772V20.892H118.955V23.7L117.875 23.772C117.371 23.796 116.891 24.096 116.435 24.672L112.475 29.676L117.191 35.94L119.027 36.156V39H110.459V36.156L111.575 36.084C111.887 36.06 112.067 35.964 112.115 35.796C112.187 35.604 112.127 35.4 111.935 35.184Z" fill="#F94962"/>
<path d="M135.817 15.06L141.937 31.332H142.009L148.165 15.06H155.293V17.976L154.105 18.084C153.385 18.156 153.037 18.576 153.061 19.344L153.961 35.832L156.193 35.94V39H147.517V36.084L148.813 35.976C149.461 35.928 149.773 35.616 149.749 35.04L149.065 22.332H148.993L143.449 36.696H140.029L134.557 22.476H134.485L133.765 35.832L136.105 35.94V39H127.609V36.084L128.905 35.976C129.457 35.928 129.757 35.604 129.805 35.004L130.777 18.264L128.581 18.12V15.06H135.817ZM166.38 36.372C168.996 36.372 170.304 34.26 170.304 30.036C170.304 27.9 170.004 26.28 169.404 25.176C168.828 24.072 167.844 23.52 166.452 23.52C165.084 23.52 164.076 24.048 163.428 25.104C162.78 26.16 162.456 27.6 162.456 29.424C162.456 32.808 163.08 34.932 164.328 35.796C164.88 36.18 165.564 36.372 166.38 36.372ZM158.1 29.928C158.1 28.152 158.364 26.616 158.892 25.32C159.42 24 160.128 22.992 161.016 22.296C162.72 21 164.604 20.352 166.668 20.352C168.108 20.352 169.32 20.592 170.304 21.072C171.312 21.528 172.092 22.068 172.644 22.692C173.22 23.292 173.7 24.18 174.084 25.356C174.492 26.508 174.696 27.876 174.696 29.46C174.696 32.772 173.892 35.28 172.284 36.984C170.676 38.688 168.612 39.54 166.092 39.54C163.596 39.54 161.64 38.736 160.224 37.128C158.808 35.496 158.1 33.096 158.1 29.928ZM179.352 34.968V24.996C179.352 24.612 179.28 24.348 179.136 24.204C179.016 24.036 178.788 23.94 178.452 23.916L176.94 23.808V20.892H183.024V23.592C183.456 22.656 184.128 21.888 185.04 21.288C185.952 20.664 186.996 20.352 188.172 20.352C189.372 20.352 190.512 20.616 191.592 21.144V26.508L188.244 26.76V25.104C188.244 24.624 188.124 24.324 187.884 24.204C187.62 24.084 187.296 24.024 186.912 24.024C185.952 24.024 185.16 24.372 184.536 25.068C183.936 25.74 183.636 26.604 183.636 27.66V36.012L186.768 36.156V39H177.12V36.264L178.308 36.156C178.668 36.108 178.932 36.012 179.1 35.868C179.268 35.7 179.352 35.4 179.352 34.968ZM202.785 20.352C204.585 20.352 206.013 20.796 207.069 21.684C208.125 22.548 208.653 23.772 208.653 25.356C208.653 26.412 208.425 27.348 207.969 28.164C207.513 28.956 206.949 29.58 206.277 30.036C205.605 30.492 204.789 30.864 203.829 31.152C202.221 31.632 200.409 31.872 198.393 31.872C198.465 33.144 198.861 34.176 199.581 34.968C200.301 35.736 201.405 36.12 202.893 36.12C204.381 36.12 205.869 35.592 207.357 34.536L208.725 37.452C208.245 37.884 207.429 38.328 206.277 38.784C205.149 39.24 203.853 39.468 202.389 39.468C199.461 39.468 197.313 38.664 195.945 37.056C194.577 35.424 193.893 33.192 193.893 30.36C193.893 27.528 194.673 25.152 196.233 23.232C197.793 21.312 199.977 20.352 202.785 20.352ZM201.129 28.596C202.017 28.428 202.833 28.08 203.577 27.552C204.321 27 204.693 26.352 204.693 25.608C204.693 24.144 203.973 23.412 202.533 23.412C201.189 23.412 200.157 23.952 199.437 25.032C198.717 26.088 198.321 27.36 198.249 28.848C199.305 28.824 200.265 28.74 201.129 28.596Z" fill="#0367FF"/>
</svg>
